SplineFontDB: 3.0
FontName: LindenHill-Regular
FullName: Linden Hill
FamilyName: Linden Hill
Weight: Book
Copyright: Copyright (c) 2010 Barry Schwartz (chemoelectric@chemoelectric.org)\n
Version: 1.201
ItalicAngle: 0
UnderlinePosition: -405
UnderlineWidth: 200
Ascent: 3276
Descent: 820
sfntRevision: 0x00013374
LayerCount: 2
Layer: 0 1 "Back"  1
Layer: 1 1 "Fore"  0
XUID: [1021 288 713564382 14874583]
FSType: 0
OS2Version: 4
OS2_WeightWidthSlopeOnly: 0
OS2_UseTypoMetrics: 1
CreationTime: 1249677682
ModificationTime: 1314433027
PfmFamily: 17
TTFWeight: 400
TTFWidth: 5
LineGap: 0
VLineGap: 0
Panose: 2 0 5 3 0 0 0 0 0 0
OS2TypoAscent: 357
OS2TypoAOffset: 1
OS2TypoDescent: -1068
OS2TypoDOffset: 1
OS2TypoLinegap: 0
OS2WinAscent: 0
OS2WinAOffset: 1
OS2WinDescent: 807
OS2WinDOffset: 1
HheadAscent: 0
HheadAOffset: 1
HheadDescent: -807
HheadDOffset: 1
OS2SubXSize: 2662
OS2SubYSize: 2867
OS2SubXOff: 0
OS2SubYOff: 573
OS2SupXSize: 2662
OS2SupYSize: 2867
OS2SupXOff: 0
OS2SupYOff: 1966
OS2StrikeYSize: 204
OS2StrikeYPos: 1060
OS2Vendor: 'PfEd'
OS2CodePages: 00000093.00000000
OS2UnicodeRanges: 8000006f.00000042.00000000.00000000
Lookup: 3 0 0 "'aalt' Access All Alternates lookup 0"  {"'aalt' Access All Alternates lookup 0 subtable"  } ['aalt' ('DFLT' <'dflt' > ) ]
Lookup: 3 0 0 "'aalt' Access All Alternates in Latin lookup 1"  {"'aalt' Access All Alternates in Latin lookup 1 subtable"  } ['aalt' ('latn' <'AZE ' 'CAT ' 'CRT ' 'MOL ' 'ROM ' 'TRK ' 'dflt' > ) ]
Lookup: 1 0 0 "'locl' Localized Forms in Latin lookup 2"  {"'locl' Localized Forms in Latin lookup 2 subtable"  } ['locl' ('latn' <'CAT ' > ) ]
Lookup: 1 0 0 "'locl' Localized Forms in Latin lookup 3"  {"'locl' Localized Forms in Latin lookup 3 subtable"  } ['locl' ('latn' <'MOL ' 'ROM ' > ) ]
Lookup: 1 0 0 "'locl' Localized Forms in Latin lookup 4"  {"'locl' Localized Forms in Latin lookup 4 subtable"  } ['locl' ('latn' <'AZE ' 'CRT ' 'TRK ' > ) ]

StartChar: .notdef
Encoding: 65536 -1 0
Width: 2048
Flags: W
LayerCount: 2
Fore
SplineSet
213 0 m 1,0,-1
 213 2904 l 1,1,-1
 1835 2904 l 1,2,-1
 1835 0 l 1,3,-1
 213 0 l 1,0,-1
557 2421 m 0,4,5
 557 2355 557 2355 627 2355 c 0,6,7
 694 2355 694 2355 762.5 2357 c 128,-1,8
 831 2359 831 2359 852 2359 c 0,9,10
 964 2359 964 2359 1072.5 2314 c 128,-1,11
 1181 2269 1181 2269 1246 2203.5 c 128,-1,12
 1311 2138 1311 2138 1311 2077 c 0,13,14
 1311 2005 1311 2005 1275.5 1936.5 c 128,-1,15
 1240 1868 1240 1868 1183 1810.5 c 128,-1,16
 1126 1753 1126 1753 1057 1696 c 128,-1,17
 988 1639 988 1639 918.5 1578.5 c 128,-1,18
 849 1518 849 1518 792 1454.5 c 128,-1,19
 735 1391 735 1391 699.5 1310.5 c 128,-1,20
 664 1230 664 1230 664 1143 c 0,21,22
 664 1057 664 1057 690.5 976.5 c 128,-1,23
 717 896 717 896 757.5 839.5 c 128,-1,24
 798 783 798 783 846 740 c 128,-1,25
 894 697 894 697 938.5 676 c 128,-1,26
 983 655 983 655 1016 655 c 0,27,28
 1048 655 1048 655 1066.5 671.5 c 128,-1,29
 1085 688 1085 688 1085 721 c 0,30,31
 1085 743 1085 743 1068 766.5 c 128,-1,32
 1051 790 1051 790 1026 814 c 128,-1,33
 1001 838 1001 838 976.5 867 c 128,-1,34
 952 896 952 896 935 940 c 128,-1,35
 918 984 918 984 918 1036 c 0,36,37
 918 1089 918 1089 947 1141 c 128,-1,38
 976 1193 976 1193 1030.5 1247 c 128,-1,39
 1085 1301 1085 1301 1145.5 1353.5 c 128,-1,40
 1206 1406 1206 1406 1289 1485 c 128,-1,41
 1372 1564 1372 1564 1438 1642 c 0,42,43
 1498 1714 1498 1714 1521 1780.5 c 128,-1,44
 1544 1847 1544 1847 1544 1942 c 0,45,46
 1544 2033 1544 2033 1508.5 2128 c 128,-1,47
 1473 2223 1473 2223 1416 2301.5 c 128,-1,48
 1359 2380 1359 2380 1287.5 2451 c 128,-1,49
 1216 2522 1216 2522 1145 2570.5 c 128,-1,50
 1074 2619 1074 2619 1010.5 2647 c 128,-1,51
 947 2675 947 2675 905 2675 c 0,52,53
 846 2675 846 2675 780.5 2645.5 c 128,-1,54
 715 2616 715 2616 667.5 2575.5 c 128,-1,55
 620 2535 620 2535 588.5 2492 c 128,-1,56
 557 2449 557 2449 557 2421 c 0,4,5
786 336 m 0,57,58
 786 291 786 291 856 216.5 c 128,-1,59
 926 142 926 142 979 139 c 1,60,61
 1013 140 1013 140 1051 167 c 128,-1,62
 1089 194 1089 194 1116.5 228 c 128,-1,63
 1144 262 1144 262 1162 293 c 128,-1,64
 1180 324 1180 324 1180 336 c 0,65,66
 1180 387 1180 387 1112 457.5 c 128,-1,67
 1044 528 1044 528 987 528 c 0,68,69
 940 528 940 528 863 460.5 c 128,-1,70
 786 393 786 393 786 336 c 0,57,58
EndSplineSet
EndChar

StartChar: exclam
Encoding: 33 33 4
Width: 1249
GlyphClass: 2
Flags: W
LayerCount: 2
Fore
SplineSet
451 139 m 0,0,1
 451 179 451 179 522.5 245 c 128,-1,2
 594 311 594 311 627 311 c 0,3,4
 676 311 676 311 737.5 243 c 128,-1,5
 799 175 799 175 799 135 c 0,6,7
 799 90 799 90 732.5 24.5 c 128,-1,8
 666 -41 666 -41 623 -41 c 0,9,10
 584 -41 584 -41 517.5 25.5 c 128,-1,11
 451 92 451 92 451 139 c 0,0,1
455 2540 m 0,12,13
 455 2580 455 2580 492.5 2609 c 128,-1,14
 530 2638 530 2638 582 2651 c 128,-1,15
 634 2664 634 2664 671 2669.5 c 128,-1,16
 708 2675 708 2675 725 2675 c 0,17,18
 778 2675 778 2675 778 2630 c 0,19,20
 774 2375 774 2375 724 1826.5 c 128,-1,21
 674 1278 674 1278 668 1040 c 0,22,23
 667 993 667 993 666 933 c 128,-1,24
 665 873 665 873 664.5 838.5 c 128,-1,25
 664 804 664 804 662.5 763.5 c 128,-1,26
 661 723 661 723 657 701.5 c 128,-1,27
 653 680 653 680 645 659.5 c 128,-1,28
 637 639 637 639 624.5 631 c 128,-1,29
 612 623 612 623 594 623 c 0,30,31
 578 623 578 623 566 635 c 128,-1,32
 554 647 554 647 547 668.5 c 128,-1,33
 540 690 540 690 536.5 706.5 c 128,-1,34
 533 723 533 723 530 746 c 1,35,-1
 528 770 l 1,36,37
 496 1174 496 1174 475.5 1739.5 c 128,-1,38
 455 2305 455 2305 455 2540 c 0,12,13
EndSplineSet
Position2: "'cpsp' Capital Spacing in Latin lookup 1 subtable" dx=16 dy=0 dh=33 dv=0
EndChar

StartChar: numbersign
Encoding: 35 35 6
Width: 1748
GlyphClass: 2
Flags: W
LayerCount: 2
Fore
SplineSet
98 1053 m 1,0,-1
 98 1192 l 1,1,-1
 500 1192 l 1,2,-1
 586 1499 l 1,3,-1
 102 1499 l 1,4,-1
 102 1638 l 1,5,-1
 627 1638 l 1,6,-1
 950 2814 l 1,7,-1
 1118 2814 l 1,8,-1
 791 1638 l 1,9,-1
 1130 1638 l 1,10,-1
 1458 2814 l 1,11,-1
 1622 2814 l 1,12,-1
 1294 1638 l 1,13,-1
 1651 1638 l 1,14,-1
 1651 1499 l 1,15,-1
 1257 1499 l 1,16,-1
 1171 1192 l 1,17,-1
 1647 1192 l 1,18,-1
 1647 1053 l 1,19,-1
 1130 1053 l 1,20,-1
 778 -201 l 1,21,-1
 614 -201 l 1,22,-1
 967 1053 l 1,23,-1
 627 1053 l 1,24,-1
 283 -201 l 1,25,-1
 115 -201 l 1,26,-1
 463 1053 l 1,27,-1
 98 1053 l 1,0,-1
668 1192 m 1,28,-1
 1004 1192 l 1,29,-1
 1090 1499 l 1,30,-1
 754 1499 l 1,31,-1
 668 1192 l 1,28,-1
EndSplineSet
EndChar

StartChar: percent
Encoding: 37 37 8
Width: 3198
GlyphClass: 2
Flags: W
LayerCount: 2
Fore
SplineSet
180 -135 m 0,0,1
 180 -116 180 -116 217 -74 c 1,2,-1
 2679 2552 l 1,3,4
 2629 2527 2629 2527 2565 2502 c 128,-1,5
 2501 2477 2501 2477 2387 2442 c 128,-1,6
 2273 2407 2273 2407 2119 2385 c 128,-1,7
 1965 2363 1965 2363 1802 2363 c 0,8,9
 1720 2363 1720 2363 1507 2388 c 1,10,11
 1585 2264 1585 2264 1585 2089 c 0,12,13
 1585 1922 1585 1922 1512.5 1765.5 c 128,-1,14
 1440 1609 1440 1609 1323.5 1498 c 128,-1,15
 1207 1387 1207 1387 1054 1320 c 128,-1,16
 901 1253 901 1253 745 1253 c 0,17,18
 626 1253 626 1253 532.5 1292 c 128,-1,19
 439 1331 439 1331 382 1398 c 128,-1,20
 325 1465 325 1465 295.5 1550.5 c 128,-1,21
 266 1636 266 1636 266 1733 c 0,22,23
 266 1875 266 1875 322 2007.5 c 128,-1,24
 378 2140 378 2140 469.5 2239 c 128,-1,25
 561 2338 561 2338 674 2412.5 c 128,-1,26
 787 2487 787 2487 905.5 2525.5 c 128,-1,27
 1024 2564 1024 2564 1130 2564 c 0,28,29
 1188 2564 1188 2564 1246 2554 c 128,-1,30
 1304 2544 1304 2544 1353.5 2531.5 c 128,-1,31
 1403 2519 1403 2519 1518.5 2509 c 128,-1,32
 1634 2499 1634 2499 1794 2499 c 0,33,34
 2004 2499 2004 2499 2221.5 2535 c 128,-1,35
 2439 2571 2439 2571 2579 2613.5 c 128,-1,36
 2719 2656 2719 2656 2836 2692 c 128,-1,37
 2953 2728 2953 2728 2986 2728 c 128,-1,38
 3019 2728 3019 2728 3019 2707 c 0,39,40
 3019 2675 3019 2675 2945 2593 c 1,41,-1
 377 -164 l 1,42,-1
 250 -164 l 2,43,44
 215 -164 215 -164 197.5 -158 c 128,-1,45
 180 -152 180 -152 180 -135 c 0,0,1
442 1626 m 0,46,47
 442 1539 442 1539 494.5 1480 c 128,-1,48
 547 1421 547 1421 651 1421 c 0,49,50
 758 1421 758 1421 870 1477 c 128,-1,51
 982 1533 982 1533 1072.5 1622.5 c 128,-1,52
 1163 1712 1163 1712 1236 1817.5 c 128,-1,53
 1309 1923 1309 1923 1349 2030 c 128,-1,54
 1389 2137 1389 2137 1389 2220 c 0,55,56
 1389 2299 1389 2299 1332 2349.5 c 128,-1,57
 1275 2400 1275 2400 1188 2400 c 0,58,59
 1108 2400 1108 2400 1005.5 2348 c 128,-1,60
 903 2296 903 2296 806 2210.5 c 128,-1,61
 709 2125 709 2125 626 2025 c 128,-1,62
 543 1925 543 1925 492.5 1817.5 c 128,-1,63
 442 1710 442 1710 442 1626 c 0,46,47
1565 438 m 0,64,65
 1565 581 1565 581 1621 714 c 128,-1,66
 1677 847 1677 847 1768 946 c 128,-1,67
 1859 1045 1859 1045 1972.5 1119.5 c 128,-1,68
 2086 1194 2086 1194 2204.5 1232 c 128,-1,69
 2323 1270 2323 1270 2429 1270 c 0,70,71
 2525 1270 2525 1270 2606 1242 c 128,-1,72
 2687 1214 2687 1214 2750 1157.5 c 128,-1,73
 2813 1101 2813 1101 2848.5 1007 c 128,-1,74
 2884 913 2884 913 2884 791 c 0,75,76
 2884 624 2884 624 2812.5 467.5 c 128,-1,77
 2741 311 2741 311 2624.5 200 c 128,-1,78
 2508 89 2508 89 2356 22 c 128,-1,79
 2204 -45 2204 -45 2048 -45 c 0,80,81
 1929 -45 1929 -45 1835 -5.5 c 128,-1,82
 1741 34 1741 34 1683 101.5 c 128,-1,83
 1625 169 1625 169 1595 255 c 128,-1,84
 1565 341 1565 341 1565 438 c 0,64,65
1741 332 m 0,85,86
 1741 245 1741 245 1795.5 184 c 128,-1,87
 1850 123 1850 123 1954 123 c 0,88,89
 2061 123 2061 123 2173 179.5 c 128,-1,90
 2285 236 2285 236 2375.5 326 c 128,-1,91
 2466 416 2466 416 2538.5 522.5 c 128,-1,92
 2611 629 2611 629 2651 736 c 128,-1,93
 2691 843 2691 843 2691 926 c 0,94,95
 2691 1005 2691 1005 2632 1055.5 c 128,-1,96
 2573 1106 2573 1106 2486 1106 c 0,97,98
 2419 1106 2419 1106 2335.5 1068.5 c 128,-1,99
 2252 1031 2252 1031 2170.5 970 c 128,-1,100
 2089 909 2089 909 2010.5 828 c 128,-1,101
 1932 747 1932 747 1873 662.5 c 128,-1,102
 1814 578 1814 578 1777.5 490.5 c 128,-1,103
 1741 403 1741 403 1741 332 c 0,85,86
EndSplineSet
EndChar

StartChar: ampersand
Encoding: 38 38 9
Width: 3481
GlyphClass: 2
Flags: W
LayerCount: 2
Fore
SplineSet
180 922 m 0,0,1
 180 1269 180 1269 444 1470 c 0,2,3
 561 1559 561 1559 721 1606 c 1,4,5
 711 1614 711 1614 683.5 1643 c 128,-1,6
 656 1672 656 1672 613 1729.5 c 128,-1,7
 570 1787 570 1787 532 1850.5 c 128,-1,8
 494 1914 494 1914 466 1996.5 c 128,-1,9
 438 2079 438 2079 438 2154 c 0,10,11
 438 2272 438 2272 485.5 2380 c 128,-1,12
 533 2488 533 2488 620 2572 c 128,-1,13
 707 2656 707 2656 842 2706.5 c 128,-1,14
 977 2757 977 2757 1139 2757 c 0,15,16
 1296 2757 1296 2757 1437 2695 c 128,-1,17
 1578 2633 1578 2633 1663.5 2527.5 c 128,-1,18
 1749 2422 1749 2422 1749 2302 c 0,19,20
 1749 2238 1749 2238 1725.5 2172 c 128,-1,21
 1702 2106 1702 2106 1660 2050.5 c 128,-1,22
 1618 1995 1618 1995 1550 1960 c 128,-1,23
 1482 1925 1482 1925 1401 1925 c 0,24,25
 1326 1925 1326 1925 1248.5 1954 c 128,-1,26
 1171 1983 1171 1983 1171 2023 c 0,27,28
 1171 2039 1171 2039 1199 2051.5 c 128,-1,29
 1227 2064 1227 2064 1266.5 2077.5 c 128,-1,30
 1306 2091 1306 2091 1346 2111.5 c 128,-1,31
 1386 2132 1386 2132 1414 2175.5 c 128,-1,32
 1442 2219 1442 2219 1442 2281 c 0,33,34
 1442 2418 1442 2418 1338.5 2509.5 c 128,-1,35
 1235 2601 1235 2601 1098 2601 c 0,36,37
 965 2601 965 2601 861.5 2513.5 c 128,-1,38
 758 2426 758 2426 758 2298 c 0,39,40
 758 2259 758 2259 763.5 2222.5 c 128,-1,41
 769 2186 769 2186 786 2145.5 c 128,-1,42
 803 2105 803 2105 819 2071.5 c 128,-1,43
 835 2038 835 2038 871 1990 c 128,-1,44
 907 1942 907 1942 934.5 1906.5 c 128,-1,45
 962 1871 962 1871 1019 1812 c 128,-1,46
 1076 1753 1076 1753 1117 1711.5 c 128,-1,47
 1158 1670 1158 1670 1236.5 1595.5 c 128,-1,48
 1315 1521 1315 1521 1371 1469 c 128,-1,49
 1427 1417 1427 1417 1528 1323 c 0,50,51
 1655 1204 1655 1204 1761 1109 c 128,-1,52
 1867 1014 1867 1014 1954 942 c 128,-1,53
 2041 870 2041 870 2084.5 835 c 128,-1,54
 2128 800 2128 800 2201.5 744.5 c 128,-1,55
 2275 689 2275 689 2281 684 c 2,56,-1
 2392 598 l 1,57,-1
 2408 621 l 2,58,59
 2424 644 2424 644 2444.5 679 c 128,-1,60
 2465 714 2465 714 2492 764.5 c 128,-1,61
 2519 815 2519 815 2544 879.5 c 128,-1,62
 2569 944 2569 944 2590.5 1016.5 c 128,-1,63
 2612 1089 2612 1089 2625 1178 c 128,-1,64
 2638 1267 2638 1267 2638 1356 c 0,65,66
 2638 1454 2638 1454 2633.5 1501.5 c 128,-1,67
 2629 1549 2629 1549 2609 1638 c 0,68,69
 2598 1687 2598 1687 2588 1713 c 128,-1,70
 2578 1739 2578 1739 2558.5 1762 c 128,-1,71
 2539 1785 2539 1785 2507.5 1794 c 128,-1,72
 2476 1803 2476 1803 2426.5 1809 c 128,-1,73
 2377 1815 2377 1815 2302.5 1816.5 c 128,-1,74
 2228 1818 2228 1818 2128 1819 c 0,75,76
 2117 1819 2117 1819 2110.5 1819 c 128,-1,77
 2104 1819 2104 1819 2094.5 1819 c 128,-1,78
 2085 1819 2085 1819 2077 1819 c 1,79,-1
 2068 1978 l 1,80,-1
 3162 1978 l 1,81,-1
 3166 1819 l 1,82,83
 3118 1818 3118 1818 3038 1818 c 0,84,85
 2882 1817 2882 1817 2833.5 1809.5 c 128,-1,86
 2785 1802 2785 1802 2785 1769 c 0,87,88
 2785 1758 2785 1758 2793.5 1736.5 c 128,-1,89
 2802 1715 2802 1715 2812 1684.5 c 128,-1,90
 2822 1654 2822 1654 2830.5 1564.5 c 128,-1,91
 2839 1475 2839 1475 2839 1343 c 0,92,93
 2839 1227 2839 1227 2808.5 1097 c 128,-1,94
 2778 967 2778 967 2735 864.5 c 128,-1,95
 2692 762 2692 762 2648.5 676 c 128,-1,96
 2605 590 2605 590 2574 543 c 2,97,-1
 2544 496 l 1,98,99
 2560 485 2560 485 2627.5 438.5 c 128,-1,100
 2695 392 2695 392 2716.5 378.5 c 128,-1,101
 2738 365 2738 365 2795 332.5 c 128,-1,102
 2852 300 2852 300 2887 288.5 c 128,-1,103
 2922 277 2922 277 2973.5 265.5 c 128,-1,104
 3025 254 3025 254 3076 254 c 0,105,106
 3142 254 3142 254 3197 265 c 128,-1,107
 3252 276 3252 276 3287.5 287.5 c 128,-1,108
 3323 299 3323 299 3342 299 c 0,109,110
 3364 299 3364 299 3373.5 289 c 128,-1,111
 3383 279 3383 279 3383 254 c 0,112,113
 3383 128 3383 128 3242 33.5 c 128,-1,114
 3101 -61 3101 -61 2896 -61 c 0,115,116
 2836 -61 2836 -61 2753.5 -32.5 c 128,-1,117
 2671 -4 2671 -4 2595.5 37 c 128,-1,118
 2520 78 2520 78 2453 119 c 128,-1,119
 2386 160 2386 160 2346 188 c 2,120,-1
 2306 217 l 1,121,122
 2301 211 2301 211 2291 200 c 128,-1,123
 2281 189 2281 189 2243.5 158 c 128,-1,124
 2206 127 2206 127 2162 99 c 128,-1,125
 2118 71 2118 71 2043 36.5 c 128,-1,126
 1968 2 1968 2 1884.5 -23 c 128,-1,127
 1801 -48 1801 -48 1683.5 -65 c 128,-1,128
 1566 -82 1566 -82 1438 -82 c 0,129,130
 1303 -82 1303 -82 1172 -62 c 128,-1,131
 1041 -42 1041 -42 916 -1 c 128,-1,132
 791 40 791 40 681 100 c 128,-1,133
 571 160 571 160 479 243.5 c 128,-1,134
 387 327 387 327 320.5 427 c 128,-1,135
 254 527 254 527 217 653.5 c 128,-1,136
 180 780 180 780 180 922 c 0,0,1
561 1049 m 0,137,138
 561 921 561 921 607.5 803 c 128,-1,139
 654 685 654 685 733.5 593 c 128,-1,140
 813 501 813 501 918.5 425.5 c 128,-1,141
 1024 350 1024 350 1142.5 300.5 c 128,-1,142
 1261 251 1261 251 1385 224 c 128,-1,143
 1509 197 1509 197 1626 197 c 0,144,145
 1699 197 1699 197 1766 204 c 128,-1,146
 1833 211 1833 211 1883.5 222.5 c 128,-1,147
 1934 234 1934 234 1977.5 247.5 c 128,-1,148
 2021 261 2021 261 2051.5 275 c 128,-1,149
 2082 289 2082 289 2103 300 c 128,-1,150
 2124 311 2124 311 2136.5 319.5 c 128,-1,151
 2149 328 2149 328 2150 328 c 2,152,-1
 1798 586 l 1,153,154
 1630 715 1630 715 1358.5 966 c 128,-1,155
 1087 1217 1087 1217 827 1491 c 1,156,157
 721 1464 721 1464 641 1343.5 c 128,-1,158
 561 1223 561 1223 561 1049 c 0,137,138
EndSplineSet
Substitution2: "'c2sc' Capitals to Small Capitals in Latin lookup 13 subtable" ampersand.c2
AlternateSubs2: "'aalt' Access All Alternates in Latin lookup 1 subtable" ampersand.c2
AlternateSubs2: "'aalt' Access All Alternates lookup 0 subtable" ampersand.c2
Position2: "'cpsp' Capital Spacing in Latin lookup 1 subtable" dx=16 dy=0 dh=33 dv=0
EndChar

StartChar: parenleft
Encoding: 40 40 11
Width: 1282
GlyphClass: 2
Flags: W
LayerCount: 2
Fore
SplineSet
180 938 m 0,0,1
 180 1205 180 1205 233.5 1452.5 c 128,-1,2
 287 1700 287 1700 372 1882 c 128,-1,3
 457 2064 457 2064 560.5 2222.5 c 128,-1,4
 664 2381 664 2381 767 2486 c 128,-1,5
 870 2591 870 2591 955 2666.5 c 128,-1,6
 1040 2742 1040 2742 1094 2776 c 2,7,-1
 1147 2810 l 1,8,-1
 1212 2732 l 1,9,10
 1202 2724 1202 2724 1185.5 2710 c 128,-1,11
 1169 2696 1169 2696 1117 2644.5 c 128,-1,12
 1065 2593 1065 2593 1015 2535 c 128,-1,13
 965 2477 965 2477 897 2382 c 128,-1,14
 829 2287 829 2287 770.5 2184.5 c 128,-1,15
 712 2082 712 2082 652 1943 c 128,-1,16
 592 1804 592 1804 550 1657.5 c 128,-1,17
 508 1511 508 1511 481.5 1328 c 128,-1,18
 455 1145 455 1145 455 954 c 0,19,20
 455 757 455 757 479.5 570 c 128,-1,21
 504 383 504 383 545.5 234 c 128,-1,22
 587 85 587 85 640.5 -51.5 c 128,-1,23
 694 -188 694 -188 753.5 -291.5 c 128,-1,24
 813 -395 813 -395 872.5 -483.5 c 128,-1,25
 932 -572 932 -572 985.5 -633 c 128,-1,26
 1039 -694 1039 -694 1080.5 -736.5 c 128,-1,27
 1122 -779 1122 -779 1146 -799 c 2,28,-1
 1171 -819 l 1,29,-1
 1098 -905 l 1,30,31
 1086 -896 1086 -896 1065.5 -878.5 c 128,-1,32
 1045 -861 1045 -861 982.5 -801.5 c 128,-1,33
 920 -742 920 -742 859.5 -676.5 c 128,-1,34
 799 -611 799 -611 716 -506 c 128,-1,35
 633 -401 633 -401 562 -292 c 128,-1,36
 491 -183 491 -183 418.5 -38.5 c 128,-1,37
 346 106 346 106 295 253 c 128,-1,38
 244 400 244 400 212 579 c 128,-1,39
 180 758 180 758 180 938 c 0,0,1
EndSplineSet
Substitution2: "'case' Case-Sensitive Forms in Latin lookup 15 subtable" parenleft.uppercase
AlternateSubs2: "'aalt' Access All Alternates in Latin lookup 1 subtable" parenleft.uppercase
AlternateSubs2: "'aalt' Access All Alternates lookup 0 subtable" parenleft.uppercase
EndChar

StartChar: parenright
Encoding: 41 41 12
Width: 1282
GlyphClass: 2
Flags: W
LayerCount: 2
Fore
SplineSet
70 2732 m 1,0,-1
 135 2810 l 1,1,2
 147 2803 147 2803 168.5 2789 c 128,-1,3
 190 2775 190 2775 256 2724.5 c 128,-1,4
 322 2674 322 2674 386 2615.5 c 128,-1,5
 450 2557 450 2557 537.5 2460 c 128,-1,6
 625 2363 625 2363 699.5 2257 c 128,-1,7
 774 2151 774 2151 850.5 2004.5 c 128,-1,8
 927 1858 927 1858 980.5 1701.5 c 128,-1,9
 1034 1545 1034 1545 1068 1346.5 c 128,-1,10
 1102 1148 1102 1148 1102 938 c 0,11,12
 1102 709 1102 709 1051.5 483.5 c 128,-1,13
 1001 258 1001 258 920 81 c 128,-1,14
 839 -96 839 -96 741 -257.5 c 128,-1,15
 643 -419 643 -419 545 -534 c 128,-1,16
 447 -649 447 -649 366 -735 c 128,-1,17
 285 -821 285 -821 234 -863 c 2,18,-1
 184 -905 l 1,19,-1
 115 -819 l 1,20,21
 124 -812 124 -812 140 -798.5 c 128,-1,22
 156 -785 156 -785 204.5 -736.5 c 128,-1,23
 253 -688 253 -688 300 -632.5 c 128,-1,24
 347 -577 347 -577 411.5 -484.5 c 128,-1,25
 476 -392 476 -392 531 -291.5 c 128,-1,26
 586 -191 586 -191 642 -52 c 128,-1,27
 698 87 698 87 737.5 234.5 c 128,-1,28
 777 382 777 382 802 569.5 c 128,-1,29
 827 757 827 757 827 954 c 0,30,31
 827 1145 827 1145 801 1327.5 c 128,-1,32
 775 1510 775 1510 731.5 1658 c 128,-1,33
 688 1806 688 1806 631 1942.5 c 128,-1,34
 574 2079 574 2079 511.5 2184.5 c 128,-1,35
 449 2290 449 2290 386 2381 c 128,-1,36
 323 2472 323 2472 266 2535.5 c 128,-1,37
 209 2599 209 2599 165.5 2644 c 128,-1,38
 122 2689 122 2689 96 2710 c 2,39,-1
 70 2732 l 1,0,-1
EndSplineSet
Substitution2: "'case' Case-Sensitive Forms in Latin lookup 15 subtable" parenright.uppercase
AlternateSubs2: "'aalt' Access All Alternates in Latin lookup 1 subtable" parenright.uppercase
AlternateSubs2: "'aalt' Access All Alternates lookup 0 subtable" parenright.uppercase
EndChar

StartChar: asterisk
Encoding: 42 42 13
Width: 1863
GlyphClass: 2
Flags: W
LayerCount: 2
Fore
SplineSet
180 1520 m 0,0,1
 180 1580 180 1580 244 1629.5 c 128,-1,2
 308 1679 308 1679 398.5 1709.5 c 128,-1,3
 489 1740 489 1740 580 1763.5 c 128,-1,4
 671 1787 671 1787 735 1807.5 c 128,-1,5
 799 1828 799 1828 799 1847 c 0,6,7
 799 1875 799 1875 735.5 1894.5 c 128,-1,8
 672 1914 672 1914 582 1930 c 128,-1,9
 492 1946 492 1946 401.5 1970 c 128,-1,10
 311 1994 311 1994 247.5 2045 c 128,-1,11
 184 2096 184 2096 184 2171 c 0,12,13
 184 2215 184 2215 204 2249.5 c 128,-1,14
 224 2284 224 2284 252.5 2301 c 128,-1,15
 281 2318 281 2318 305 2326.5 c 128,-1,16
 329 2335 329 2335 344 2335 c 0,17,18
 391 2335 391 2335 473 2278.5 c 128,-1,19
 555 2222 555 2222 627.5 2154.5 c 128,-1,20
 700 2087 700 2087 770.5 2030.5 c 128,-1,21
 841 1974 841 1974 868 1974 c 0,22,23
 885 1974 885 1974 885 2011 c 0,24,25
 885 2069 885 2069 821.5 2270 c 128,-1,26
 758 2471 758 2471 758 2499 c 0,27,28
 758 2590 758 2590 812 2644.5 c 128,-1,29
 866 2699 866 2699 938 2699 c 0,30,31
 971 2699 971 2699 1001 2688 c 128,-1,32
 1031 2677 1031 2677 1058.5 2653 c 128,-1,33
 1086 2629 1086 2629 1102 2583 c 128,-1,34
 1118 2537 1118 2537 1118 2474 c 0,35,36
 1118 2429 1118 2429 1058.5 2230.5 c 128,-1,37
 999 2032 999 2032 999 1987 c 0,38,39
 999 1958 999 1958 1020 1958 c 0,40,41
 1043 1958 1043 1958 1088 1995 c 128,-1,42
 1133 2032 1133 2032 1186 2085 c 128,-1,43
 1239 2138 1239 2138 1296 2191 c 128,-1,44
 1353 2244 1353 2244 1414.5 2281 c 128,-1,45
 1476 2318 1476 2318 1524 2318 c 0,46,47
 1594 2318 1594 2318 1638.5 2280.5 c 128,-1,48
 1683 2243 1683 2243 1683 2187 c 0,49,50
 1683 2129 1683 2129 1649.5 2083.5 c 128,-1,51
 1616 2038 1616 2038 1562 2010 c 128,-1,52
 1508 1982 1508 1982 1443 1960.5 c 128,-1,53
 1378 1939 1378 1939 1313 1925.5 c 128,-1,54
 1248 1912 1248 1912 1194 1901 c 128,-1,55
 1140 1890 1140 1890 1106.5 1876.5 c 128,-1,56
 1073 1863 1073 1863 1073 1847 c 0,57,58
 1073 1826 1073 1826 1115.5 1807 c 128,-1,59
 1158 1788 1158 1788 1222 1773.5 c 128,-1,60
 1286 1759 1286 1759 1360 1736 c 128,-1,61
 1434 1713 1434 1713 1498 1686 c 128,-1,62
 1562 1659 1562 1659 1604.5 1611.5 c 128,-1,63
 1647 1564 1647 1564 1647 1503 c 128,-1,64
 1647 1442 1647 1442 1613 1399 c 128,-1,65
 1579 1356 1579 1356 1516 1356 c 0,66,67
 1465 1356 1465 1356 1398 1394.5 c 128,-1,68
 1331 1433 1331 1433 1270.5 1487.5 c 128,-1,69
 1210 1542 1210 1542 1155 1597 c 128,-1,70
 1100 1652 1100 1652 1059 1690.5 c 128,-1,71
 1018 1729 1018 1729 1004 1729 c 0,72,73
 1001 1729 1001 1729 997 1726.5 c 128,-1,74
 993 1724 993 1724 988 1713 c 128,-1,75
 983 1702 983 1702 983 1683 c 0,76,77
 983 1629 983 1629 1038.5 1449 c 128,-1,78
 1094 1269 1094 1269 1094 1221 c 0,79,80
 1094 1147 1094 1147 1043.5 1098 c 128,-1,81
 993 1049 993 1049 926 1049 c 0,82,83
 860 1049 860 1049 805 1097 c 128,-1,84
 750 1145 750 1145 750 1208 c 0,85,86
 750 1258 750 1258 809 1473 c 128,-1,87
 868 1688 868 1688 868 1720 c 0,88,89
 868 1737 868 1737 860 1737 c 0,90,91
 845 1737 845 1737 802 1699 c 128,-1,92
 759 1661 759 1661 701.5 1606.5 c 128,-1,93
 644 1552 644 1552 581 1498 c 128,-1,94
 518 1444 518 1444 449 1406 c 128,-1,95
 380 1368 380 1368 328 1368 c 0,96,97
 259 1368 259 1368 219.5 1418 c 128,-1,98
 180 1468 180 1468 180 1520 c 0,0,1
EndSplineSet
EndChar

StartChar: plus
Encoding: 43 43 14
Width: 3125
GlyphClass: 2
Flags: W
LayerCount: 2
Fore
SplineSet
328 844 m 1,0,-1
 328 1081 l 1,1,2
 781 1081 781 1081 1064.5 1077 c 128,-1,3
 1348 1073 1348 1073 1405 1069 c 2,4,-1
 1462 1065 l 1,5,6
 1442 1121 1442 1121 1442 2200 c 1,7,-1
 1683 2200 l 1,8,9
 1683 1161 1683 1161 1663 1065 c 1,10,11
 1788 1081 1788 1081 2798 1081 c 1,12,-1
 2798 844 l 1,13,14
 2348 844 2348 844 2064.5 848 c 128,-1,15
 1781 852 1781 852 1722 856 c 2,16,-1
 1663 860 l 1,17,18
 1683 736 1683 736 1683 -274 c 1,19,-1
 1442 -274 l 1,20,21
 1442 176 1442 176 1447 459.5 c 128,-1,22
 1452 743 1452 743 1457 802 c 2,23,-1
 1462 860 l 1,24,25
 1346 844 1346 844 328 844 c 1,0,-1
EndSplineSet
Position2: "'case' Case-Sensitive Forms in Latin lookup 0 subtable" dx=0 dy=205 dh=0 dv=0
EndChar

StartChar: comma
Encoding: 44 44 15
Width: 917
GlyphClass: 2
Flags: W
LayerCount: 2
Fore
SplineSet
143 -541 m 0,0,1
 143 -523 143 -523 164.5 -504 c 128,-1,2
 186 -485 186 -485 217.5 -467 c 128,-1,3
 249 -449 249 -449 286.5 -419 c 128,-1,4
 324 -389 324 -389 355.5 -353.5 c 128,-1,5
 387 -318 387 -318 408.5 -259.5 c 128,-1,6
 430 -201 430 -201 430 -131 c 0,7,8
 430 -85 430 -85 417 -49 c 128,-1,9
 404 -13 404 -13 384.5 6.5 c 128,-1,10
 365 26 365 26 342 42 c 128,-1,11
 319 58 319 58 299.5 68 c 128,-1,12
 280 78 280 78 267 92 c 128,-1,13
 254 106 254 106 254 123 c 0,14,15
 254 153 254 153 294.5 200.5 c 128,-1,16
 335 248 335 248 380 281.5 c 128,-1,17
 425 315 425 315 442 315 c 0,18,19
 451 315 451 315 471 310.5 c 128,-1,20
 491 306 491 306 528 286.5 c 128,-1,21
 565 267 565 267 595 235.5 c 128,-1,22
 625 204 625 204 648.5 140 c 128,-1,23
 672 76 672 76 672 -8 c 0,24,25
 672 -131 672 -131 617 -265 c 128,-1,26
 562 -399 562 -399 487 -471 c 0,27,28
 417 -538 417 -538 332.5 -568 c 128,-1,29
 248 -598 248 -598 197 -598 c 0,30,31
 143 -598 143 -598 143 -541 c 0,0,1
EndSplineSet
EndChar

StartChar: hyphen
Encoding: 45 45 16
Width: 1290
GlyphClass: 2
Flags: W
LayerCount: 2
Fore
SplineSet
139 987 m 1,0,-1
 139 1233 l 1,1,-1
 1151 1532 l 1,2,-1
 1151 1282 l 1,3,-1
 139 987 l 1,0,-1
EndSplineSet
EndChar

StartChar: period
Encoding: 46 46 17
Width: 917
GlyphClass: 2
Flags: W
LayerCount: 2
Fore
SplineSet
254 168 m 0,0,1
 254 211 254 211 334 281.5 c 128,-1,2
 414 352 414 352 451 352 c 0,3,4
 507 352 507 352 575 271 c 128,-1,5
 643 190 643 190 643 147 c 0,6,7
 643 97 643 97 564.5 28 c 128,-1,8
 486 -41 486 -41 438 -41 c 0,9,10
 399 -41 399 -41 326.5 37 c 128,-1,11
 254 115 254 115 254 168 c 0,0,1
EndSplineSet
EndChar

StartChar: slash
Encoding: 47 47 18
Width: 1810
GlyphClass: 2
Flags: W
LayerCount: 2
Fore
SplineSet
70 -946 m 1,0,-1
 1466 2892 l 1,1,-1
 1659 2892 l 1,2,-1
 262 -946 l 1,3,-1
 70 -946 l 1,0,-1
EndSplineSet
Substitution2: "'case' Case-Sensitive Forms in Latin lookup 15 subtable" slash.uppercase
Substitution2: "'numr' Numerators in Latin lookup 5 subtable" fraction
AlternateSubs2: "'aalt' Access All Alternates in Latin lookup 1 subtable" slash.uppercase fraction
AlternateSubs2: "'aalt' Access All Alternates lookup 0 subtable" slash.uppercase fraction
EndChar

StartChar: colon
Encoding: 58 58 29
Width: 1081
GlyphClass: 2
Flags: W
LayerCount: 2
Fore
SplineSet
344 164 m 0,0,1
 344 203 344 203 422 275.5 c 128,-1,2
 500 348 500 348 553 348 c 0,3,4
 596 348 596 348 666.5 268.5 c 128,-1,5
 737 189 737 189 737 152 c 0,6,7
 737 96 737 96 656 29.5 c 128,-1,8
 575 -37 575 -37 532 -37 c 0,9,10
 481 -37 481 -37 412.5 39.5 c 128,-1,11
 344 116 344 116 344 164 c 0,0,1
344 1430 m 0,12,13
 344 1487 344 1487 420 1558.5 c 128,-1,14
 496 1630 496 1630 537 1630 c 0,15,16
 588 1630 588 1630 662.5 1558 c 128,-1,17
 737 1486 737 1486 737 1442 c 0,18,19
 737 1397 737 1397 665 1319 c 128,-1,20
 593 1241 593 1241 545 1241 c 0,21,22
 502 1241 502 1241 423 1314.5 c 128,-1,23
 344 1388 344 1388 344 1430 c 0,12,13
EndSplineSet
EndChar

StartChar: semicolon
Encoding: 59 59 30
Width: 1081
GlyphClass: 2
Flags: W
LayerCount: 2
Fore
SplineSet
233 -532 m 0,0,1
 233 -514 233 -514 253.5 -495.5 c 128,-1,2
 274 -477 274 -477 305 -460 c 128,-1,3
 336 -443 336 -443 372.5 -414 c 128,-1,4
 409 -385 409 -385 440 -350.5 c 128,-1,5
 471 -316 471 -316 491.5 -258.5 c 128,-1,6
 512 -201 512 -201 512 -131 c 0,7,8
 512 -85 512 -85 499 -49 c 128,-1,9
 486 -13 486 -13 466.5 6.5 c 128,-1,10
 447 26 447 26 424 42 c 128,-1,11
 401 58 401 58 381.5 68 c 128,-1,12
 362 78 362 78 349 92 c 128,-1,13
 336 106 336 106 336 123 c 0,14,15
 336 151 336 151 372 199.5 c 128,-1,16
 408 248 408 248 449.5 283.5 c 128,-1,17
 491 319 491 319 508 319 c 0,18,19
 519 319 519 319 543.5 310.5 c 128,-1,20
 568 302 568 302 605 278.5 c 128,-1,21
 642 255 642 255 674.5 220.5 c 128,-1,22
 707 186 707 186 730.5 126 c 128,-1,23
 754 66 754 66 754 -8 c 0,24,25
 754 -131 754 -131 699 -265 c 128,-1,26
 644 -399 644 -399 569 -471 c 0,27,28
 499 -538 499 -538 421 -568 c 128,-1,29
 343 -598 343 -598 295 -598 c 0,30,31
 261 -598 261 -598 247 -574.5 c 128,-1,32
 233 -551 233 -551 233 -532 c 0,0,1
344 1430 m 0,33,34
 344 1487 344 1487 420 1558.5 c 128,-1,35
 496 1630 496 1630 537 1630 c 0,36,37
 588 1630 588 1630 662.5 1558 c 128,-1,38
 737 1486 737 1486 737 1442 c 0,39,40
 737 1397 737 1397 665 1319 c 128,-1,41
 593 1241 593 1241 545 1241 c 0,42,43
 502 1241 502 1241 423 1314.5 c 128,-1,44
 344 1388 344 1388 344 1430 c 0,33,34
EndSplineSet
EndChar

StartChar: less
Encoding: 60 60 31
Width: 3117
GlyphClass: 2
Flags: W
LayerCount: 2
Fore
SplineSet
242 954 m 1,0,-1
 242 1044 l 1,1,-1
 2875 2306 l 1,2,-1
 2875 2032 l 1,3,-1
 668 999 l 1,4,-1
 2875 -33 l 1,5,-1
 2875 -307 l 1,6,-1
 242 954 l 1,0,-1
EndSplineSet
Position2: "'case' Case-Sensitive Forms in Latin lookup 0 subtable" dx=0 dy=205 dh=0 dv=0
EndChar

StartChar: equal
Encoding: 61 61 32
Width: 3211
GlyphClass: 2
Flags: W
LayerCount: 2
Fore
SplineSet
369 500 m 1,0,-1
 369 741 l 1,1,-1
 2843 741 l 1,2,-1
 2843 500 l 1,3,-1
 369 500 l 1,0,-1
369 1184 m 1,4,-1
 369 1425 l 1,5,-1
 2843 1425 l 1,6,-1
 2843 1184 l 1,7,-1
 369 1184 l 1,4,-1
EndSplineSet
Position2: "'case' Case-Sensitive Forms in Latin lookup 0 subtable" dx=0 dy=205 dh=0 dv=0
EndChar

StartChar: greater
Encoding: 62 62 33
Width: 3117
GlyphClass: 2
Flags: W
LayerCount: 2
Fore
SplineSet
242 -33 m 1,0,-1
 2449 999 l 1,1,-1
 242 2032 l 1,2,-1
 242 2306 l 1,3,-1
 2875 1044 l 1,4,-1
 2875 954 l 1,5,-1
 242 -307 l 1,6,-1
 242 -33 l 1,0,-1
EndSplineSet
Position2: "'case' Case-Sensitive Forms in Latin lookup 0 subtable" dx=0 dy=205 dh=0 dv=0
EndChar

StartChar: question
Encoding: 63 63 34
Width: 1626
GlyphClass: 2
Flags: W
LayerCount: 2
Fore
SplineSet
328 2474 m 0,0,1
 328 2499 328 2499 360 2542 c 128,-1,2
 392 2585 392 2585 441.5 2627.5 c 128,-1,3
 491 2670 491 2670 560 2701 c 128,-1,4
 629 2732 629 2732 692 2732 c 0,5,6
 735 2732 735 2732 802.5 2701.5 c 128,-1,7
 870 2671 870 2671 946.5 2618.5 c 128,-1,8
 1023 2566 1023 2566 1100.5 2490 c 128,-1,9
 1178 2414 1178 2414 1240 2329.5 c 128,-1,10
 1302 2245 1302 2245 1341 2142.5 c 128,-1,11
 1380 2040 1380 2040 1380 1942 c 0,12,13
 1380 1841 1380 1841 1356 1770 c 128,-1,14
 1332 1699 1332 1699 1266 1622 c 0,15,16
 1203 1548 1203 1548 1126.5 1473.5 c 128,-1,17
 1050 1399 1050 1399 989.5 1347.5 c 128,-1,18
 929 1296 929 1296 869 1240.5 c 128,-1,19
 809 1185 809 1185 769 1140 c 128,-1,20
 729 1095 729 1095 704.5 1043 c 128,-1,21
 680 991 680 991 680 938 c 0,22,23
 680 878 680 878 700 826.5 c 128,-1,24
 720 775 720 775 748 742 c 128,-1,25
 776 709 776 709 804 682 c 128,-1,26
 832 655 832 655 852 631 c 128,-1,27
 872 607 872 607 872 586 c 0,28,29
 872 564 872 564 855 548 c 128,-1,30
 838 532 838 532 811 532 c 0,31,32
 779 532 779 532 733.5 553.5 c 128,-1,33
 688 575 688 575 637 620.5 c 128,-1,34
 586 666 586 666 542.5 725.5 c 128,-1,35
 499 785 499 785 470.5 871.5 c 128,-1,36
 442 958 442 958 442 1053 c 0,37,38
 442 1147 442 1147 482 1234 c 128,-1,39
 522 1321 522 1321 585.5 1390 c 128,-1,40
 649 1459 649 1459 725.5 1525.5 c 128,-1,41
 802 1592 802 1592 879 1656.5 c 128,-1,42
 956 1721 956 1721 1019.5 1786 c 128,-1,43
 1083 1851 1083 1851 1123 1930 c 128,-1,44
 1163 2009 1163 2009 1163 2093 c 0,45,46
 1163 2166 1163 2166 1088.5 2244 c 128,-1,47
 1014 2322 1014 2322 889.5 2375.5 c 128,-1,48
 765 2429 765 2429 635 2429 c 0,49,50
 608 2429 608 2429 526.5 2427 c 128,-1,51
 445 2425 445 2425 381 2425 c 0,52,53
 353 2425 353 2425 340.5 2436 c 128,-1,54
 328 2447 328 2447 328 2474 c 0,0,1
582 156 m 0,55,56
 582 211 582 211 660 279.5 c 128,-1,57
 738 348 738 348 782 348 c 0,58,59
 833 348 833 348 904 275.5 c 128,-1,60
 975 203 975 203 975 156 c 0,61,62
 975 116 975 116 900.5 39.5 c 128,-1,63
 826 -37 826 -37 774 -37 c 0,64,65
 730 -37 730 -37 656 40 c 128,-1,66
 582 117 582 117 582 156 c 0,55,56
EndSplineSet
Position2: "'cpsp' Capital Spacing in Latin lookup 1 subtable" dx=16 dy=0 dh=33 dv=0
EndChar

StartChar: at
Encoding: 64 64 35
Width: 3096
GlyphClass: 2
Flags: W
LayerCount: 2
Fore
SplineSet
262 807 m 0,0,1
 262 956 262 956 297 1101 c 128,-1,2
 332 1246 332 1246 398 1378 c 128,-1,3
 464 1510 464 1510 567.5 1622 c 128,-1,4
 671 1734 671 1734 801 1816 c 128,-1,5
 931 1898 931 1898 1100.5 1944.5 c 128,-1,6
 1270 1991 1270 1991 1462 1991 c 0,7,8
 1628 1991 1628 1991 1760.5 1910 c 128,-1,9
 1893 1829 1893 1829 1964.5 1692.5 c 128,-1,10
 2036 1556 2036 1556 2036 1393 c 2,11,-1
 2036 807 l 2,12,13
 2036 747 2036 747 2040.5 706 c 128,-1,14
 2045 665 2045 665 2060 619.5 c 128,-1,15
 2075 574 2075 574 2103 542.5 c 128,-1,16
 2131 511 2131 511 2179.5 482 c 128,-1,17
 2228 453 2228 453 2298 434 c 0,18,19
 2339 423 2339 423 2339 401 c 128,-1,20
 2339 379 2339 379 2298 356 c 1,21,22
 2230 312 2230 312 2147.5 262 c 128,-1,23
 2065 212 2065 212 2056 209 c 1,24,25
 2006 245 2006 245 1963.5 285 c 128,-1,26
 1921 325 1921 325 1899.5 350.5 c 128,-1,27
 1878 376 1878 376 1839 427 c 128,-1,28
 1800 478 1800 478 1782 500 c 1,29,30
 1699 389 1699 389 1566.5 313.5 c 128,-1,31
 1434 238 1434 238 1303 238 c 0,32,33
 1235 238 1235 238 1170.5 255.5 c 128,-1,34
 1106 273 1106 273 1049 308 c 128,-1,35
 992 343 992 343 957 404.5 c 128,-1,36
 922 466 922 466 922 545 c 0,37,38
 922 669 922 669 986 784 c 128,-1,39
 1050 899 1050 899 1159 984 c 128,-1,40
 1268 1069 1268 1069 1421.5 1120 c 128,-1,41
 1575 1171 1575 1171 1745 1171 c 1,42,-1
 1745 1495 l 2,43,44
 1745 1530 1745 1530 1734.5 1572 c 128,-1,45
 1724 1614 1724 1614 1696.5 1663 c 128,-1,46
 1669 1712 1669 1712 1629.5 1751.5 c 128,-1,47
 1590 1791 1590 1791 1524.5 1817 c 128,-1,48
 1459 1843 1459 1843 1380 1843 c 0,49,50
 1226 1843 1226 1843 1090.5 1786.5 c 128,-1,51
 955 1730 955 1730 856 1632.5 c 128,-1,52
 757 1535 757 1535 685 1406.5 c 128,-1,53
 613 1278 613 1278 577 1131 c 128,-1,54
 541 984 541 984 541 831 c 0,55,56
 541 671 541 671 580 522.5 c 128,-1,57
 619 374 619 374 703.5 239 c 128,-1,58
 788 104 788 104 911 4.5 c 128,-1,59
 1034 -95 1034 -95 1213.5 -154 c 128,-1,60
 1393 -213 1393 -213 1610 -213 c 0,61,62
 1749 -213 1749 -213 1880 -185 c 128,-1,63
 2011 -157 2011 -157 2133.5 -101 c 128,-1,64
 2256 -45 2256 -45 2357.5 45.5 c 128,-1,65
 2459 136 2459 136 2534.5 253.5 c 128,-1,66
 2610 371 2610 371 2652.5 530.5 c 128,-1,67
 2695 690 2695 690 2695 877 c 0,68,69
 2695 999 2695 999 2676 1109.5 c 128,-1,70
 2657 1220 2657 1220 2624.5 1305.5 c 128,-1,71
 2592 1391 2592 1391 2550.5 1467 c 128,-1,72
 2509 1543 2509 1543 2462.5 1599 c 128,-1,73
 2416 1655 2416 1655 2370 1702.5 c 128,-1,74
 2324 1750 2324 1750 2282.5 1784.5 c 128,-1,75
 2241 1819 2241 1819 2208.5 1845 c 128,-1,76
 2176 1871 2176 1871 2157 1890 c 128,-1,77
 2138 1909 2138 1909 2138 1921 c 0,78,79
 2138 1935 2138 1935 2147.5 1950.5 c 128,-1,80
 2157 1966 2157 1966 2179 1966 c 0,81,82
 2195 1966 2195 1966 2225 1955.5 c 128,-1,83
 2255 1945 2255 1945 2299 1921.5 c 128,-1,84
 2343 1898 2343 1898 2392.5 1864 c 128,-1,85
 2442 1830 2442 1830 2496 1778.5 c 128,-1,86
 2550 1727 2550 1727 2601.5 1665 c 128,-1,87
 2653 1603 2653 1603 2699 1519.5 c 128,-1,88
 2745 1436 2745 1436 2779.5 1342 c 128,-1,89
 2814 1248 2814 1248 2834.5 1128 c 128,-1,90
 2855 1008 2855 1008 2855 877 c 0,91,92
 2855 695 2855 695 2816.5 534.5 c 128,-1,93
 2778 374 2778 374 2709.5 248.5 c 128,-1,94
 2641 123 2641 123 2545 19.5 c 128,-1,95
 2449 -84 2449 -84 2334.5 -157 c 128,-1,96
 2220 -230 2220 -230 2089 -280 c 128,-1,97
 1958 -330 1958 -330 1820.5 -353.5 c 128,-1,98
 1683 -377 1683 -377 1540 -377 c 0,99,100
 1359 -377 1359 -377 1197.5 -342.5 c 128,-1,101
 1036 -308 1036 -308 908.5 -246 c 128,-1,102
 781 -184 781 -184 674.5 -98 c 128,-1,103
 568 -12 568 -12 492.5 91.5 c 128,-1,104
 417 195 417 195 364.5 312.5 c 128,-1,105
 312 430 312 430 287 554.5 c 128,-1,106
 262 679 262 679 262 807 c 0,0,1
1212 668 m 0,107,108
 1212 575 1212 575 1270 515 c 128,-1,109
 1328 455 1328 455 1454 455 c 0,110,111
 1523 455 1523 455 1576.5 470.5 c 128,-1,112
 1630 486 1630 486 1661 509.5 c 128,-1,113
 1692 533 1692 533 1712 565 c 128,-1,114
 1732 597 1732 597 1738.5 625.5 c 128,-1,115
 1745 654 1745 654 1745 684 c 2,116,-1
 1745 1061 l 1,117,118
 1623 1061 1623 1061 1519.5 1025 c 128,-1,119
 1416 989 1416 989 1350.5 931.5 c 128,-1,120
 1285 874 1285 874 1248.5 805.5 c 128,-1,121
 1212 737 1212 737 1212 668 c 0,107,108
EndSplineSet
EndChar

StartChar: A
Encoding: 65 65 36
Width: 2973
GlyphClass: 2
Flags: W
LayerCount: 2
Fore
SplineSet
111 160 m 1,0,-1
 160 160 l 2,1,2
 270 160 270 160 307 198 c 128,-1,3
 344 236 344 236 432 433 c 0,4,5
 441 453 441 453 446 463 c 0,6,7
 594 794 594 794 711 1054.5 c 128,-1,8
 828 1315 828 1315 880 1430 c 128,-1,9
 932 1545 932 1545 970 1627.5 c 128,-1,10
 1008 1710 1008 1710 1022 1743 c 128,-1,11
 1036 1776 1036 1776 1053 1815 c 2,12,-1
 1470 2830 l 1,13,-1
 1556 2830 l 1,14,15
 1804 2183 1804 2183 2445 635 c 1,16,17
 2562 348 2562 348 2597 282 c 0,18,19
 2642 198 2642 198 2691 176 c 0,20,21
 2727 160 2727 160 2802 160 c 2,22,-1
 2863 160 l 1,23,-1
 2859 0 l 1,24,-1
 1925 0 l 1,25,-1
 1929 160 l 1,26,-1
 2052 160 l 2,27,28
 2154 160 2154 160 2193 168.5 c 128,-1,29
 2232 177 2232 177 2232 209 c 0,30,31
 2232 216 2232 216 2230.5 224.5 c 128,-1,32
 2229 233 2229 233 2224.5 247 c 128,-1,33
 2220 261 2220 261 2217 269 c 128,-1,34
 2214 277 2214 277 2204.5 301 c 128,-1,35
 2195 325 2195 325 2191 336 c 2,36,-1
 1888 1081 l 1,37,-1
 938 1081 l 1,38,-1
 614 360 l 1,39,40
 573 260 573 260 573 229 c 0,41,42
 573 182 573 182 604.5 171 c 128,-1,43
 636 160 636 160 741 160 c 2,44,-1
 909 160 l 1,45,-1
 909 0 l 1,46,-1
 115 0 l 1,47,-1
 111 160 l 1,0,-1
1016 1262 m 1,48,-1
 1819 1262 l 1,49,-1
 1430 2232 l 1,50,-1
 1016 1262 l 1,48,-1
EndSplineSet
Substitution2: "'c2sc' Capitals to Small Capitals in Latin lookup 13 subtable" A.c2
AlternateSubs2: "'aalt' Access All Alternates in Latin lookup 1 subtable" A.c2
AlternateSubs2: "'aalt' Access All Alternates lookup 0 subtable" A.c2
Position2: "'cpsp' Capital Spacing in Latin lookup 1 subtable" dx=16 dy=0 dh=33 dv=0
EndChar

StartChar: B
Encoding: 66 66 37
Width: 2285
GlyphClass: 2
Flags: W
LayerCount: 2
Fore
SplineSet
111 2568 m 1,0,-1
 119 2732 l 1,1,-1
 1024 2732 l 2,2,3
 1180 2732 1180 2732 1313 2711 c 128,-1,4
 1446 2690 1446 2690 1543.5 2653.5 c 128,-1,5
 1641 2617 1641 2617 1718 2565.5 c 128,-1,6
 1795 2514 1795 2514 1844.5 2455.5 c 128,-1,7
 1894 2397 1894 2397 1927 2329 c 128,-1,8
 1960 2261 1960 2261 1973.5 2195 c 128,-1,9
 1987 2129 1987 2129 1987 2060 c 0,10,11
 1987 1955 1987 1955 1941 1858.5 c 128,-1,12
 1895 1762 1895 1762 1819 1689.5 c 128,-1,13
 1743 1617 1743 1617 1651.5 1564.5 c 128,-1,14
 1560 1512 1560 1512 1462 1483 c 1,15,16
 1595 1453 1595 1453 1702.5 1392.5 c 128,-1,17
 1810 1332 1810 1332 1880 1255 c 128,-1,18
 1950 1178 1950 1178 1997.5 1083.5 c 128,-1,19
 2045 989 2045 989 2065 895.5 c 128,-1,20
 2085 802 2085 802 2085 705 c 0,21,22
 2085 569 2085 569 2040 448 c 128,-1,23
 1995 327 1995 327 1901 242 c 0,24,25
 1828 176 1828 176 1722 129 c 128,-1,26
 1616 82 1616 82 1511.5 57.5 c 128,-1,27
 1407 33 1407 33 1259.5 19.5 c 128,-1,28
 1112 6 1112 6 1001 3 c 128,-1,29
 890 0 890 0 725 0 c 2,30,-1
 143 0 l 1,31,-1
 143 160 l 1,32,-1
 266 160 l 2,33,34
 371 160 371 160 404.5 181 c 128,-1,35
 438 202 438 202 438 279 c 2,36,-1
 438 2421 l 2,37,38
 438 2462 438 2462 429 2489.5 c 128,-1,39
 420 2517 420 2517 406 2533 c 128,-1,40
 392 2549 392 2549 362.5 2556.5 c 128,-1,41
 333 2564 333 2564 304.5 2566 c 128,-1,42
 276 2568 276 2568 225 2568 c 2,43,-1
 111 2568 l 1,0,-1
762 1409 m 1,44,-1
 770 311 l 2,45,46
 770 227 770 227 822 203.5 c 128,-1,47
 874 180 874 180 1036 180 c 0,48,49
 1156 180 1156 180 1254.5 199.5 c 128,-1,50
 1353 219 1353 219 1420 250.5 c 128,-1,51
 1487 282 1487 282 1538 328.5 c 128,-1,52
 1589 375 1589 375 1618.5 422.5 c 128,-1,53
 1648 470 1648 470 1666 527 c 128,-1,54
 1684 584 1684 584 1690 632 c 128,-1,55
 1696 680 1696 680 1696 733 c 0,56,57
 1696 852 1696 852 1662 950.5 c 128,-1,58
 1628 1049 1628 1049 1572 1117.5 c 128,-1,59
 1516 1186 1516 1186 1437.5 1239 c 128,-1,60
 1359 1292 1359 1292 1276.5 1323.5 c 128,-1,61
 1194 1355 1194 1355 1099 1375 c 128,-1,62
 1004 1395 1004 1395 924 1402 c 128,-1,63
 844 1409 844 1409 762 1409 c 1,44,-1
770 1528 m 1,64,-1
 1171 1528 l 2,65,66
 1271 1528 1271 1528 1356 1574.5 c 128,-1,67
 1441 1621 1441 1621 1494 1693 c 128,-1,68
 1547 1765 1547 1765 1576.5 1848.5 c 128,-1,69
 1606 1932 1606 1932 1606 2011 c 0,70,71
 1606 2068 1606 2068 1590 2127 c 128,-1,72
 1574 2186 1574 2186 1541 2247.5 c 128,-1,73
 1508 2309 1508 2309 1450.5 2363 c 128,-1,74
 1393 2417 1393 2417 1317 2460 c 128,-1,75
 1241 2503 1241 2503 1131.5 2527.5 c 128,-1,76
 1022 2552 1022 2552 893 2552 c 0,77,78
 825 2552 825 2552 797.5 2529 c 128,-1,79
 770 2506 770 2506 770 2458 c 2,80,-1
 770 1528 l 1,64,-1
EndSplineSet
Substitution2: "'c2sc' Capitals to Small Capitals in Latin lookup 13 subtable" B.c2
AlternateSubs2: "'aalt' Access All Alternates in Latin lookup 1 subtable" B.c2
AlternateSubs2: "'aalt' Access All Alternates lookup 0 subtable" B.c2
Position2: "'cpsp' Capital Spacing in Latin lookup 1 subtable" dx=16 dy=0 dh=33 dv=0
EndChar

StartChar: C
Encoding: 67 67 38
Width: 3018
GlyphClass: 2
Flags: W
LayerCount: 2
Fore
SplineSet
221 1286 m 0,0,1
 221 1491 221 1491 269 1675.5 c 128,-1,2
 317 1860 317 1860 400.5 2004.5 c 128,-1,3
 484 2149 484 2149 598.5 2270.5 c 128,-1,4
 713 2392 713 2392 845.5 2477.5 c 128,-1,5
 978 2563 978 2563 1123.5 2623 c 128,-1,6
 1269 2683 1269 2683 1415.5 2711.5 c 128,-1,7
 1562 2740 1562 2740 1704 2740 c 0,8,9
 1910 2740 1910 2740 2074.5 2720 c 128,-1,10
 2239 2700 2239 2700 2316 2676.5 c 128,-1,11
 2393 2653 2393 2653 2450 2633 c 128,-1,12
 2507 2613 2507 2613 2523 2613 c 0,13,14
 2547 2613 2547 2613 2559 2616.5 c 128,-1,15
 2571 2620 2571 2620 2578 2636 c 128,-1,16
 2585 2652 2585 2652 2586 2668 c 128,-1,17
 2587 2684 2587 2684 2588 2727 c 0,18,19
 2588 2735 2588 2735 2588 2739.5 c 128,-1,20
 2588 2744 2588 2744 2588.5 2751.5 c 128,-1,21
 2589 2759 2589 2759 2589 2765 c 1,22,-1
 2744 2765 l 1,23,24
 2756 2366 2756 2366 2793 1982 c 1,25,-1
 2646 1978 l 1,26,27
 2640 2029 2640 2029 2633.5 2085.5 c 128,-1,28
 2627 2142 2627 2142 2625.5 2168.5 c 128,-1,29
 2624 2195 2624 2195 2618 2228.5 c 128,-1,30
 2612 2262 2612 2262 2610.5 2273 c 128,-1,31
 2609 2284 2609 2284 2597.5 2303.5 c 128,-1,32
 2586 2323 2586 2323 2579.5 2327.5 c 128,-1,33
 2573 2332 2573 2332 2552 2346 c 128,-1,34
 2531 2360 2531 2360 2515 2365.5 c 128,-1,35
 2499 2371 2499 2371 2463 2388 c 128,-1,36
 2427 2405 2427 2405 2396 2421 c 0,37,38
 2299 2471 2299 2471 2106.5 2509.5 c 128,-1,39
 1914 2548 1914 2548 1716 2548 c 0,40,41
 1514 2548 1514 2548 1333 2489 c 128,-1,42
 1152 2430 1152 2430 1014 2323.5 c 128,-1,43
 876 2217 876 2217 775 2074.5 c 128,-1,44
 674 1932 674 1932 621.5 1760.5 c 128,-1,45
 569 1589 569 1589 569 1405 c 0,46,47
 569 1244 569 1244 611 1084 c 128,-1,48
 653 924 653 924 729 781.5 c 128,-1,49
 805 639 805 639 918 516 c 128,-1,50
 1031 393 1031 393 1166 304.5 c 128,-1,51
 1301 216 1301 216 1467 165.5 c 128,-1,52
 1633 115 1633 115 1810 115 c 0,53,54
 1930 115 1930 115 2058.5 147 c 128,-1,55
 2187 179 2187 179 2292 228.5 c 128,-1,56
 2397 278 2397 278 2482.5 335 c 128,-1,57
 2568 392 2568 392 2616.5 446 c 128,-1,58
 2665 500 2665 500 2666 537 c 2,59,-1
 2679 881 l 1,60,-1
 2822 881 l 1,61,-1
 2798 283 l 1,62,63
 2788 276 2788 276 2769 263.5 c 128,-1,64
 2750 251 2750 251 2687.5 214.5 c 128,-1,65
 2625 178 2625 178 2558.5 145 c 128,-1,66
 2492 112 2492 112 2390.5 72 c 128,-1,67
 2289 32 2289 32 2187.5 3 c 128,-1,68
 2086 -26 2086 -26 1958.5 -46 c 128,-1,69
 1831 -66 1831 -66 1708 -66 c 0,70,71
 1357 -66 1357 -66 1077 29 c 128,-1,72
 797 124 797 124 609 299.5 c 128,-1,73
 421 475 421 475 321 726 c 128,-1,74
 221 977 221 977 221 1286 c 0,0,1
EndSplineSet
Substitution2: "'c2sc' Capitals to Small Capitals in Latin lookup 13 subtable" C.c2
AlternateSubs2: "'aalt' Access All Alternates in Latin lookup 1 subtable" C.c2
AlternateSubs2: "'aalt' Access All Alternates lookup 0 subtable" C.c2
Position2: "'cpsp' Capital Spacing in Latin lookup 1 subtable" dx=16 dy=0 dh=33 dv=0
EndChar

StartChar: D
Encoding: 68 68 39
Width: 3047
GlyphClass: 2
Flags: W
LayerCount: 2
Fore
SplineSet
111 2732 m 1,0,-1
 1217 2732 l 2,1,2
 1414 2732 1414 2732 1533.5 2727.5 c 128,-1,3
 1653 2723 1653 2723 1802 2706.5 c 128,-1,4
 1951 2690 1951 2690 2070.5 2652 c 128,-1,5
 2190 2614 2190 2614 2298 2552 c 0,6,7
 2485 2443 2485 2443 2615.5 2268.5 c 128,-1,8
 2746 2094 2746 2094 2806.5 1892.5 c 128,-1,9
 2867 1691 2867 1691 2867 1470 c 0,10,11
 2867 1372 2867 1372 2854.5 1271.5 c 128,-1,12
 2842 1171 2842 1171 2811.5 1058.5 c 128,-1,13
 2781 946 2781 946 2734.5 839.5 c 128,-1,14
 2688 733 2688 733 2616 626.5 c 128,-1,15
 2544 520 2544 520 2453.5 428 c 128,-1,16
 2363 336 2363 336 2239 256.5 c 128,-1,17
 2115 177 2115 177 1970 120.5 c 128,-1,18
 1825 64 1825 64 1638.5 32 c 128,-1,19
 1452 0 1452 0 1241 0 c 2,20,-1
 184 0 l 1,21,-1
 180 160 l 1,22,-1
 291 160 l 2,23,24
 347 160 347 160 378.5 161.5 c 128,-1,25
 410 163 410 163 437 171 c 128,-1,26
 464 179 464 179 475 188 c 128,-1,27
 486 197 486 197 494 221 c 128,-1,28
 502 245 502 245 503 269 c 128,-1,29
 504 293 504 293 504 340 c 2,30,-1
 504 2421 l 2,31,32
 504 2461 504 2461 503 2480.5 c 128,-1,33
 502 2500 502 2500 494 2520 c 128,-1,34
 486 2540 486 2540 475.5 2547 c 128,-1,35
 465 2554 465 2554 437.5 2560.5 c 128,-1,36
 410 2567 410 2567 380.5 2567.5 c 128,-1,37
 351 2568 351 2568 295 2568 c 2,38,-1
 123 2568 l 1,39,-1
 111 2732 l 1,0,-1
836 348 m 2,40,41
 836 310 836 310 836.5 290 c 128,-1,42
 837 270 837 270 843 246.5 c 128,-1,43
 849 223 849 223 856 212.5 c 128,-1,44
 863 202 863 202 882.5 189.5 c 128,-1,45
 902 177 902 177 924 173.5 c 128,-1,46
 946 170 946 170 986.5 165.5 c 128,-1,47
 1027 161 1027 161 1071 160.5 c 128,-1,48
 1115 160 1115 160 1184 160 c 0,49,50
 1404 160 1404 160 1588 197 c 128,-1,51
 1772 234 1772 234 1905.5 298 c 128,-1,52
 2039 362 2039 362 2143 453 c 128,-1,53
 2247 544 2247 544 2313 646.5 c 128,-1,54
 2379 749 2379 749 2422 869 c 128,-1,55
 2465 989 2465 989 2482 1104 c 128,-1,56
 2499 1219 2499 1219 2499 1343 c 0,57,58
 2499 1469 2499 1469 2475 1591.5 c 128,-1,59
 2451 1714 2451 1714 2399 1833 c 128,-1,60
 2347 1952 2347 1952 2271 2057 c 128,-1,61
 2195 2162 2195 2162 2084.5 2251 c 128,-1,62
 1974 2340 1974 2340 1839 2404 c 128,-1,63
 1704 2468 1704 2468 1529 2504 c 128,-1,64
 1354 2540 1354 2540 1155 2540 c 2,65,-1
 1004 2540 l 2,66,67
 933 2540 933 2540 900.5 2527.5 c 128,-1,68
 868 2515 868 2515 852 2474.5 c 128,-1,69
 836 2434 836 2434 836 2347 c 2,70,-1
 836 348 l 2,40,41
EndSplineSet
Substitution2: "'c2sc' Capitals to Small Capitals in Latin lookup 13 subtable" D.c2
AlternateSubs2: "'aalt' Access All Alternates in Latin lookup 1 subtable" D.c2
AlternateSubs2: "'aalt' Access All Alternates lookup 0 subtable" D.c2
Position2: "'cpsp' Capital Spacing in Latin lookup 1 subtable" dx=16 dy=0 dh=33 dv=0
EndChar

StartChar: E
Encoding: 69 69 40
Width: 2523
GlyphClass: 2
Flags: W
LayerCount: 2
Fore
SplineSet
111 2732 m 1,0,-1
 2220 2732 l 1,1,2
 2226 2379 2226 2379 2241 2089 c 1,3,-1
 2081 2081 l 1,4,5
 2075 2238 2075 2238 2067 2331.5 c 128,-1,6
 2059 2425 2059 2425 2046 2472.5 c 128,-1,7
 2033 2520 2033 2520 2019.5 2534.5 c 128,-1,8
 2006 2549 2006 2549 1982 2552 c 0,9,10
 1941 2556 1941 2556 1782 2556 c 2,11,-1
 1085 2556 l 2,12,13
 1021 2556 1021 2556 988.5 2555 c 128,-1,14
 956 2554 956 2554 924.5 2546 c 128,-1,15
 893 2538 893 2538 881.5 2529 c 128,-1,16
 870 2520 870 2520 860 2494.5 c 128,-1,17
 850 2469 850 2469 849 2442 c 128,-1,18
 848 2415 848 2415 848 2363 c 2,19,-1
 848 1794 l 2,20,21
 848 1750 848 1750 848.5 1728.5 c 128,-1,22
 849 1707 849 1707 854 1684.5 c 128,-1,23
 859 1662 859 1662 866 1654.5 c 128,-1,24
 873 1647 873 1647 890 1639.5 c 128,-1,25
 907 1632 907 1632 927 1631 c 128,-1,26
 947 1630 947 1630 983 1630 c 2,27,-1
 1602 1630 l 2,28,29
 1641 1630 1641 1630 1663.5 1631.5 c 128,-1,30
 1686 1633 1686 1633 1705.5 1641.5 c 128,-1,31
 1725 1650 1725 1650 1733.5 1661.5 c 128,-1,32
 1742 1673 1742 1673 1748.5 1699 c 128,-1,33
 1755 1725 1755 1725 1756 1754 c 128,-1,34
 1757 1783 1757 1783 1757 1835 c 2,35,-1
 1757 1991 l 1,36,-1
 1909 1987 l 1,37,-1
 1909 1008 l 1,38,-1
 1757 1008 l 1,39,-1
 1757 1221 l 2,40,41
 1757 1268 1757 1268 1756.5 1297 c 128,-1,42
 1756 1326 1756 1326 1752.5 1353 c 128,-1,43
 1749 1380 1749 1380 1746.5 1394 c 128,-1,44
 1744 1408 1744 1408 1733.5 1421 c 128,-1,45
 1723 1434 1723 1434 1716.5 1438.5 c 128,-1,46
 1710 1443 1710 1443 1689.5 1446.5 c 128,-1,47
 1669 1450 1669 1450 1655.5 1450 c 128,-1,48
 1642 1450 1642 1450 1610 1450 c 2,49,-1
 995 1450 l 2,50,51
 941 1450 941 1450 913 1446 c 128,-1,52
 885 1442 885 1442 869.5 1425.5 c 128,-1,53
 854 1409 854 1409 851 1388.5 c 128,-1,54
 848 1368 848 1368 848 1323 c 2,55,-1
 848 356 l 2,56,57
 848 250 848 250 873 219 c 128,-1,58
 898 188 898 188 979 188 c 0,59,60
 1798 196 1798 196 1969 210 c 0,61,62
 2111 222 2111 222 2143 253 c 0,63,64
 2155 266 2155 266 2166 307 c 0,65,66
 2167 309 2167 309 2167 311 c 0,67,68
 2180 353 2180 353 2192 416 c 128,-1,69
 2204 479 2204 479 2216 555 c 128,-1,70
 2228 631 2228 631 2232 655 c 1,71,-1
 2372 635 l 1,72,-1
 2269 0 l 1,73,-1
 193 0 l 1,74,-1
 193 160 l 1,75,-1
 299 160 l 2,76,77
 356 160 356 160 388 161 c 128,-1,78
 420 162 420 162 447.5 169 c 128,-1,79
 475 176 475 176 486 183.5 c 128,-1,80
 497 191 497 191 505.5 212 c 128,-1,81
 514 233 514 233 515 253.5 c 128,-1,82
 516 274 516 274 516 315 c 2,83,-1
 516 2392 l 2,84,85
 516 2438 516 2438 514 2464 c 128,-1,86
 512 2490 512 2490 499 2512 c 128,-1,87
 486 2534 486 2534 471.5 2543.5 c 128,-1,88
 457 2553 457 2553 419 2559.5 c 128,-1,89
 381 2566 381 2566 342.5 2567 c 128,-1,90
 304 2568 304 2568 229 2568 c 2,91,-1
 115 2568 l 1,92,-1
 111 2732 l 1,0,-1
EndSplineSet
Substitution2: "'c2sc' Capitals to Small Capitals in Latin lookup 13 subtable" E.c2
AlternateSubs2: "'aalt' Access All Alternates in Latin lookup 1 subtable" E.c2
AlternateSubs2: "'aalt' Access All Alternates lookup 0 subtable" E.c2
Position2: "'cpsp' Capital Spacing in Latin lookup 1 subtable" dx=16 dy=0 dh=33 dv=0
EndChar

StartChar: F
Encoding: 70 70 41
Width: 2433
GlyphClass: 2
Flags: W
LayerCount: 2
Fore
SplineSet
111 2732 m 1,0,-1
 2212 2732 l 1,1,2
 2219 2350 2219 2350 2232 2089 c 1,3,-1
 2073 2081 l 1,4,5
 2067 2238 2067 2238 2059 2331.5 c 128,-1,6
 2051 2425 2051 2425 2038 2472.5 c 128,-1,7
 2025 2520 2025 2520 2011.5 2534.5 c 128,-1,8
 1998 2549 1998 2549 1974 2552 c 0,9,10
 1933 2556 1933 2556 1774 2556 c 2,11,-1
 1077 2556 l 2,12,13
 1013 2556 1013 2556 980.5 2555 c 128,-1,14
 948 2554 948 2554 916.5 2546 c 128,-1,15
 885 2538 885 2538 873.5 2529 c 128,-1,16
 862 2520 862 2520 852 2494.5 c 128,-1,17
 842 2469 842 2469 841 2442 c 128,-1,18
 840 2415 840 2415 840 2363 c 2,19,-1
 840 1794 l 2,20,21
 840 1750 840 1750 840.5 1728.5 c 128,-1,22
 841 1707 841 1707 846 1684.5 c 128,-1,23
 851 1662 851 1662 858 1654.5 c 128,-1,24
 865 1647 865 1647 882 1639.5 c 128,-1,25
 899 1632 899 1632 919 1631 c 128,-1,26
 939 1630 939 1630 975 1630 c 2,27,-1
 1593 1630 l 2,28,29
 1633 1630 1633 1630 1654.5 1631.5 c 128,-1,30
 1676 1633 1676 1633 1696.5 1640.5 c 128,-1,31
 1717 1648 1717 1648 1725 1659 c 128,-1,32
 1733 1670 1733 1670 1740 1694.5 c 128,-1,33
 1747 1719 1747 1719 1748 1748 c 128,-1,34
 1749 1777 1749 1777 1749 1827 c 2,35,-1
 1749 1987 l 1,36,-1
 1901 1987 l 1,37,-1
 1901 1008 l 1,38,-1
 1749 1008 l 1,39,-1
 1749 1217 l 2,40,41
 1749 1255 1749 1255 1749 1280.5 c 128,-1,42
 1749 1306 1749 1306 1746.5 1330.5 c 128,-1,43
 1744 1355 1744 1355 1743 1370 c 128,-1,44
 1742 1385 1742 1385 1736 1399.5 c 128,-1,45
 1730 1414 1730 1414 1726.5 1421 c 128,-1,46
 1723 1428 1723 1428 1711.5 1435 c 128,-1,47
 1700 1442 1700 1442 1693.5 1444 c 128,-1,48
 1687 1446 1687 1446 1669 1448 c 128,-1,49
 1651 1450 1651 1450 1639.5 1450 c 128,-1,50
 1628 1450 1628 1450 1602 1450 c 2,51,-1
 987 1450 l 2,52,53
 933 1450 933 1450 905 1446 c 128,-1,54
 877 1442 877 1442 861.5 1425.5 c 128,-1,55
 846 1409 846 1409 843 1388.5 c 128,-1,56
 840 1368 840 1368 840 1323 c 2,57,-1
 840 356 l 2,58,59
 840 243 840 243 863.5 201.5 c 128,-1,60
 887 160 887 160 963 160 c 2,61,-1
 1237 160 l 1,62,-1
 1237 0 l 1,63,-1
 184 0 l 1,64,-1
 184 160 l 1,65,-1
 303 160 l 2,66,67
 355 160 355 160 384 161 c 128,-1,68
 413 162 413 162 439 168.5 c 128,-1,69
 465 175 465 175 476.5 183.5 c 128,-1,70
 488 192 488 192 496.5 211.5 c 128,-1,71
 505 231 505 231 506.5 253.5 c 128,-1,72
 508 276 508 276 508 315 c 2,73,-1
 508 2392 l 2,74,75
 508 2437 508 2437 505.5 2457 c 128,-1,76
 503 2477 503 2477 499.5 2501.5 c 128,-1,77
 496 2526 496 2526 474.5 2534 c 128,-1,78
 453 2542 453 2542 434.5 2552 c 128,-1,79
 416 2562 416 2562 362 2563.5 c 128,-1,80
 308 2565 308 2565 260.5 2566.5 c 128,-1,81
 213 2568 213 2568 115 2568 c 1,82,-1
 111 2732 l 1,0,-1
EndSplineSet
Substitution2: "'c2sc' Capitals to Small Capitals in Latin lookup 13 subtable" F.c2
AlternateSubs2: "'aalt' Access All Alternates in Latin lookup 1 subtable" F.c2
AlternateSubs2: "'aalt' Access All Alternates lookup 0 subtable" F.c2
Position2: "'cpsp' Capital Spacing in Latin lookup 1 subtable" dx=16 dy=0 dh=33 dv=0
EndChar

StartChar: G
Encoding: 71 71 42
Width: 3252
GlyphClass: 2
Flags: W
LayerCount: 2
Fore
SplineSet
221 1221 m 0,0,1
 221 1383 221 1383 255 1544.5 c 128,-1,2
 289 1706 289 1706 357.5 1859 c 128,-1,3
 426 2012 426 2012 522.5 2149.5 c 128,-1,4
 619 2287 619 2287 751 2402 c 128,-1,5
 883 2517 883 2517 1037 2600.5 c 128,-1,6
 1191 2684 1191 2684 1381 2730.5 c 128,-1,7
 1571 2777 1571 2777 1778 2777 c 0,8,9
 2007 2777 2007 2777 2194.5 2729.5 c 128,-1,10
 2382 2682 2382 2682 2613 2589 c 1,11,-1
 2613 2793 l 1,12,-1
 2777 2793 l 1,13,-1
 2806 1901 l 1,14,-1
 2646 1896 l 1,15,-1
 2617 2322 l 1,16,17
 2604 2332 2604 2332 2579.5 2349.5 c 128,-1,18
 2555 2367 2555 2367 2470.5 2411.5 c 128,-1,19
 2386 2456 2386 2456 2292.5 2490 c 128,-1,20
 2199 2524 2199 2524 2050 2552 c 128,-1,21
 1901 2580 1901 2580 1745 2580 c 0,22,23
 1552 2580 1552 2580 1385 2535.5 c 128,-1,24
 1218 2491 1218 2491 1093.5 2410.5 c 128,-1,25
 969 2330 969 2330 871.5 2221.5 c 128,-1,26
 774 2113 774 2113 713 1982.5 c 128,-1,27
 652 1852 652 1852 621 1709.5 c 128,-1,28
 590 1567 590 1567 590 1417 c 0,29,30
 590 1255 590 1255 625.5 1096.5 c 128,-1,31
 661 938 661 938 728.5 791.5 c 128,-1,32
 796 645 796 645 900.5 520 c 128,-1,33
 1005 395 1005 395 1134.5 303 c 128,-1,34
 1264 211 1264 211 1432.5 158.5 c 128,-1,35
 1601 106 1601 106 1790 106 c 0,36,37
 1888 106 1888 106 1980 118.5 c 128,-1,38
 2072 131 2072 131 2140.5 151 c 128,-1,39
 2209 171 2209 171 2269.5 195 c 128,-1,40
 2330 219 2330 219 2371 243 c 128,-1,41
 2412 267 2412 267 2442 287 c 128,-1,42
 2472 307 2472 307 2486 320 c 2,43,-1
 2499 332 l 1,44,-1
 2499 1065 l 1,45,-1
 2011 1065 l 1,46,-1
 2007 1225 l 1,47,-1
 3138 1225 l 1,48,-1
 3142 1065 l 1,49,-1
 2830 1065 l 1,50,-1
 2830 225 l 1,51,52
 2770 200 2770 200 2672 155.5 c 128,-1,53
 2574 111 2574 111 2508.5 81.5 c 128,-1,54
 2443 52 2443 52 2343 15.5 c 128,-1,55
 2243 -21 2243 -21 2155.5 -42.5 c 128,-1,56
 2068 -64 2068 -64 1951.5 -79 c 128,-1,57
 1835 -94 1835 -94 1712 -94 c 0,58,59
 1496 -94 1496 -94 1305 -56.5 c 128,-1,60
 1114 -19 1114 -19 964.5 48.5 c 128,-1,61
 815 116 815 116 692 211 c 128,-1,62
 569 306 569 306 482.5 419.5 c 128,-1,63
 396 533 396 533 336.5 664.5 c 128,-1,64
 277 796 277 796 249 935 c 128,-1,65
 221 1074 221 1074 221 1221 c 0,0,1
EndSplineSet
Substitution2: "'c2sc' Capitals to Small Capitals in Latin lookup 13 subtable" G.c2
AlternateSubs2: "'aalt' Access All Alternates in Latin lookup 1 subtable" G.c2
AlternateSubs2: "'aalt' Access All Alternates lookup 0 subtable" G.c2
Position2: "'cpsp' Capital Spacing in Latin lookup 1 subtable" dx=16 dy=0 dh=33 dv=0
EndChar

StartChar: H
Encoding: 72 72 43
Width: 2949
GlyphClass: 2
Flags: W
LayerCount: 2
Fore
SplineSet
111 2568 m 1,0,-1
 111 2732 l 1,1,-1
 1130 2732 l 1,2,-1
 1130 2568 l 1,3,-1
 1024 2568 l 2,4,5
 971 2568 971 2568 939 2566 c 128,-1,6
 907 2564 907 2564 878 2557.5 c 128,-1,7
 849 2551 849 2551 834.5 2539.5 c 128,-1,8
 820 2528 820 2528 809 2507 c 128,-1,9
 798 2486 798 2486 794.5 2458.5 c 128,-1,10
 791 2431 791 2431 791 2388 c 2,11,-1
 791 1610 l 1,12,-1
 2122 1610 l 1,13,-1
 2122 2421 l 2,14,15
 2122 2462 2122 2462 2121.5 2480.5 c 128,-1,16
 2121 2499 2121 2499 2112.5 2520 c 128,-1,17
 2104 2541 2104 2541 2094.5 2547 c 128,-1,18
 2085 2553 2085 2553 2056.5 2560 c 128,-1,19
 2028 2567 2028 2567 1998 2567.5 c 128,-1,20
 1968 2568 1968 2568 1909 2568 c 2,21,-1
 1737 2568 l 1,22,-1
 1733 2732 l 1,23,-1
 2773 2732 l 1,24,-1
 2773 2568 l 1,25,-1
 2658 2568 l 2,26,27
 2610 2568 2610 2568 2581.5 2566.5 c 128,-1,28
 2553 2565 2553 2565 2527.5 2558 c 128,-1,29
 2502 2551 2502 2551 2489.5 2540.5 c 128,-1,30
 2477 2530 2477 2530 2468 2509.5 c 128,-1,31
 2459 2489 2459 2489 2456.5 2463 c 128,-1,32
 2454 2437 2454 2437 2454 2396 c 2,33,-1
 2454 328 l 2,34,35
 2454 285 2454 285 2456 261 c 128,-1,36
 2458 237 2458 237 2468 215.5 c 128,-1,37
 2478 194 2478 194 2491.5 185 c 128,-1,38
 2505 176 2505 176 2536.5 169 c 128,-1,39
 2568 162 2568 162 2602.5 161 c 128,-1,40
 2637 160 2637 160 2699 160 c 2,41,-1
 2839 160 l 1,42,-1
 2834 0 l 1,43,-1
 1815 0 l 1,44,-1
 1810 160 l 1,45,-1
 1929 160 l 2,46,47
 1978 160 1978 160 2006 161.5 c 128,-1,48
 2034 163 2034 163 2058.5 170.5 c 128,-1,49
 2083 178 2083 178 2093.5 188 c 128,-1,50
 2104 198 2104 198 2111.5 221 c 128,-1,51
 2119 244 2119 244 2120.5 269 c 128,-1,52
 2122 294 2122 294 2122 340 c 2,53,-1
 2122 1413 l 1,54,-1
 791 1413 l 1,55,-1
 791 340 l 2,56,57
 791 294 791 294 793.5 267.5 c 128,-1,58
 796 241 796 241 809 219 c 128,-1,59
 822 197 822 197 837.5 187 c 128,-1,60
 853 177 853 177 891 170 c 128,-1,61
 929 163 929 163 970 161.5 c 128,-1,62
 1011 160 1011 160 1085 160 c 2,63,-1
 1204 160 l 1,64,-1
 1196 0 l 1,65,-1
 147 0 l 1,66,-1
 143 160 l 1,67,-1
 250 160 l 2,68,69
 296 160 296 160 319.5 160 c 128,-1,70
 343 160 343 160 370.5 164 c 128,-1,71
 398 168 398 168 408.5 170 c 128,-1,72
 419 172 419 172 432.5 184.5 c 128,-1,73
 446 197 446 197 448.5 205 c 128,-1,74
 451 213 451 213 455 238.5 c 128,-1,75
 459 264 459 264 459 281.5 c 128,-1,76
 459 299 459 299 459 340 c 2,77,-1
 459 2433 l 2,78,79
 459 2458 459 2458 457.5 2475.5 c 128,-1,80
 456 2493 456 2493 450 2507.5 c 128,-1,81
 444 2522 444 2522 437 2531.5 c 128,-1,82
 430 2541 430 2541 414.5 2548 c 128,-1,83
 399 2555 399 2555 384 2558.5 c 128,-1,84
 369 2562 369 2562 341 2564.5 c 128,-1,85
 313 2567 313 2567 286.5 2567.5 c 128,-1,86
 260 2568 260 2568 217 2568 c 2,87,-1
 111 2568 l 1,0,-1
EndSplineSet
Substitution2: "'c2sc' Capitals to Small Capitals in Latin lookup 13 subtable" H.c2
AlternateSubs2: "'aalt' Access All Alternates in Latin lookup 1 subtable" H.c2
AlternateSubs2: "'aalt' Access All Alternates lookup 0 subtable" H.c2
Position2: "'cpsp' Capital Spacing in Latin lookup 1 subtable" dx=16 dy=0 dh=33 dv=0
EndChar

StartChar: I
Encoding: 73 73 44
Width: 1318
GlyphClass: 2
Flags: W
LayerCount: 2
Fore
SplineSet
111 2568 m 1,0,-1
 115 2732 l 1,1,-1
 1143 2732 l 1,2,-1
 1143 2568 l 1,3,-1
 1073 2568 l 2,4,5
 1025 2568 1025 2568 999.5 2567.5 c 128,-1,6
 974 2567 974 2567 943 2564.5 c 128,-1,7
 912 2562 912 2562 898 2557.5 c 128,-1,8
 884 2553 884 2553 867 2543 c 128,-1,9
 850 2533 850 2533 844.5 2520.5 c 128,-1,10
 839 2508 839 2508 832.5 2487 c 128,-1,11
 826 2466 826 2466 824.5 2441 c 128,-1,12
 823 2416 823 2416 823 2380 c 2,13,-1
 823 348 l 2,14,15
 823 300 823 300 824.5 273.5 c 128,-1,16
 826 247 826 247 835 223 c 128,-1,17
 844 199 844 199 856 189 c 128,-1,18
 868 179 868 179 896 171 c 128,-1,19
 924 163 924 163 956 161.5 c 128,-1,20
 988 160 988 160 1044 160 c 2,21,-1
 1204 160 l 1,22,-1
 1208 0 l 1,23,-1
 160 0 l 1,24,-1
 156 160 l 1,25,-1
 262 160 l 2,26,27
 321 160 321 160 355 161.5 c 128,-1,28
 389 163 389 163 418 171 c 128,-1,29
 447 179 447 179 459 188 c 128,-1,30
 471 197 471 197 480 221 c 128,-1,31
 489 245 489 245 490.5 269.5 c 128,-1,32
 492 294 492 294 492 340 c 2,33,-1
 492 2421 l 2,34,35
 492 2461 492 2461 491 2480.5 c 128,-1,36
 490 2500 490 2500 482 2520 c 128,-1,37
 474 2540 474 2540 463.5 2547 c 128,-1,38
 453 2554 453 2554 425.5 2560.5 c 128,-1,39
 398 2567 398 2567 368.5 2567.5 c 128,-1,40
 339 2568 339 2568 283 2568 c 2,41,-1
 111 2568 l 1,0,-1
EndSplineSet
Substitution2: "'c2sc' Capitals to Small Capitals in Latin lookup 13 subtable" I.c2
AlternateSubs2: "'aalt' Access All Alternates in Latin lookup 1 subtable" I.c2
AlternateSubs2: "'aalt' Access All Alternates lookup 0 subtable" I.c2
Position2: "'cpsp' Capital Spacing in Latin lookup 1 subtable" dx=16 dy=0 dh=33 dv=0
EndChar

StartChar: J
Encoding: 74 74 45
Width: 1249
GlyphClass: 2
Flags: W
LayerCount: 2
Fore
SplineSet
-311 -860 m 0,0,1
 -311 -805 -311 -805 -266.5 -744.5 c 128,-1,2
 -222 -684 -222 -684 -162 -645 c 128,-1,3
 -102 -606 -102 -606 -57 -606 c 0,4,5
 -23 -606 -23 -606 7 -629 c 128,-1,6
 37 -652 37 -652 60.5 -685 c 128,-1,7
 84 -718 84 -718 107.5 -751.5 c 128,-1,8
 131 -785 131 -785 161 -808 c 128,-1,9
 191 -831 191 -831 225 -831 c 0,10,11
 280 -831 280 -831 324 -801.5 c 128,-1,12
 368 -772 368 -772 396.5 -716.5 c 128,-1,13
 425 -661 425 -661 444.5 -594 c 128,-1,14
 464 -527 464 -527 474 -440 c 128,-1,15
 484 -353 484 -353 488 -272.5 c 128,-1,16
 492 -192 492 -192 492 -98 c 2,17,-1
 492 2421 l 2,18,19
 492 2458 492 2458 490.5 2479 c 128,-1,20
 489 2500 489 2500 481 2518.5 c 128,-1,21
 473 2537 473 2537 463 2545.5 c 128,-1,22
 453 2554 453 2554 429.5 2560 c 128,-1,23
 406 2566 406 2566 379.5 2567 c 128,-1,24
 353 2568 353 2568 307 2568 c 2,25,-1
 156 2568 l 1,26,-1
 156 2732 l 1,27,-1
 1139 2732 l 1,28,-1
 1130 2568 l 1,29,-1
 999 2568 l 2,30,31
 956 2568 956 2568 935.5 2567 c 128,-1,32
 915 2566 915 2566 890.5 2560 c 128,-1,33
 866 2554 866 2554 856.5 2543 c 128,-1,34
 847 2532 847 2532 837.5 2510.5 c 128,-1,35
 828 2489 828 2489 825.5 2458 c 128,-1,36
 823 2427 823 2427 823 2380 c 2,37,-1
 823 -8 l 2,38,39
 823 -223 823 -223 800 -351 c 128,-1,40
 777 -479 777 -479 717 -578 c 1,41,42
 661 -673 661 -673 528 -802.5 c 128,-1,43
 395 -932 395 -932 283 -991 c 1,44,45
 151 -1057 151 -1057 8 -1057 c 0,46,47
 -114 -1057 -114 -1057 -212.5 -993.5 c 128,-1,48
 -311 -930 -311 -930 -311 -860 c 0,0,1
EndSplineSet
Substitution2: "'c2sc' Capitals to Small Capitals in Latin lookup 13 subtable" J.c2
AlternateSubs2: "'aalt' Access All Alternates in Latin lookup 1 subtable" J.c2
AlternateSubs2: "'aalt' Access All Alternates lookup 0 subtable" J.c2
Position2: "'cpsp' Capital Spacing in Latin lookup 1 subtable" dx=16 dy=0 dh=33 dv=0
EndChar

StartChar: K
Encoding: 75 75 46
Width: 2981
GlyphClass: 2
Flags: W
LayerCount: 2
Fore
SplineSet
111 2568 m 1,0,-1
 111 2732 l 1,1,-1
 1135 2732 l 1,2,-1
 1135 2568 l 1,3,-1
 1004 2568 l 2,4,5
 961 2568 961 2568 940 2567 c 128,-1,6
 919 2566 919 2566 894 2560 c 128,-1,7
 869 2554 869 2554 859 2543 c 128,-1,8
 849 2532 849 2532 839 2510.5 c 128,-1,9
 829 2489 829 2489 826 2458 c 128,-1,10
 823 2427 823 2427 823 2380 c 2,11,-1
 823 1438 l 1,12,-1
 2019 2408 l 2,13,14
 2122 2492 2122 2492 2122 2527 c 0,15,16
 2122 2551 2122 2551 2078 2559.5 c 128,-1,17
 2034 2568 2034 2568 1933 2568 c 2,18,-1
 1774 2568 l 1,19,-1
 1765 2732 l 1,20,-1
 2748 2732 l 1,21,-1
 2748 2568 l 1,22,-1
 2642 2568 l 2,23,24
 2576 2568 2576 2568 2539.5 2562.5 c 128,-1,25
 2503 2557 2503 2557 2454.5 2532 c 128,-1,26
 2406 2507 2406 2507 2354.5 2467.5 c 128,-1,27
 2303 2428 2303 2428 2204 2349 c 0,28,29
 2167 2319 2167 2319 2146 2302 c 2,30,-1
 1221 1561 l 1,31,-1
 2458 270 l 2,32,33
 2523 202 2523 202 2558 181 c 128,-1,34
 2593 160 2593 160 2634 160 c 2,35,-1
 2871 160 l 1,36,-1
 2863 0 l 1,37,-1
 2220 0 l 1,38,-1
 975 1368 l 1,39,-1
 823 1245 l 1,40,-1
 823 348 l 2,41,42
 823 311 823 311 824 288 c 128,-1,43
 825 265 825 265 832 243 c 128,-1,44
 839 221 839 221 846 209.5 c 128,-1,45
 853 198 853 198 873.5 187 c 128,-1,46
 894 176 894 176 912.5 172 c 128,-1,47
 931 168 931 168 970.5 164.5 c 128,-1,48
 1010 161 1010 161 1046.5 160.5 c 128,-1,49
 1083 160 1083 160 1147 160 c 2,50,-1
 1237 160 l 1,51,-1
 1237 0 l 1,52,-1
 188 0 l 1,53,-1
 184 160 l 1,54,-1
 295 160 l 2,55,56
 335 160 335 160 360.5 160.5 c 128,-1,57
 386 161 386 161 409 165.5 c 128,-1,58
 432 170 432 170 444 173 c 128,-1,59
 456 176 456 176 467 189 c 128,-1,60
 478 202 478 202 482 210.5 c 128,-1,61
 486 219 486 219 489 243.5 c 128,-1,62
 492 268 492 268 492 284.5 c 128,-1,63
 492 301 492 301 492 340 c 2,64,-1
 492 2421 l 2,65,66
 492 2461 492 2461 491 2480.5 c 128,-1,67
 490 2500 490 2500 482 2520 c 128,-1,68
 474 2540 474 2540 463.5 2547 c 128,-1,69
 453 2554 453 2554 425.5 2560.5 c 128,-1,70
 398 2567 398 2567 368.5 2567.5 c 128,-1,71
 339 2568 339 2568 283 2568 c 2,72,-1
 111 2568 l 1,0,-1
EndSplineSet
Substitution2: "'c2sc' Capitals to Small Capitals in Latin lookup 13 subtable" K.c2
AlternateSubs2: "'aalt' Access All Alternates in Latin lookup 1 subtable" K.c2
AlternateSubs2: "'aalt' Access All Alternates lookup 0 subtable" K.c2
Position2: "'cpsp' Capital Spacing in Latin lookup 1 subtable" dx=16 dy=0 dh=33 dv=0
EndChar

StartChar: L
Encoding: 76 76 47
Width: 2392
GlyphClass: 2
Flags: W
LayerCount: 2
Fore
SplineSet
111 2568 m 1,0,-1
 115 2732 l 1,1,-1
 1163 2732 l 1,2,-1
 1163 2568 l 1,3,-1
 979 2568 l 2,4,5
 940 2568 940 2568 918.5 2567 c 128,-1,6
 897 2566 897 2566 874 2561 c 128,-1,7
 851 2556 851 2556 840 2546.5 c 128,-1,8
 829 2537 829 2537 819 2520 c 128,-1,9
 809 2503 809 2503 806 2478 c 128,-1,10
 803 2453 803 2453 803 2417 c 2,11,-1
 803 348 l 2,12,13
 803 276 803 276 815.5 242.5 c 128,-1,14
 828 209 828 209 854.5 198.5 c 128,-1,15
 881 188 881 188 938 188 c 0,16,17
 1764 193 1764 193 1970 229 c 0,18,19
 1986 231 1986 231 1992.5 232.5 c 128,-1,20
 1999 234 1999 234 2011 239 c 128,-1,21
 2023 244 2023 244 2028 249 c 128,-1,22
 2033 254 2033 254 2042 267.5 c 128,-1,23
 2051 281 2051 281 2055.5 295.5 c 128,-1,24
 2060 310 2060 310 2068.5 338 c 128,-1,25
 2077 366 2077 366 2083 395 c 128,-1,26
 2089 424 2089 424 2098.5 472 c 128,-1,27
 2108 520 2108 520 2116.5 569.5 c 128,-1,28
 2125 619 2125 619 2138 692 c 1,29,-1
 2281 684 l 1,30,-1
 2146 0 l 1,31,-1
 168 0 l 1,32,-1
 164 160 l 1,33,-1
 279 160 l 2,34,35
 318 160 318 160 341.5 160.5 c 128,-1,36
 365 161 365 161 388 164.5 c 128,-1,37
 411 168 411 168 422.5 171 c 128,-1,38
 434 174 434 174 445 184.5 c 128,-1,39
 456 195 456 195 460 203 c 128,-1,40
 464 211 464 211 467 231 c 128,-1,41
 470 251 470 251 470.5 267 c 128,-1,42
 471 283 471 283 471 315 c 2,43,-1
 471 2433 l 2,44,45
 471 2521 471 2521 427 2544.5 c 128,-1,46
 383 2568 383 2568 254 2568 c 2,47,-1
 111 2568 l 1,0,-1
EndSplineSet
Substitution2: "'c2sc' Capitals to Small Capitals in Latin lookup 13 subtable" L.c2
Substitution2: "'locl' Localized Forms in Latin lookup 2 subtable" L.CAT
AlternateSubs2: "'aalt' Access All Alternates in Latin lookup 1 subtable" L.c2 L.CAT
AlternateSubs2: "'aalt' Access All Alternates lookup 0 subtable" L.c2
Position2: "'cpsp' Capital Spacing in Latin lookup 1 subtable" dx=16 dy=0 dh=33 dv=0
EndChar

StartChar: M
Encoding: 77 77 48
Width: 3366
GlyphClass: 2
Flags: W
LayerCount: 2
Fore
SplineSet
152 0 m 1,0,-1
 152 160 l 1,1,-1
 193 160 l 2,2,3
 258 160 258 160 292.5 161 c 128,-1,4
 327 162 327 162 358.5 170.5 c 128,-1,5
 390 179 390 179 402 188 c 128,-1,6
 414 197 414 197 424 223 c 128,-1,7
 434 249 434 249 435.5 274.5 c 128,-1,8
 437 300 437 300 438 352 c 2,9,-1
 475 2351 l 2,10,11
 475 2376 475 2376 477 2411 c 128,-1,12
 479 2446 479 2446 479 2458 c 0,13,14
 479 2526 479 2526 457 2547 c 128,-1,15
 435 2568 435 2568 365 2568 c 2,16,-1
 156 2568 l 1,17,-1
 152 2732 l 1,18,-1
 770 2732 l 1,19,-1
 1704 545 l 1,20,-1
 2621 2732 l 1,21,-1
 3277 2732 l 1,22,-1
 3277 2568 l 1,23,-1
 3138 2568 l 2,24,25
 3014 2568 3014 2568 2969.5 2544.5 c 128,-1,26
 2925 2521 2925 2521 2925 2437 c 2,27,-1
 2925 348 l 2,28,29
 2925 309 2925 309 2925.5 290 c 128,-1,30
 2926 271 2926 271 2930 246.5 c 128,-1,31
 2934 222 2934 222 2939 212.5 c 128,-1,32
 2944 203 2944 203 2957.5 190 c 128,-1,33
 2971 177 2971 177 2986.5 173.5 c 128,-1,34
 3002 170 3002 170 3031.5 165.5 c 128,-1,35
 3061 161 3061 161 3092.5 160.5 c 128,-1,36
 3124 160 3124 160 3174 160 c 2,37,-1
 3256 160 l 1,38,-1
 3260 0 l 1,39,-1
 2265 0 l 1,40,-1
 2261 160 l 1,41,-1
 2343 160 l 2,42,43
 2408 160 2408 160 2445 161.5 c 128,-1,44
 2482 163 2482 163 2513.5 171 c 128,-1,45
 2545 179 2545 179 2558 188 c 128,-1,46
 2571 197 2571 197 2580.5 221 c 128,-1,47
 2590 245 2590 245 2591.5 269 c 128,-1,48
 2593 293 2593 293 2593 340 c 2,49,-1
 2593 2220 l 1,50,-1
 1962 733 l 2,51,52
 1827 413 1827 413 1714 120 c 0,53,54
 1671 9 1671 9 1660 -10 c 128,-1,55
 1649 -29 1649 -29 1626 -29 c 0,56,57
 1605 -29 1605 -29 1571 34.5 c 128,-1,58
 1537 98 1537 98 1466 262 c 2,59,-1
 643 2167 l 1,60,-1
 627 299 l 2,61,62
 627 227 627 227 647 203 c 0,63,64
 675 171 675 171 785 164 c 0,65,66
 849 160 849 160 1036 160 c 1,67,-1
 1036 0 l 1,68,-1
 152 0 l 1,0,-1
EndSplineSet
Substitution2: "'c2sc' Capitals to Small Capitals in Latin lookup 13 subtable" M.c2
AlternateSubs2: "'aalt' Access All Alternates in Latin lookup 1 subtable" M.c2
AlternateSubs2: "'aalt' Access All Alternates lookup 0 subtable" M.c2
Position2: "'cpsp' Capital Spacing in Latin lookup 1 subtable" dx=16 dy=0 dh=33 dv=0
EndChar

StartChar: N
Encoding: 78 78 49
Width: 3047
GlyphClass: 2
Flags: W
LayerCount: 2
Fore
SplineSet
111 2732 m 1,0,-1
 745 2732 l 1,1,-1
 2425 565 l 1,2,-1
 2425 2421 l 2,3,4
 2425 2456 2425 2456 2421 2480 c 128,-1,5
 2417 2504 2417 2504 2405 2521 c 128,-1,6
 2393 2538 2393 2538 2379 2547 c 128,-1,7
 2365 2556 2365 2556 2336 2561 c 128,-1,8
 2307 2566 2307 2566 2278.5 2567 c 128,-1,9
 2250 2568 2250 2568 2200 2568 c 2,10,-1
 2056 2568 l 1,11,-1
 2064 2732 l 1,12,-1
 2937 2732 l 1,13,-1
 2937 2568 l 1,14,-1
 2843 2568 l 2,15,16
 2774 2568 2774 2568 2737 2563 c 128,-1,17
 2700 2558 2700 2558 2669.5 2539.5 c 128,-1,18
 2639 2521 2639 2521 2628 2485 c 128,-1,19
 2617 2449 2617 2449 2617 2388 c 2,20,-1
 2617 29 l 2,21,22
 2617 -31 2617 -31 2611.5 -50.5 c 128,-1,23
 2606 -70 2606 -70 2580 -70 c 2,24,-1
 2523 -70 l 2,25,26
 2511 -70 2511 -70 2504 -69 c 128,-1,27
 2497 -68 2497 -68 2491.5 -67 c 128,-1,28
 2486 -66 2486 -66 2480.5 -59 c 128,-1,29
 2475 -52 2475 -52 2470.5 -47 c 128,-1,30
 2466 -42 2466 -42 2454.5 -25.5 c 128,-1,31
 2443 -9 2443 -9 2433 4 c 2,32,-1
 647 2298 l 1,33,-1
 668 348 l 2,34,35
 668 312 668 312 669.5 288 c 128,-1,36
 671 264 671 264 678.5 243 c 128,-1,37
 686 222 686 222 693.5 209.5 c 128,-1,38
 701 197 701 197 720.5 186.5 c 128,-1,39
 740 176 740 176 758 171.5 c 128,-1,40
 776 167 776 167 812 164 c 128,-1,41
 848 161 848 161 881 160.5 c 128,-1,42
 914 160 914 160 971 160 c 2,43,-1
 1040 160 l 1,44,-1
 1040 0 l 1,45,-1
 180 0 l 1,46,-1
 180 160 l 1,47,-1
 303 160 l 2,48,49
 351 160 351 160 377.5 163.5 c 128,-1,50
 404 167 404 167 426 176 c 128,-1,51
 448 185 448 185 457 206.5 c 128,-1,52
 466 228 466 228 470.5 258 c 128,-1,53
 475 288 475 288 475 340 c 2,54,-1
 475 2519 l 1,55,-1
 434 2568 l 1,56,-1
 115 2568 l 1,57,-1
 111 2732 l 1,0,-1
EndSplineSet
Substitution2: "'c2sc' Capitals to Small Capitals in Latin lookup 13 subtable" N.c2
AlternateSubs2: "'aalt' Access All Alternates in Latin lookup 1 subtable" N.c2
AlternateSubs2: "'aalt' Access All Alternates lookup 0 subtable" N.c2
Position2: "'cpsp' Capital Spacing in Latin lookup 1 subtable" dx=16 dy=0 dh=33 dv=0
EndChar

StartChar: O
Encoding: 79 79 50
Width: 3268
GlyphClass: 2
Flags: W
LayerCount: 2
Fore
SplineSet
221 1339 m 0,0,1
 221 1575 221 1575 277 1781.5 c 128,-1,2
 333 1988 333 1988 432 2145 c 128,-1,3
 531 2302 531 2302 665.5 2426 c 128,-1,4
 800 2550 800 2550 959 2628.5 c 128,-1,5
 1118 2707 1118 2707 1290.5 2748 c 128,-1,6
 1463 2789 1463 2789 1642 2789 c 0,7,8
 1794 2789 1794 2789 1942 2760.5 c 128,-1,9
 2090 2732 2090 2732 2229 2672.5 c 128,-1,10
 2368 2613 2368 2613 2491 2527.5 c 128,-1,11
 2614 2442 2614 2442 2716 2323 c 128,-1,12
 2818 2204 2818 2204 2891.5 2062 c 128,-1,13
 2965 1920 2965 1920 3006 1741.5 c 128,-1,14
 3047 1563 3047 1563 3047 1364 c 0,15,16
 3047 1210 3047 1210 3018.5 1060.5 c 128,-1,17
 2990 911 2990 911 2930.5 769 c 128,-1,18
 2871 627 2871 627 2785 502 c 128,-1,19
 2699 377 2699 377 2579.5 272.5 c 128,-1,20
 2460 168 2460 168 2316.5 93 c 128,-1,21
 2173 18 2173 18 1992.5 -24 c 128,-1,22
 1812 -66 1812 -66 1610 -66 c 0,23,24
 1415 -66 1415 -66 1240.5 -25 c 128,-1,25
 1066 16 1066 16 927.5 89.5 c 128,-1,26
 789 163 789 163 673 265 c 128,-1,27
 557 367 557 367 474.5 490 c 128,-1,28
 392 613 392 613 334.5 752.5 c 128,-1,29
 277 892 277 892 249 1039.5 c 128,-1,30
 221 1187 221 1187 221 1339 c 0,0,1
590 1475 m 0,31,32
 590 1332 590 1332 613.5 1190.5 c 128,-1,33
 637 1049 637 1049 685.5 914.5 c 128,-1,34
 734 780 734 780 802.5 659.5 c 128,-1,35
 871 539 871 539 966 438.5 c 128,-1,36
 1061 338 1061 338 1173.5 265 c 128,-1,37
 1286 192 1286 192 1426 151.5 c 128,-1,38
 1566 111 1566 111 1720 111 c 0,39,40
 1844 111 1844 111 1961.5 143 c 128,-1,41
 2079 175 2079 175 2186 237 c 128,-1,42
 2293 299 2293 299 2382 396.5 c 128,-1,43
 2471 494 2471 494 2536.5 619 c 128,-1,44
 2602 744 2602 744 2638.5 908.5 c 128,-1,45
 2675 1073 2675 1073 2675 1262 c 0,46,47
 2675 1474 2675 1474 2630.5 1663.5 c 128,-1,48
 2586 1853 2586 1853 2507.5 2000.5 c 128,-1,49
 2429 2148 2429 2148 2322.5 2266.5 c 128,-1,50
 2216 2385 2216 2385 2091.5 2462 c 128,-1,51
 1967 2539 1967 2539 1831 2580 c 128,-1,52
 1695 2621 1695 2621 1556 2621 c 0,53,54
 1472 2621 1472 2621 1385 2605 c 128,-1,55
 1298 2589 1298 2589 1202 2549.5 c 128,-1,56
 1106 2510 1106 2510 1019 2451.5 c 128,-1,57
 932 2393 932 2393 853 2300.5 c 128,-1,58
 774 2208 774 2208 716 2093 c 128,-1,59
 658 1978 658 1978 624 1819 c 128,-1,60
 590 1660 590 1660 590 1475 c 0,31,32
EndSplineSet
Substitution2: "'c2sc' Capitals to Small Capitals in Latin lookup 13 subtable" O.c2
AlternateSubs2: "'aalt' Access All Alternates in Latin lookup 1 subtable" O.c2
AlternateSubs2: "'aalt' Access All Alternates lookup 0 subtable" O.c2
Position2: "'cpsp' Capital Spacing in Latin lookup 1 subtable" dx=16 dy=0 dh=33 dv=0
EndChar

StartChar: P
Encoding: 80 80 51
Width: 2338
GlyphClass: 2
Flags: W
LayerCount: 2
Fore
SplineSet
111 0 m 1,0,-1
 111 160 l 1,1,-1
 238 160 l 2,2,3
 276 160 276 160 298.5 161 c 128,-1,4
 321 162 321 162 339.5 168 c 128,-1,5
 358 174 358 174 365.5 179.5 c 128,-1,6
 373 185 373 185 378.5 201.5 c 128,-1,7
 384 218 384 218 384.5 233 c 128,-1,8
 385 248 385 248 385 279 c 2,9,-1
 385 2421 l 2,10,11
 385 2475 385 2475 380 2503 c 128,-1,12
 375 2531 375 2531 355 2546.5 c 128,-1,13
 335 2562 335 2562 309.5 2565 c 128,-1,14
 284 2568 284 2568 229 2568 c 2,15,-1
 123 2568 l 1,16,-1
 127 2732 l 1,17,-1
 971 2732 l 2,18,19
 1110 2732 1110 2732 1203.5 2728.5 c 128,-1,20
 1297 2725 1297 2725 1391.5 2715 c 128,-1,21
 1486 2705 1486 2705 1554.5 2685.5 c 128,-1,22
 1623 2666 1623 2666 1688 2634 c 128,-1,23
 1753 2602 1753 2602 1810 2556 c 0,24,25
 1969 2427 1969 2427 2064 2241.5 c 128,-1,26
 2159 2056 2159 2056 2159 1823 c 0,27,28
 2159 1713 2159 1713 2126.5 1607 c 128,-1,29
 2094 1501 2094 1501 2024 1405 c 128,-1,30
 1954 1309 1954 1309 1854 1236 c 128,-1,31
 1754 1163 1754 1163 1609.5 1120 c 128,-1,32
 1465 1077 1465 1077 1294 1077 c 0,33,34
 1211 1077 1211 1077 1122.5 1086 c 128,-1,35
 1034 1095 1034 1095 965 1107.5 c 128,-1,36
 896 1120 896 1120 840 1132.5 c 128,-1,37
 784 1145 784 1145 751 1154 c 128,-1,38
 718 1163 718 1163 717 1163 c 1,39,-1
 717 279 l 2,40,41
 717 247 717 247 718 232.5 c 128,-1,42
 719 218 719 218 728.5 201.5 c 128,-1,43
 738 185 738 185 752.5 179.5 c 128,-1,44
 767 174 767 174 801.5 168 c 128,-1,45
 836 162 836 162 879 161 c 128,-1,46
 922 160 922 160 995 160 c 2,47,-1
 1200 160 l 1,48,-1
 1200 0 l 1,49,-1
 111 0 l 1,0,-1
717 1286 m 1,50,51
 721 1283 721 1283 730 1277.5 c 128,-1,52
 739 1272 739 1272 772.5 1258.5 c 128,-1,53
 806 1245 806 1245 846 1235 c 128,-1,54
 886 1225 886 1225 955 1216.5 c 128,-1,55
 1024 1208 1024 1208 1102 1208 c 0,56,57
 1427 1208 1427 1208 1600.5 1367 c 128,-1,58
 1774 1526 1774 1526 1774 1831 c 0,59,60
 1774 1973 1774 1973 1725.5 2093 c 128,-1,61
 1677 2213 1677 2213 1591.5 2299.5 c 128,-1,62
 1506 2386 1506 2386 1388.5 2447 c 128,-1,63
 1271 2508 1271 2508 1132 2538 c 128,-1,64
 993 2568 993 2568 840 2568 c 0,65,66
 801 2568 801 2568 780.5 2563 c 128,-1,67
 760 2558 760 2558 744 2538.5 c 128,-1,68
 728 2519 728 2519 722.5 2482 c 128,-1,69
 717 2445 717 2445 717 2380 c 2,70,-1
 717 1286 l 1,50,51
EndSplineSet
Substitution2: "'c2sc' Capitals to Small Capitals in Latin lookup 13 subtable" P.c2
AlternateSubs2: "'aalt' Access All Alternates in Latin lookup 1 subtable" P.c2
AlternateSubs2: "'aalt' Access All Alternates lookup 0 subtable" P.c2
Position2: "'cpsp' Capital Spacing in Latin lookup 1 subtable" dx=16 dy=0 dh=33 dv=0
EndChar

StartChar: Q
Encoding: 81 81 52
Width: 3268
GlyphClass: 2
Flags: W
LayerCount: 2
Fore
SplineSet
221 1339 m 0,0,1
 221 1575 221 1575 277 1781.5 c 128,-1,2
 333 1988 333 1988 432 2145 c 128,-1,3
 531 2302 531 2302 665.5 2426 c 128,-1,4
 800 2550 800 2550 959 2628.5 c 128,-1,5
 1118 2707 1118 2707 1290.5 2748 c 128,-1,6
 1463 2789 1463 2789 1642 2789 c 0,7,8
 1794 2789 1794 2789 1942 2760.5 c 128,-1,9
 2090 2732 2090 2732 2229 2672.5 c 128,-1,10
 2368 2613 2368 2613 2491 2527.5 c 128,-1,11
 2614 2442 2614 2442 2716 2323 c 128,-1,12
 2818 2204 2818 2204 2891.5 2062 c 128,-1,13
 2965 1920 2965 1920 3006 1741.5 c 128,-1,14
 3047 1563 3047 1563 3047 1364 c 0,15,16
 3047 1078 3047 1078 2951 823 c 128,-1,17
 2855 568 2855 568 2690 383 c 128,-1,18
 2525 198 2525 198 2310 90 c 0,19,20
 2279 74 2279 74 2214.5 50.5 c 128,-1,21
 2150 27 2150 27 2101 12 c 2,22,-1
 2052 -4 l 1,23,24
 2160 -49 2160 -49 2298 -142.5 c 128,-1,25
 2436 -236 2436 -236 2558.5 -333 c 128,-1,26
 2681 -430 2681 -430 2804 -521.5 c 128,-1,27
 2927 -613 2927 -613 3041.5 -671 c 128,-1,28
 3156 -729 3156 -729 3240 -729 c 0,29,30
 3294 -729 3294 -729 3334 -717.5 c 128,-1,31
 3374 -706 3374 -706 3398 -695 c 128,-1,32
 3422 -684 3422 -684 3437 -684 c 0,33,34
 3473 -684 3473 -684 3473 -729 c 0,35,36
 3473 -744 3473 -744 3466.5 -764.5 c 128,-1,37
 3460 -785 3460 -785 3444.5 -814.5 c 128,-1,38
 3429 -844 3429 -844 3397 -871 c 128,-1,39
 3365 -898 3365 -898 3320 -922 c 128,-1,40
 3275 -946 3275 -946 3202 -960.5 c 128,-1,41
 3129 -975 3129 -975 3039 -975 c 0,42,43
 2944 -975 2944 -975 2851 -953.5 c 128,-1,44
 2758 -932 2758 -932 2673.5 -890.5 c 128,-1,45
 2589 -849 2589 -849 2514 -802.5 c 128,-1,46
 2439 -756 2439 -756 2360 -691.5 c 128,-1,47
 2281 -627 2281 -627 2220.5 -574 c 128,-1,48
 2160 -521 2160 -521 2084 -453 c 128,-1,49
 2008 -385 2008 -385 1958 -344 c 0,50,51
 1823 -235 1823 -235 1745 -178 c 128,-1,52
 1667 -121 1667 -121 1605.5 -94 c 128,-1,53
 1544 -67 1544 -67 1511 -62.5 c 128,-1,54
 1478 -58 1478 -58 1399 -49.5 c 128,-1,55
 1320 -41 1320 -41 1241 -25 c 0,56,57
 1137 -3 1137 -3 1034.5 39.5 c 128,-1,58
 932 82 932 82 831 148 c 128,-1,59
 730 214 730 214 640 298 c 128,-1,60
 550 382 550 382 473 492.5 c 128,-1,61
 396 603 396 603 340 729.5 c 128,-1,62
 284 856 284 856 252.5 1012.5 c 128,-1,63
 221 1169 221 1169 221 1339 c 0,0,1
590 1475 m 0,64,65
 590 1332 590 1332 613.5 1190.5 c 128,-1,66
 637 1049 637 1049 685.5 914.5 c 128,-1,67
 734 780 734 780 802.5 659.5 c 128,-1,68
 871 539 871 539 966 438.5 c 128,-1,69
 1061 338 1061 338 1173.5 265 c 128,-1,70
 1286 192 1286 192 1426 151.5 c 128,-1,71
 1566 111 1566 111 1720 111 c 0,72,73
 1844 111 1844 111 1961.5 143 c 128,-1,74
 2079 175 2079 175 2186 237 c 128,-1,75
 2293 299 2293 299 2382 396.5 c 128,-1,76
 2471 494 2471 494 2536.5 619 c 128,-1,77
 2602 744 2602 744 2638.5 908.5 c 128,-1,78
 2675 1073 2675 1073 2675 1262 c 0,79,80
 2675 1474 2675 1474 2630.5 1663.5 c 128,-1,81
 2586 1853 2586 1853 2507.5 2000.5 c 128,-1,82
 2429 2148 2429 2148 2322.5 2266.5 c 128,-1,83
 2216 2385 2216 2385 2091.5 2462 c 128,-1,84
 1967 2539 1967 2539 1831 2580 c 128,-1,85
 1695 2621 1695 2621 1556 2621 c 0,86,87
 1472 2621 1472 2621 1385 2605 c 128,-1,88
 1298 2589 1298 2589 1202 2549.5 c 128,-1,89
 1106 2510 1106 2510 1019 2451.5 c 128,-1,90
 932 2393 932 2393 853 2300.5 c 128,-1,91
 774 2208 774 2208 716 2093 c 128,-1,92
 658 1978 658 1978 624 1819 c 128,-1,93
 590 1660 590 1660 590 1475 c 0,64,65
EndSplineSet
Substitution2: "'c2sc' Capitals to Small Capitals in Latin lookup 13 subtable" Q.c2
AlternateSubs2: "'aalt' Access All Alternates in Latin lookup 1 subtable" Q.c2
AlternateSubs2: "'aalt' Access All Alternates lookup 0 subtable" Q.c2
Position2: "'cpsp' Capital Spacing in Latin lookup 1 subtable" dx=16 dy=0 dh=33 dv=0
EndChar

StartChar: R
Encoding: 82 82 53
Width: 2842
GlyphClass: 2
Flags: W
LayerCount: 2
Fore
SplineSet
94 2568 m 1,0,-1
 98 2732 l 1,1,-1
 1040 2732 l 2,2,3
 1366 2732 1366 2732 1548.5 2690.5 c 128,-1,4
 1731 2649 1731 2649 1872 2535 c 0,5,6
 2016 2418 2016 2418 2091.5 2267.5 c 128,-1,7
 2167 2117 2167 2117 2167 1962 c 0,8,9
 2167 1883 2167 1883 2148.5 1808 c 128,-1,10
 2130 1733 2130 1733 2086.5 1657.5 c 128,-1,11
 2043 1582 2043 1582 1977 1519 c 128,-1,12
 1911 1456 1911 1456 1809.5 1402 c 128,-1,13
 1708 1348 1708 1348 1581 1315 c 1,14,-1
 2367 270 l 1,15,16
 2423 200 2423 200 2460 180 c 128,-1,17
 2497 160 2497 160 2544 160 c 2,18,-1
 2720 160 l 1,19,-1
 2728 0 l 1,20,-1
 2134 0 l 1,21,-1
 1257 1262 l 1,22,23
 1240 1262 1240 1262 1208 1259.5 c 128,-1,24
 1176 1257 1176 1257 1159 1257 c 0,25,26
 1039 1257 1039 1257 959 1261.5 c 128,-1,27
 879 1266 879 1266 852 1270 c 128,-1,28
 825 1274 825 1274 786 1282 c 1,29,-1
 786 279 l 2,30,31
 786 248 786 248 787.5 233 c 128,-1,32
 789 218 789 218 799 201.5 c 128,-1,33
 809 185 809 185 824 179 c 128,-1,34
 839 173 839 173 874 167.5 c 128,-1,35
 909 162 909 162 952.5 161 c 128,-1,36
 996 160 996 160 1069 160 c 2,37,-1
 1278 160 l 1,38,-1
 1270 0 l 1,39,-1
 180 0 l 1,40,-1
 180 160 l 1,41,-1
 274 160 l 2,42,43
 325 160 325 160 349.5 160.5 c 128,-1,44
 374 161 374 161 398.5 166 c 128,-1,45
 423 171 423 171 431 176 c 128,-1,46
 439 181 439 181 446.5 197.5 c 128,-1,47
 454 214 454 214 454.5 230 c 128,-1,48
 455 246 455 246 455 279 c 2,49,-1
 455 2421 l 2,50,51
 455 2462 455 2462 443.5 2489.5 c 128,-1,52
 432 2517 432 2517 414.5 2532.5 c 128,-1,53
 397 2548 397 2548 362 2556 c 128,-1,54
 327 2564 327 2564 295.5 2566 c 128,-1,55
 264 2568 264 2568 209 2568 c 2,56,-1
 94 2568 l 1,0,-1
786 1417 m 1,57,58
 792 1412 792 1412 807 1405.5 c 128,-1,59
 822 1399 822 1399 889 1387.5 c 128,-1,60
 956 1376 956 1376 1049 1376 c 0,61,62
 1421 1376 1421 1376 1591 1504 c 128,-1,63
 1761 1632 1761 1632 1761 1901 c 0,64,65
 1761 2047 1761 2047 1705 2169 c 128,-1,66
 1649 2291 1649 2291 1543 2380 c 128,-1,67
 1437 2469 1437 2469 1274.5 2518.5 c 128,-1,68
 1112 2568 1112 2568 909 2568 c 0,69,70
 870 2568 870 2568 849.5 2563 c 128,-1,71
 829 2558 829 2558 813 2538.5 c 128,-1,72
 797 2519 797 2519 791.5 2482 c 128,-1,73
 786 2445 786 2445 786 2380 c 2,74,-1
 786 1417 l 1,57,58
EndSplineSet
Substitution2: "'c2sc' Capitals to Small Capitals in Latin lookup 13 subtable" R.c2
AlternateSubs2: "'aalt' Access All Alternates in Latin lookup 1 subtable" R.c2
AlternateSubs2: "'aalt' Access All Alternates lookup 0 subtable" R.c2
Position2: "'cpsp' Capital Spacing in Latin lookup 1 subtable" dx=16 dy=0 dh=33 dv=0
EndChar

StartChar: S
Encoding: 83 83 54
Width: 2117
GlyphClass: 2
Flags: W
LayerCount: 2
Fore
SplineSet
102 696 m 1,0,-1
 246 713 l 1,1,-1
 299 459 l 2,2,3
 310 407 310 407 315 383.5 c 128,-1,4
 320 360 320 360 332 332.5 c 128,-1,5
 344 305 344 305 352 295.5 c 128,-1,6
 360 286 360 286 383.5 270.5 c 128,-1,7
 407 255 407 255 427 248 c 128,-1,8
 447 241 447 241 492 225 c 0,9,10
 631 176 631 176 738 155.5 c 128,-1,11
 845 135 845 135 999 135 c 0,12,13
 1146 135 1146 135 1269 193 c 128,-1,14
 1392 251 1392 251 1468 366 c 128,-1,15
 1544 481 1544 481 1544 631 c 0,16,17
 1544 706 1544 706 1514 776 c 128,-1,18
 1484 846 1484 846 1438.5 901 c 128,-1,19
 1393 956 1393 956 1320 1013.5 c 128,-1,20
 1247 1071 1247 1071 1179.5 1112.5 c 128,-1,21
 1112 1154 1112 1154 1020 1204 c 1,22,-1
 852 1298 l 2,23,24
 779 1339 779 1339 726.5 1370.5 c 128,-1,25
 674 1402 674 1402 610 1447 c 128,-1,26
 546 1492 546 1492 502 1534 c 128,-1,27
 458 1576 458 1576 412.5 1632 c 128,-1,28
 367 1688 367 1688 340 1747 c 128,-1,29
 313 1806 313 1806 296 1880 c 128,-1,30
 279 1954 279 1954 279 2036 c 0,31,32
 279 2191 279 2191 349 2329 c 128,-1,33
 419 2467 419 2467 533 2561 c 128,-1,34
 647 2655 647 2655 794 2710 c 128,-1,35
 941 2765 941 2765 1094 2765 c 0,36,37
 1183 2765 1183 2765 1278 2744.5 c 128,-1,38
 1373 2724 1373 2724 1434.5 2703.5 c 128,-1,39
 1496 2683 1496 2683 1503 2683 c 0,40,41
 1530 2683 1530 2683 1545.5 2709.5 c 128,-1,42
 1561 2736 1561 2736 1563 2762 c 2,43,-1
 1565 2789 l 1,44,-1
 1704 2798 l 1,45,-1
 1765 2048 l 1,46,-1
 1618 2044 l 1,47,-1
 1581 2408 l 1,48,49
 1572 2415 1572 2415 1555 2426 c 128,-1,50
 1538 2437 1538 2437 1482 2465 c 128,-1,51
 1426 2493 1426 2493 1365 2515 c 128,-1,52
 1304 2537 1304 2537 1211 2554.5 c 128,-1,53
 1118 2572 1118 2572 1024 2572 c 0,54,55
 897 2572 897 2572 789 2517 c 128,-1,56
 681 2462 681 2462 615 2361 c 128,-1,57
 549 2260 549 2260 549 2134 c 0,58,59
 549 2070 549 2070 567 2011.5 c 128,-1,60
 585 1953 585 1953 621.5 1902 c 128,-1,61
 658 1851 658 1851 701 1807 c 128,-1,62
 744 1763 744 1763 807 1718 c 128,-1,63
 870 1673 870 1673 927 1638.5 c 128,-1,64
 984 1604 984 1604 1061 1561 c 2,65,-1
 1286 1438 l 2,66,67
 1360 1397 1360 1397 1416 1362.5 c 128,-1,68
 1472 1328 1472 1328 1536.5 1282.5 c 128,-1,69
 1601 1237 1601 1237 1647.5 1194.5 c 128,-1,70
 1694 1152 1694 1152 1739.5 1098.5 c 128,-1,71
 1785 1045 1785 1045 1813.5 990 c 128,-1,72
 1842 935 1842 935 1859 868 c 128,-1,73
 1876 801 1876 801 1876 729 c 0,74,75
 1876 610 1876 610 1837.5 498.5 c 128,-1,76
 1799 387 1799 387 1720.5 289.5 c 128,-1,77
 1642 192 1642 192 1532.5 119.5 c 128,-1,78
 1423 47 1423 47 1272 5 c 128,-1,79
 1121 -37 1121 -37 946 -37 c 0,80,81
 824 -37 824 -37 724 -18.5 c 128,-1,82
 624 0 624 0 562 18.5 c 128,-1,83
 500 37 500 37 471 37 c 0,84,85
 397 37 397 37 397 -49 c 1,86,-1
 401 -102 l 1,87,-1
 262 -115 l 1,88,89
 240 8 240 8 214 140 c 128,-1,90
 188 272 188 272 152.5 447 c 128,-1,91
 117 622 117 622 102 696 c 1,0,-1
EndSplineSet
Substitution2: "'c2sc' Capitals to Small Capitals in Latin lookup 13 subtable" S.c2
AlternateSubs2: "'aalt' Access All Alternates in Latin lookup 1 subtable" S.c2
AlternateSubs2: "'aalt' Access All Alternates lookup 0 subtable" S.c2
Position2: "'cpsp' Capital Spacing in Latin lookup 1 subtable" dx=16 dy=0 dh=33 dv=0
EndChar

StartChar: T
Encoding: 84 84 55
Width: 2580
GlyphClass: 2
Flags: W
LayerCount: 2
Fore
SplineSet
45 2073 m 1,0,1
 81 2420 81 2420 106 2732 c 1,2,-1
 2470 2732 l 1,3,4
 2448 2510 2448 2510 2435.5 2306 c 128,-1,5
 2423 2102 2423 2102 2421 2077 c 1,6,-1
 2273 2081 l 1,7,8
 2298 2375 2298 2375 2298 2417 c 0,9,10
 2298 2500 2298 2500 2254.5 2526 c 128,-1,11
 2211 2552 2211 2552 2089 2552 c 2,12,-1
 1618 2552 l 2,13,14
 1573 2552 1573 2552 1547.5 2552 c 128,-1,15
 1522 2552 1522 2552 1495.5 2547 c 128,-1,16
 1469 2542 1469 2542 1457 2539.5 c 128,-1,17
 1445 2537 1445 2537 1432 2523 c 128,-1,18
 1419 2509 1419 2509 1415.5 2500.5 c 128,-1,19
 1412 2492 1412 2492 1408.5 2464.5 c 128,-1,20
 1405 2437 1405 2437 1405 2418 c 128,-1,21
 1405 2399 1405 2399 1405 2355 c 2,22,-1
 1405 348 l 2,23,24
 1405 303 1405 303 1408 274.5 c 128,-1,25
 1411 246 1411 246 1421.5 223 c 128,-1,26
 1432 200 1432 200 1446 189 c 128,-1,27
 1460 178 1460 178 1490 170.5 c 128,-1,28
 1520 163 1520 163 1553 161.5 c 128,-1,29
 1586 160 1586 160 1642 160 c 2,30,-1
 1806 160 l 1,31,-1
 1810 0 l 1,32,-1
 729 4 l 1,33,-1
 729 160 l 1,34,-1
 795 160 l 2,35,36
 841 160 841 160 866.5 160 c 128,-1,37
 892 160 892 160 924 162 c 128,-1,38
 956 164 956 164 971 165.5 c 128,-1,39
 986 167 986 167 1005.5 172.5 c 128,-1,40
 1025 178 1025 178 1032.5 183 c 128,-1,41
 1040 188 1040 188 1050 199 c 128,-1,42
 1060 210 1060 210 1062.5 220.5 c 128,-1,43
 1065 231 1065 231 1068.5 249.5 c 128,-1,44
 1072 268 1072 268 1072.5 286 c 128,-1,45
 1073 304 1073 304 1073 332 c 2,46,-1
 1073 2322 l 2,47,48
 1073 2380 1073 2380 1071.5 2414.5 c 128,-1,49
 1070 2449 1070 2449 1061.5 2477.5 c 128,-1,50
 1053 2506 1053 2506 1043.5 2519 c 128,-1,51
 1034 2532 1034 2532 1010.5 2540.5 c 128,-1,52
 987 2549 987 2549 962.5 2550.5 c 128,-1,53
 938 2552 938 2552 893 2552 c 2,54,-1
 463 2552 l 2,55,56
 417 2552 417 2552 385 2549.5 c 128,-1,57
 353 2547 353 2547 326 2539.5 c 128,-1,58
 299 2532 299 2532 282 2520.5 c 128,-1,59
 265 2509 265 2509 252 2489 c 128,-1,60
 239 2469 239 2469 231.5 2443.5 c 128,-1,61
 224 2418 224 2418 218.5 2381 c 128,-1,62
 213 2344 213 2344 209.5 2299 c 128,-1,63
 206 2254 206 2254 202 2196 c 0,64,65
 197 2115 197 2115 193 2068 c 1,66,-1
 45 2073 l 1,0,1
EndSplineSet
Substitution2: "'c2sc' Capitals to Small Capitals in Latin lookup 13 subtable" T.c2
AlternateSubs2: "'aalt' Access All Alternates in Latin lookup 1 subtable" T.c2
AlternateSubs2: "'aalt' Access All Alternates lookup 0 subtable" T.c2
Position2: "'cpsp' Capital Spacing in Latin lookup 1 subtable" dx=16 dy=0 dh=33 dv=0
EndChar

StartChar: U
Encoding: 85 85 56
Width: 2953
GlyphClass: 2
Flags: W
LayerCount: 2
Fore
SplineSet
111 2568 m 1,0,-1
 111 2732 l 1,1,-1
 1094 2732 l 1,2,-1
 1098 2568 l 1,3,-1
 942 2568 l 2,4,5
 820 2568 820 2568 770.5 2540 c 128,-1,6
 721 2512 721 2512 721 2417 c 2,7,-1
 721 901 l 2,8,9
 721 861 721 861 725.5 817 c 128,-1,10
 730 773 730 773 749.5 697 c 128,-1,11
 769 621 769 621 802 553.5 c 128,-1,12
 835 486 835 486 900 412 c 128,-1,13
 965 338 965 338 1052 285.5 c 128,-1,14
 1139 233 1139 233 1275 198.5 c 128,-1,15
 1411 164 1411 164 1577 164 c 0,16,17
 1753 164 1753 164 1889 192.5 c 128,-1,18
 2025 221 2025 221 2114.5 262.5 c 128,-1,19
 2204 304 2204 304 2266.5 381.5 c 128,-1,20
 2329 459 2329 459 2361 524.5 c 128,-1,21
 2393 590 2393 590 2410 702 c 128,-1,22
 2427 814 2427 814 2430 889.5 c 128,-1,23
 2433 965 2433 965 2433 1094 c 2,24,-1
 2433 2421 l 2,25,26
 2433 2456 2433 2456 2429 2480 c 128,-1,27
 2425 2504 2425 2504 2413 2521 c 128,-1,28
 2401 2538 2401 2538 2387 2547 c 128,-1,29
 2373 2556 2373 2556 2344 2561 c 128,-1,30
 2315 2566 2315 2566 2286.5 2567 c 128,-1,31
 2258 2568 2258 2568 2208 2568 c 2,32,-1
 2064 2568 l 1,33,-1
 2073 2732 l 1,34,-1
 2843 2732 l 1,35,-1
 2843 2568 l 1,36,-1
 2785 2568 l 2,37,38
 2716 2568 2716 2568 2685.5 2557 c 128,-1,39
 2655 2546 2655 2546 2640.5 2508.5 c 128,-1,40
 2626 2471 2626 2471 2626 2388 c 2,41,-1
 2626 934 l 2,42,43
 2626 815 2626 815 2612.5 711.5 c 128,-1,44
 2599 608 2599 608 2565.5 504 c 128,-1,45
 2532 400 2532 400 2479 315.5 c 128,-1,46
 2426 231 2426 231 2343.5 157 c 128,-1,47
 2261 83 2261 83 2154 33 c 128,-1,48
 2047 -17 2047 -17 1900.5 -45.5 c 128,-1,49
 1754 -74 1754 -74 1577 -74 c 0,50,51
 1384 -74 1384 -74 1222 -47 c 128,-1,52
 1060 -20 1060 -20 939.5 27.5 c 128,-1,53
 819 75 819 75 724.5 144.5 c 128,-1,54
 630 214 630 214 567.5 295 c 128,-1,55
 505 376 505 376 464.5 473.5 c 128,-1,56
 424 571 424 571 406.5 670.5 c 128,-1,57
 389 770 389 770 389 881 c 2,58,-1
 389 2421 l 2,59,60
 389 2474 389 2474 383 2502.5 c 128,-1,61
 377 2531 377 2531 354.5 2546.5 c 128,-1,62
 332 2562 332 2562 305 2565 c 128,-1,63
 278 2568 278 2568 221 2568 c 2,64,-1
 111 2568 l 1,0,-1
EndSplineSet
Substitution2: "'c2sc' Capitals to Small Capitals in Latin lookup 13 subtable" U.c2
AlternateSubs2: "'aalt' Access All Alternates in Latin lookup 1 subtable" U.c2
AlternateSubs2: "'aalt' Access All Alternates lookup 0 subtable" U.c2
Position2: "'cpsp' Capital Spacing in Latin lookup 1 subtable" dx=16 dy=0 dh=33 dv=0
EndChar

StartChar: V
Encoding: 86 86 57
Width: 3121
GlyphClass: 2
Flags: W
LayerCount: 2
Fore
SplineSet
111 2568 m 1,0,-1
 111 2732 l 1,1,-1
 1139 2732 l 1,2,-1
 1135 2568 l 1,3,-1
 918 2568 l 2,4,5
 863 2568 863 2568 841 2558.5 c 128,-1,6
 819 2549 819 2549 819 2515 c 0,7,8
 819 2465 819 2465 877 2322 c 2,9,-1
 1638 430 l 1,10,-1
 2499 2408 l 1,11,12
 2519 2463 2519 2463 2519 2486 c 0,13,14
 2519 2514 2519 2514 2504.5 2531.5 c 128,-1,15
 2490 2549 2490 2549 2458.5 2556.5 c 128,-1,16
 2427 2564 2427 2564 2397.5 2566 c 128,-1,17
 2368 2568 2368 2568 2318 2568 c 2,18,-1
 2187 2568 l 1,19,-1
 2179 2732 l 1,20,-1
 3011 2732 l 1,21,-1
 3002 2568 l 1,22,-1
 2884 2568 l 2,23,24
 2857 2568 2857 2568 2838.5 2566.5 c 128,-1,25
 2820 2565 2820 2565 2800.5 2555.5 c 128,-1,26
 2781 2546 2781 2546 2768.5 2537.5 c 128,-1,27
 2756 2529 2756 2529 2738 2503.5 c 128,-1,28
 2720 2478 2720 2478 2708 2457 c 128,-1,29
 2696 2436 2696 2436 2673.5 2389 c 128,-1,30
 2651 2342 2651 2342 2633.5 2302 c 128,-1,31
 2616 2262 2616 2262 2584 2188 c 0,32,33
 2568 2151 2568 2151 2558.5 2129.5 c 128,-1,34
 2549 2108 2549 2108 2533 2071.5 c 128,-1,35
 2517 2035 2517 2035 2503 2003 c 2,36,-1
 1585 -61 l 1,37,-1
 1516 -61 l 1,38,-1
 565 2249 l 2,39,40
 486 2439 486 2439 457 2485 c 0,41,42
 419 2544 419 2544 365 2559 c 0,43,44
 330 2568 330 2568 254 2568 c 2,45,-1
 111 2568 l 1,0,-1
EndSplineSet
Substitution2: "'c2sc' Capitals to Small Capitals in Latin lookup 13 subtable" V.c2
AlternateSubs2: "'aalt' Access All Alternates in Latin lookup 1 subtable" V.c2
AlternateSubs2: "'aalt' Access All Alternates lookup 0 subtable" V.c2
Position2: "'cpsp' Capital Spacing in Latin lookup 1 subtable" dx=16 dy=0 dh=33 dv=0
EndChar

StartChar: W
Encoding: 87 87 58
Width: 4259
GlyphClass: 2
Flags: W
LayerCount: 2
Fore
SplineSet
152 2568 m 1,0,-1
 152 2732 l 1,1,-1
 1061 2732 l 1,2,-1
 1057 2568 l 1,3,-1
 967 2568 l 2,4,5
 908 2568 908 2568 870.5 2565.5 c 128,-1,6
 833 2563 833 2563 796.5 2554 c 128,-1,7
 760 2545 760 2545 742.5 2526.5 c 128,-1,8
 725 2508 725 2508 725 2478 c 0,9,10
 725 2465 725 2465 733 2433 c 1,11,-1
 1442 483 l 1,12,-1
 2118 2212 l 1,13,14
 2111 2231 2111 2231 2098.5 2271 c 128,-1,15
 2086 2311 2086 2311 2076 2338.5 c 128,-1,16
 2066 2366 2066 2366 2051 2404.5 c 128,-1,17
 2036 2443 2036 2443 2020 2468.5 c 128,-1,18
 2004 2494 2004 2494 1983.5 2518.5 c 128,-1,19
 1963 2543 1963 2543 1938 2555.5 c 128,-1,20
 1913 2568 1913 2568 1884 2568 c 2,21,-1
 1683 2568 l 1,22,-1
 1683 2732 l 1,23,-1
 2658 2732 l 1,24,-1
 2658 2568 l 1,25,-1
 2441 2568 l 2,26,27
 2375 2568 2375 2568 2355 2556.5 c 128,-1,28
 2335 2545 2335 2545 2335 2503 c 0,29,30
 2335 2478 2335 2478 2347.5 2432 c 128,-1,31
 2360 2386 2360 2386 2408 2241 c 1,32,-1
 3006 496 l 1,33,-1
 3736 2408 l 1,34,35
 3752 2466 3752 2466 3752 2478 c 0,36,37
 3752 2509 3752 2509 3737 2528 c 128,-1,38
 3722 2547 3722 2547 3689.5 2555.5 c 128,-1,39
 3657 2564 3657 2564 3628.5 2566 c 128,-1,40
 3600 2568 3600 2568 3551 2568 c 2,41,-1
 3445 2568 l 1,42,-1
 3445 2732 l 1,43,-1
 4145 2732 l 1,44,-1
 4149 2568 l 1,45,-1
 4100 2568 l 2,46,47
 4004 2568 4004 2568 3971 2528 c 128,-1,48
 3938 2488 3938 2488 3868 2299 c 0,49,50
 3866 2295 3866 2295 3865 2292 c 128,-1,51
 3864 2289 3864 2289 3863 2286 c 2,52,-1
 2957 -66 l 1,53,-1
 2888 -66 l 1,54,-1
 2191 1982 l 1,55,-1
 1397 -61 l 1,56,-1
 1331 -61 l 1,57,-1
 463 2310 l 2,58,59
 431 2399 431 2399 404.5 2451 c 128,-1,60
 378 2503 378 2503 348.5 2528.5 c 128,-1,61
 319 2554 319 2554 292.5 2561 c 128,-1,62
 266 2568 266 2568 221 2568 c 2,63,-1
 152 2568 l 1,0,-1
EndSplineSet
Substitution2: "'c2sc' Capitals to Small Capitals in Latin lookup 13 subtable" W.c2
AlternateSubs2: "'aalt' Access All Alternates in Latin lookup 1 subtable" W.c2
AlternateSubs2: "'aalt' Access All Alternates lookup 0 subtable" W.c2
Position2: "'cpsp' Capital Spacing in Latin lookup 1 subtable" dx=16 dy=0 dh=33 dv=0
EndChar

StartChar: X
Encoding: 88 88 59
Width: 3112
GlyphClass: 2
Flags: W
LayerCount: 2
Fore
SplineSet
111 0 m 1,0,-1
 111 160 l 1,1,2
 169 160 169 160 200 160 c 128,-1,3
 231 160 231 160 269.5 165 c 128,-1,4
 308 170 308 170 323.5 171.5 c 128,-1,5
 339 173 339 173 368.5 188 c 128,-1,6
 398 203 398 203 408 211 c 128,-1,7
 418 219 418 219 448.5 248 c 128,-1,8
 479 277 479 277 494 295.5 c 128,-1,9
 509 314 509 314 551 361 c 128,-1,10
 593 408 593 408 623 442 c 2,11,-1
 1405 1327 l 1,12,-1
 598 2347 l 2,13,14
 586 2363 586 2363 563 2391 c 0,15,16
 531 2432 531 2432 517.5 2449.5 c 128,-1,17
 504 2467 504 2467 478.5 2492.5 c 128,-1,18
 453 2518 453 2518 445 2525.5 c 128,-1,19
 437 2533 437 2533 410 2545.5 c 128,-1,20
 383 2558 383 2558 371.5 2559.5 c 128,-1,21
 360 2561 360 2561 322.5 2564.5 c 128,-1,22
 285 2568 285 2568 261 2568 c 128,-1,23
 237 2568 237 2568 180 2568 c 1,24,-1
 180 2732 l 1,25,-1
 1221 2732 l 1,26,-1
 1221 2568 l 1,27,-1
 1110 2568 l 2,28,29
 1006 2568 1006 2568 972 2561.5 c 128,-1,30
 938 2555 938 2555 938 2527 c 0,31,32
 938 2503 938 2503 961 2464 c 128,-1,33
 984 2425 984 2425 1085 2286 c 1,34,-1
 1618 1573 l 1,35,-1
 2167 2191 l 2,36,37
 2284 2324 2284 2324 2335 2388 c 128,-1,38
 2386 2452 2386 2452 2395 2471.5 c 128,-1,39
 2404 2491 2404 2491 2404 2515 c 0,40,41
 2404 2549 2404 2549 2361.5 2558.5 c 128,-1,42
 2319 2568 2319 2568 2212 2568 c 2,43,-1
 2097 2568 l 1,44,-1
 2101 2732 l 1,45,-1
 2978 2732 l 1,46,-1
 2978 2568 l 1,47,48
 2926 2568 2926 2568 2904 2568 c 128,-1,49
 2882 2568 2882 2568 2846.5 2566 c 128,-1,50
 2811 2564 2811 2564 2798.5 2562.5 c 128,-1,51
 2786 2561 2786 2561 2761 2554 c 128,-1,52
 2736 2547 2736 2547 2727.5 2541 c 128,-1,53
 2719 2535 2719 2535 2698 2521 c 128,-1,54
 2677 2507 2677 2507 2665.5 2494 c 128,-1,55
 2654 2481 2654 2481 2631 2457 c 128,-1,56
 2608 2433 2608 2433 2588 2411 c 0,57,58
 2582 2404 2582 2404 2578.5 2400.5 c 128,-1,59
 2575 2397 2575 2397 2570 2391 c 128,-1,60
 2565 2385 2565 2385 2560 2380 c 2,61,-1
 1720 1454 l 1,62,-1
 2245 786 l 2,63,64
 2342 662 2342 662 2400.5 587.5 c 128,-1,65
 2459 513 2459 513 2521 438.5 c 128,-1,66
 2583 364 2583 364 2616.5 326 c 128,-1,67
 2650 288 2650 288 2691 251 c 128,-1,68
 2732 214 2732 214 2754 200.5 c 128,-1,69
 2776 187 2776 187 2809 175 c 128,-1,70
 2842 163 2842 163 2866 161.5 c 128,-1,71
 2890 160 2890 160 2929 160 c 2,72,-1
 2998 160 l 1,73,-1
 3002 0 l 1,74,-1
 1946 0 l 1,75,-1
 1946 160 l 1,76,-1
 2044 160 l 2,77,78
 2152 160 2152 160 2200.5 169.5 c 128,-1,79
 2249 179 2249 179 2249 213 c 0,80,81
 2249 232 2249 232 2225 267.5 c 128,-1,82
 2201 303 2201 303 2081 459 c 1,83,-1
 1503 1200 l 1,84,-1
 766 348 l 1,85,86
 672 243 672 243 672 201 c 0,87,88
 672 175 672 175 706 167.5 c 128,-1,89
 740 160 740 160 836 160 c 2,90,-1
 983 160 l 1,91,-1
 983 0 l 1,92,-1
 111 0 l 1,0,-1
EndSplineSet
Substitution2: "'c2sc' Capitals to Small Capitals in Latin lookup 13 subtable" X.c2
AlternateSubs2: "'aalt' Access All Alternates in Latin lookup 1 subtable" X.c2
AlternateSubs2: "'aalt' Access All Alternates lookup 0 subtable" X.c2
Position2: "'cpsp' Capital Spacing in Latin lookup 1 subtable" dx=16 dy=0 dh=33 dv=0
EndChar

StartChar: Y
Encoding: 89 89 60
Width: 2699
GlyphClass: 2
Flags: W
LayerCount: 2
Fore
SplineSet
152 2568 m 1,0,-1
 156 2732 l 1,1,-1
 1073 2732 l 1,2,-1
 1073 2568 l 1,3,-1
 991 2568 l 2,4,5
 871 2568 871 2568 824.5 2558.5 c 128,-1,6
 778 2549 778 2549 778 2515 c 0,7,8
 778 2503 778 2503 790.5 2478.5 c 128,-1,9
 803 2454 803 2454 852 2372 c 1,10,-1
 1438 1450 l 1,11,-1
 2154 2466 l 1,12,13
 2179 2508 2179 2508 2179 2515 c 0,14,15
 2179 2549 2179 2549 2117 2558.5 c 128,-1,16
 2055 2568 2055 2568 1913 2568 c 2,17,-1
 1847 2568 l 1,18,-1
 1843 2732 l 1,19,-1
 2589 2732 l 1,20,-1
 2589 2568 l 1,21,-1
 2568 2568 l 2,22,23
 2529 2568 2529 2568 2510 2567 c 128,-1,24
 2491 2566 2491 2566 2465.5 2560.5 c 128,-1,25
 2440 2555 2440 2555 2426 2545.5 c 128,-1,26
 2412 2536 2412 2536 2389.5 2515 c 128,-1,27
 2367 2494 2367 2494 2346 2467 c 128,-1,28
 2325 2440 2325 2440 2294 2396 c 2,29,-1
 1495 1241 l 1,30,-1
 1495 348 l 2,31,32
 1495 309 1495 309 1495.5 290 c 128,-1,33
 1496 271 1496 271 1500 246.5 c 128,-1,34
 1504 222 1504 222 1509 212.5 c 128,-1,35
 1514 203 1514 203 1527 190 c 128,-1,36
 1540 177 1540 177 1555.5 173.5 c 128,-1,37
 1571 170 1571 170 1599 165.5 c 128,-1,38
 1627 161 1627 161 1658 160.5 c 128,-1,39
 1689 160 1689 160 1737 160 c 2,40,-1
 1921 160 l 1,41,-1
 1917 0 l 1,42,-1
 766 0 l 1,43,-1
 770 160 l 1,44,-1
 934 160 l 2,45,46
 977 160 977 160 1002 160.5 c 128,-1,47
 1027 161 1027 161 1054.5 164 c 128,-1,48
 1082 167 1082 167 1095.5 171.5 c 128,-1,49
 1109 176 1109 176 1123.5 185.5 c 128,-1,50
 1138 195 1138 195 1144 207 c 128,-1,51
 1150 219 1150 219 1155.5 239.5 c 128,-1,52
 1161 260 1161 260 1162 283 c 128,-1,53
 1163 306 1163 306 1163 340 c 2,54,-1
 1163 1274 l 1,55,-1
 492 2318 l 2,56,57
 393 2473 393 2473 371 2500 c 0,58,59
 330 2550 330 2550 281 2561 c 0,60,61
 250 2568 250 2568 152 2568 c 1,0,-1
EndSplineSet
Substitution2: "'c2sc' Capitals to Small Capitals in Latin lookup 13 subtable" Y.c2
AlternateSubs2: "'aalt' Access All Alternates in Latin lookup 1 subtable" Y.c2
AlternateSubs2: "'aalt' Access All Alternates lookup 0 subtable" Y.c2
Position2: "'cpsp' Capital Spacing in Latin lookup 1 subtable" dx=16 dy=0 dh=33 dv=0
EndChar

StartChar: Z
Encoding: 90 90 61
Width: 2719
GlyphClass: 2
Flags: W
LayerCount: 2
Fore
SplineSet
111 82 m 0,0,1
 111 104 111 104 136.5 138.5 c 128,-1,2
 162 173 162 173 220.5 236 c 128,-1,3
 279 299 279 299 303 328 c 1,4,-1
 2142 2408 l 1,5,-1
 471 2408 l 2,6,7
 392 2408 392 2408 374 2372.5 c 128,-1,8
 356 2337 356 2337 338 2161 c 0,9,10
 337 2149 337 2149 336 2142 c 0,11,12
 335 2128 335 2128 327 2077.5 c 128,-1,13
 319 2027 319 2027 319 1999 c 1,14,-1
 156 2007 l 1,15,16
 207 2444 207 2444 217 2732 c 1,17,-1
 2449 2732 l 2,18,19
 2518 2732 2518 2732 2547 2724.5 c 128,-1,20
 2576 2717 2576 2717 2576 2691 c 0,21,22
 2576 2674 2576 2674 2562.5 2647 c 128,-1,23
 2549 2620 2549 2620 2528.5 2591 c 128,-1,24
 2508 2562 2508 2562 2489 2538 c 128,-1,25
 2470 2514 2470 2514 2452 2493 c 128,-1,26
 2434 2472 2434 2472 2433 2470 c 2,27,-1
 569 340 l 1,28,-1
 2191 340 l 2,29,30
 2237 340 2237 340 2259 340.5 c 128,-1,31
 2281 341 2281 341 2310.5 343 c 128,-1,32
 2340 345 2340 345 2355 350.5 c 128,-1,33
 2370 356 2370 356 2376 365 c 0,34,35
 2392 385 2392 385 2411.5 474 c 128,-1,36
 2431 563 2431 563 2442 642 c 2,37,-1
 2454 721 l 1,38,-1
 2609 717 l 1,39,40
 2605 670 2605 670 2579 475 c 128,-1,41
 2553 280 2553 280 2527 0 c 1,42,-1
 201 0 l 2,43,44
 111 0 111 0 111 82 c 0,0,1
EndSplineSet
Substitution2: "'c2sc' Capitals to Small Capitals in Latin lookup 13 subtable" Z.c2
AlternateSubs2: "'aalt' Access All Alternates in Latin lookup 1 subtable" Z.c2
AlternateSubs2: "'aalt' Access All Alternates lookup 0 subtable" Z.c2
Position2: "'cpsp' Capital Spacing in Latin lookup 1 subtable" dx=16 dy=0 dh=33 dv=0
EndChar

StartChar: bracketleft
Encoding: 91 91 62
Width: 1335
GlyphClass: 2
Flags: W
LayerCount: 2
Fore
SplineSet
360 -946 m 1,0,-1
 360 2892 l 1,1,-1
 1266 2892 l 1,2,-1
 1266 2769 l 1,3,-1
 614 2769 l 1,4,-1
 614 -827 l 1,5,-1
 1266 -827 l 1,6,-1
 1266 -946 l 1,7,-1
 360 -946 l 1,0,-1
EndSplineSet
Position2: "'case' Case-Sensitive Forms in Latin lookup 0 subtable" dx=0 dy=205 dh=0 dv=0
EndChar

StartChar: backslash
Encoding: 92 92 63
Width: 1810
GlyphClass: 2
Flags: W
LayerCount: 2
Fore
SplineSet
152 2892 m 1,0,-1
 344 2892 l 1,1,-1
 1741 -946 l 1,2,-1
 1548 -946 l 1,3,-1
 152 2892 l 1,0,-1
EndSplineSet
Substitution2: "'case' Case-Sensitive Forms in Latin lookup 15 subtable" backslash.uppercase
AlternateSubs2: "'aalt' Access All Alternates in Latin lookup 1 subtable" backslash.uppercase
AlternateSubs2: "'aalt' Access All Alternates lookup 0 subtable" backslash.uppercase
EndChar

StartChar: bracketright
Encoding: 93 93 64
Width: 1335
GlyphClass: 2
Flags: W
LayerCount: 2
Fore
SplineSet
70 -827 m 1,0,-1
 721 -827 l 1,1,-1
 721 2769 l 1,2,-1
 70 2769 l 1,3,-1
 70 2892 l 1,4,-1
 975 2892 l 1,5,-1
 975 -946 l 1,6,-1
 70 -946 l 1,7,-1
 70 -827 l 1,0,-1
EndSplineSet
Position2: "'case' Case-Sensitive Forms in Latin lookup 0 subtable" dx=0 dy=205 dh=0 dv=0
EndChar

StartChar: asciicircum
Encoding: 94 94 65
Width: 1662
GlyphClass: 2
Flags: W
LayerCount: 2
Fore
SplineSet
164 1356 m 1,0,-1
 807 2666 l 1,1,-1
 856 2666 l 1,2,-1
 1499 1356 l 1,3,-1
 1241 1356 l 1,4,-1
 831 2224 l 1,5,-1
 422 1356 l 1,6,-1
 164 1356 l 1,0,-1
EndSplineSet
EndChar

StartChar: underscore
Encoding: 95 95 66
Width: 925
GlyphClass: 2
Flags: W
LayerCount: 2
Fore
SplineSet
82 -242 m 1,0,-1
 844 -242 l 1,1,-1
 844 -418 l 1,2,-1
 82 -418 l 1,3,-1
 82 -242 l 1,0,-1
EndSplineSet
EndChar

StartChar: a
Encoding: 97 97 68
Width: 1556
GlyphClass: 2
Flags: W
LayerCount: 2
Fore
SplineSet
111 266 m 0,0,1
 111 432 111 432 219 576 c 128,-1,2
 327 720 327 720 517.5 806.5 c 128,-1,3
 708 893 708 893 934 893 c 1,4,-1
 934 1139 l 2,5,6
 934 1194 934 1194 929.5 1231.5 c 128,-1,7
 925 1269 925 1269 909 1309.5 c 128,-1,8
 893 1350 893 1350 864 1374.5 c 128,-1,9
 835 1399 835 1399 783.5 1414.5 c 128,-1,10
 732 1430 732 1430 659 1430 c 0,11,12
 579 1430 579 1430 515 1417 c 128,-1,13
 451 1404 451 1404 417.5 1385 c 128,-1,14
 384 1366 384 1366 362.5 1347.5 c 128,-1,15
 341 1329 341 1329 334 1316 c 2,16,-1
 328 1303 l 1,17,18
 334 1276 334 1276 345 1236.5 c 128,-1,19
 356 1197 356 1197 362.5 1169.5 c 128,-1,20
 369 1142 369 1142 369 1122 c 0,21,22
 369 1078 369 1078 320.5 1047 c 128,-1,23
 272 1016 272 1016 238 1016 c 0,24,25
 209 1016 209 1016 189 1031.5 c 128,-1,26
 169 1047 169 1047 159.5 1072 c 128,-1,27
 150 1097 150 1097 146.5 1119 c 128,-1,28
 143 1141 143 1141 143 1163 c 128,-1,29
 143 1185 143 1185 151.5 1217 c 128,-1,30
 160 1249 160 1249 182.5 1293.5 c 128,-1,31
 205 1338 205 1338 239 1382 c 128,-1,32
 273 1426 273 1426 330.5 1469.5 c 128,-1,33
 388 1513 388 1513 459.5 1546.5 c 128,-1,34
 531 1580 531 1580 635 1601 c 128,-1,35
 739 1622 739 1622 860 1622 c 0,36,37
 897 1622 897 1622 934.5 1617 c 128,-1,38
 972 1612 972 1612 1026.5 1592 c 128,-1,39
 1081 1572 1081 1572 1121.5 1539 c 128,-1,40
 1162 1506 1162 1506 1191.5 1442.5 c 128,-1,41
 1221 1379 1221 1379 1221 1294 c 2,42,-1
 1221 528 l 2,43,44
 1221 469 1221 469 1225.5 427.5 c 128,-1,45
 1230 386 1230 386 1246 341 c 128,-1,46
 1262 296 1262 296 1290.5 264 c 128,-1,47
 1319 232 1319 232 1368 203.5 c 128,-1,48
 1417 175 1417 175 1487 156 c 0,49,50
 1524 146 1524 146 1524 123 c 0,51,52
 1524 98 1524 98 1487 78 c 1,53,54
 1420 35 1420 35 1335.5 -16 c 128,-1,55
 1251 -67 1251 -67 1241 -70 c 1,56,57
 1190 -34 1190 -34 1147.5 6 c 128,-1,58
 1105 46 1105 46 1085.5 68.5 c 128,-1,59
 1066 91 1066 91 1023.5 145 c 128,-1,60
 981 199 981 199 967 217 c 1,61,62
 885 106 885 106 751.5 30.5 c 128,-1,63
 618 -45 618 -45 487 -45 c 0,64,65
 419 -45 419 -45 355 -27 c 128,-1,66
 291 -9 291 -9 235 27 c 128,-1,67
 179 63 179 63 145 125 c 128,-1,68
 111 187 111 187 111 266 c 0,0,1
397 385 m 0,69,70
 397 293 397 293 456.5 234.5 c 128,-1,71
 516 176 516 176 643 176 c 0,72,73
 712 176 712 176 765.5 191 c 128,-1,74
 819 206 819 206 850 229 c 128,-1,75
 881 252 881 252 901 283.5 c 128,-1,76
 921 315 921 315 927.5 343 c 128,-1,77
 934 371 934 371 934 401 c 2,78,-1
 934 782 l 1,79,80
 812 782 812 782 707.5 745.5 c 128,-1,81
 603 709 603 709 537 651 c 128,-1,82
 471 593 471 593 434 523.5 c 128,-1,83
 397 454 397 454 397 385 c 0,69,70
EndSplineSet
Substitution2: "'smcp' Lowercase to Small Capitals in Latin lookup 12 subtable" a.sc
AlternateSubs2: "'aalt' Access All Alternates in Latin lookup 1 subtable" a.sc
AlternateSubs2: "'aalt' Access All Alternates lookup 0 subtable" a.sc
EndChar

StartChar: b
Encoding: 98 98 69
Width: 2068
GlyphClass: 2
Flags: W
LayerCount: 2
Fore
SplineSet
49 2847 m 1,0,1
 187 2871 187 2871 639 2961 c 1,2,-1
 639 1376 l 1,3,4
 646 1381 646 1381 681.5 1410 c 128,-1,5
 717 1439 717 1439 748.5 1463.5 c 128,-1,6
 780 1488 780 1488 835.5 1521.5 c 128,-1,7
 891 1555 891 1555 945 1578 c 128,-1,8
 999 1601 999 1601 1071.5 1617.5 c 128,-1,9
 1144 1634 1144 1634 1217 1634 c 0,10,11
 1402 1634 1402 1634 1548.5 1570 c 128,-1,12
 1695 1506 1695 1506 1784.5 1397.5 c 128,-1,13
 1874 1289 1874 1289 1920 1154 c 128,-1,14
 1966 1019 1966 1019 1966 868 c 0,15,16
 1966 734 1966 734 1931 604 c 128,-1,17
 1896 474 1896 474 1825 358.5 c 128,-1,18
 1754 243 1754 243 1655 154.5 c 128,-1,19
 1556 66 1556 66 1418.5 14.5 c 128,-1,20
 1281 -37 1281 -37 1122 -37 c 0,21,22
 1025 -37 1025 -37 926 -18 c 128,-1,23
 827 1 827 1 763.5 24.5 c 128,-1,24
 700 48 700 48 645.5 67 c 128,-1,25
 591 86 591 86 573 86 c 0,26,27
 542 86 542 86 479 39 c 128,-1,28
 416 -8 416 -8 385 -8 c 0,29,30
 367 -8 367 -8 353.5 14 c 128,-1,31
 340 36 340 36 340 86 c 0,32,33
 340 102 340 102 343 173 c 128,-1,34
 346 244 346 244 349 367.5 c 128,-1,35
 352 491 352 491 352 635 c 2,36,-1
 352 2642 l 2,37,38
 352 2765 352 2765 295 2765 c 0,39,40
 263 2765 263 2765 61 2720 c 1,41,-1
 49 2847 l 1,0,1
639 401 m 2,42,43
 639 330 639 330 679 273 c 128,-1,44
 719 216 719 216 783.5 181.5 c 128,-1,45
 848 147 848 147 923.5 129 c 128,-1,46
 999 111 999 111 1077 111 c 0,47,48
 1130 111 1130 111 1181 117 c 128,-1,49
 1232 123 1232 123 1292.5 141 c 128,-1,50
 1353 159 1353 159 1405.5 187 c 128,-1,51
 1458 215 1458 215 1508 263 c 128,-1,52
 1558 311 1558 311 1593 372.5 c 128,-1,53
 1628 434 1628 434 1649.5 523.5 c 128,-1,54
 1671 613 1671 613 1671 721 c 0,55,56
 1671 853 1671 853 1645 961.5 c 128,-1,57
 1619 1070 1619 1070 1579 1140 c 128,-1,58
 1539 1210 1539 1210 1483 1263 c 128,-1,59
 1427 1316 1427 1316 1375.5 1343.5 c 128,-1,60
 1324 1371 1324 1371 1267 1388 c 128,-1,61
 1210 1405 1210 1405 1175 1409 c 128,-1,62
 1140 1413 1140 1413 1110 1413 c 0,63,64
 1025 1413 1025 1413 945.5 1397.5 c 128,-1,65
 866 1382 866 1382 812.5 1360 c 128,-1,66
 759 1338 759 1338 718 1315.5 c 128,-1,67
 677 1293 677 1293 658 1278 c 2,68,-1
 639 1262 l 1,69,-1
 639 401 l 2,42,43
EndSplineSet
Substitution2: "'smcp' Lowercase to Small Capitals in Latin lookup 12 subtable" b.sc
AlternateSubs2: "'aalt' Access All Alternates in Latin lookup 1 subtable" b.sc
AlternateSubs2: "'aalt' Access All Alternates lookup 0 subtable" b.sc
EndChar

StartChar: c
Encoding: 99 99 70
Width: 1650
GlyphClass: 2
Flags: W
LayerCount: 2
Fore
SplineSet
98 745 m 0,0,1
 98 879 98 879 128 1008 c 128,-1,2
 158 1137 158 1137 221 1252 c 128,-1,3
 284 1367 284 1367 372 1453.5 c 128,-1,4
 460 1540 460 1540 584 1591 c 128,-1,5
 708 1642 708 1642 852 1642 c 0,6,7
 987 1642 987 1642 1111 1608.5 c 128,-1,8
 1235 1575 1235 1575 1311.5 1529.5 c 128,-1,9
 1388 1484 1388 1484 1433.5 1440.5 c 128,-1,10
 1479 1397 1479 1397 1479 1372 c 0,11,12
 1479 1342 1479 1342 1445 1317 c 128,-1,13
 1411 1292 1411 1292 1365.5 1278 c 128,-1,14
 1320 1264 1320 1264 1282.5 1256.5 c 128,-1,15
 1245 1249 1245 1249 1229 1249 c 0,16,17
 1193 1249 1193 1249 1150 1272.5 c 128,-1,18
 1107 1296 1107 1296 1064.5 1330 c 128,-1,19
 1022 1364 1022 1364 977.5 1398 c 128,-1,20
 933 1432 933 1432 880.5 1455.5 c 128,-1,21
 828 1479 828 1479 778 1479 c 0,22,23
 689 1479 689 1479 618.5 1434 c 128,-1,24
 548 1389 548 1389 506 1321 c 128,-1,25
 464 1253 464 1253 436.5 1164.5 c 128,-1,26
 409 1076 409 1076 399 997 c 128,-1,27
 389 918 389 918 389 844 c 0,28,29
 389 700 389 700 427.5 585 c 128,-1,30
 466 470 466 470 527 398.5 c 128,-1,31
 588 327 588 327 669 279 c 128,-1,32
 750 231 750 231 828.5 212 c 128,-1,33
 907 193 907 193 987 193 c 0,34,35
 1115 193 1115 193 1217.5 208.5 c 128,-1,36
 1320 224 1320 224 1369.5 242 c 128,-1,37
 1419 260 1419 260 1459 275.5 c 128,-1,38
 1499 291 1499 291 1516 291 c 0,39,40
 1548 291 1548 291 1548 254 c 0,41,42
 1548 221 1548 221 1488.5 169.5 c 128,-1,43
 1429 118 1429 118 1337 68.5 c 128,-1,44
 1245 19 1245 19 1116.5 -17 c 128,-1,45
 988 -53 988 -53 868 -53 c 0,46,47
 740 -53 740 -53 632.5 -28.5 c 128,-1,48
 525 -4 525 -4 446.5 38.5 c 128,-1,49
 368 81 368 81 307 141.5 c 128,-1,50
 246 202 246 202 207.5 270.5 c 128,-1,51
 169 339 169 339 143.5 420.5 c 128,-1,52
 118 502 118 502 108 580.5 c 128,-1,53
 98 659 98 659 98 745 c 0,0,1
EndSplineSet
Substitution2: "'smcp' Lowercase to Small Capitals in Latin lookup 12 subtable" c.sc
AlternateSubs2: "'aalt' Access All Alternates in Latin lookup 1 subtable" c.sc
AlternateSubs2: "'aalt' Access All Alternates lookup 0 subtable" c.sc
EndChar

StartChar: d
Encoding: 100 100 71
Width: 2097
GlyphClass: 2
Flags: W
LayerCount: 2
Fore
SplineSet
98 758 m 0,0,1
 98 937 98 937 168.5 1099 c 128,-1,2
 239 1261 239 1261 352 1373.5 c 128,-1,3
 465 1486 465 1486 610 1552 c 128,-1,4
 755 1618 755 1618 901 1618 c 0,5,6
 988 1618 988 1618 1074.5 1599.5 c 128,-1,7
 1161 1581 1161 1581 1222.5 1554.5 c 128,-1,8
 1284 1528 1284 1528 1332.5 1501.5 c 128,-1,9
 1381 1475 1381 1475 1406 1456 c 2,10,-1
 1430 1438 l 1,11,-1
 1430 2658 l 2,12,13
 1430 2722 1430 2722 1416.5 2747.5 c 128,-1,14
 1403 2773 1403 2773 1372 2773 c 0,15,16
 1337 2773 1337 2773 1102 2720 c 1,17,-1
 1094 2847 l 1,18,19
 1242 2874 1242 2874 1336 2896.5 c 128,-1,20
 1430 2919 1430 2919 1716 2994 c 1,21,-1
 1716 287 l 2,22,23
 1716 181 1716 181 1725 146 c 128,-1,24
 1734 111 1734 111 1769 111 c 0,25,26
 1787 111 1787 111 1819.5 120.5 c 128,-1,27
 1852 130 1852 130 1912.5 149.5 c 128,-1,28
 1973 169 1973 169 2028 184 c 1,29,-1
 2028 74 l 1,30,31
 1970 58 1970 58 1904.5 38 c 128,-1,32
 1839 18 1839 18 1706 -23.5 c 128,-1,33
 1573 -65 1573 -65 1438 -106 c 1,34,35
 1438 -24 1438 -24 1440 74.5 c 128,-1,36
 1442 173 1442 173 1442 193 c 0,37,38
 1442 246 1442 246 1438 258 c 1,39,-1
 1436 256 l 1,40,41
 1426 243 1426 243 1414.5 229.5 c 128,-1,42
 1403 216 1403 216 1370 183.5 c 128,-1,43
 1337 151 1337 151 1302.5 123.5 c 128,-1,44
 1268 96 1268 96 1214 62.5 c 128,-1,45
 1160 29 1160 29 1104.5 6 c 128,-1,46
 1049 -17 1049 -17 975.5 -33 c 128,-1,47
 902 -49 902 -49 827 -49 c 0,48,49
 679 -49 679 -49 546 10 c 128,-1,50
 413 69 413 69 313.5 173 c 128,-1,51
 214 277 214 277 156 429 c 128,-1,52
 98 581 98 581 98 758 c 0,0,1
397 901 m 0,53,54
 397 761 397 761 442 631.5 c 128,-1,55
 487 502 487 502 567.5 402.5 c 128,-1,56
 648 303 648 303 771 243.5 c 128,-1,57
 894 184 894 184 1040 184 c 0,58,59
 1109 184 1109 184 1174.5 201 c 128,-1,60
 1240 218 1240 218 1284 242 c 128,-1,61
 1328 266 1328 266 1362.5 290 c 128,-1,62
 1397 314 1397 314 1414 331 c 2,63,-1
 1430 348 l 1,64,-1
 1430 1229 l 1,65,66
 1422 1240 1422 1240 1407 1257.5 c 128,-1,67
 1392 1275 1392 1275 1340.5 1320 c 128,-1,68
 1289 1365 1289 1365 1232 1399.5 c 128,-1,69
 1175 1434 1175 1434 1085 1462.5 c 128,-1,70
 995 1491 995 1491 901 1491 c 0,71,72
 797 1491 797 1491 704.5 1447 c 128,-1,73
 612 1403 612 1403 544 1325.5 c 128,-1,74
 476 1248 476 1248 436.5 1137.5 c 128,-1,75
 397 1027 397 1027 397 901 c 0,53,54
EndSplineSet
Substitution2: "'smcp' Lowercase to Small Capitals in Latin lookup 12 subtable" d.sc
AlternateSubs2: "'aalt' Access All Alternates in Latin lookup 1 subtable" d.sc
AlternateSubs2: "'aalt' Access All Alternates lookup 0 subtable" d.sc
EndChar

StartChar: e
Encoding: 101 101 72
Width: 1691
GlyphClass: 2
Flags: W
LayerCount: 2
Fore
SplineSet
98 750 m 0,0,1
 98 945 98 945 154.5 1111.5 c 128,-1,2
 211 1278 211 1278 308 1392 c 128,-1,3
 405 1506 405 1506 538.5 1570 c 128,-1,4
 672 1634 672 1634 823 1634 c 0,5,6
 950 1634 950 1634 1064 1593.5 c 128,-1,7
 1178 1553 1178 1553 1255.5 1491 c 128,-1,8
 1333 1429 1333 1429 1391 1356.5 c 128,-1,9
 1449 1284 1449 1284 1476 1219.5 c 128,-1,10
 1503 1155 1503 1155 1503 1110 c 0,11,12
 1503 1081 1503 1081 1479.5 1065 c 128,-1,13
 1456 1049 1456 1049 1438 1049 c 1,14,-1
 410 926 l 1,15,16
 410 921 410 921 408 900 c 128,-1,17
 406 879 406 879 406 868 c 0,18,19
 406 716 406 716 452 593.5 c 128,-1,20
 498 471 498 471 580 391 c 128,-1,21
 662 311 662 311 772 268 c 128,-1,22
 882 225 882 225 1012 225 c 0,23,24
 1102 225 1102 225 1185 245 c 128,-1,25
 1268 265 1268 265 1324.5 293.5 c 128,-1,26
 1381 322 1381 322 1426.5 350 c 128,-1,27
 1472 378 1472 378 1505 398 c 128,-1,28
 1538 418 1538 418 1556 418 c 0,29,30
 1593 418 1593 418 1593 369 c 0,31,32
 1593 344 1593 344 1559 295 c 128,-1,33
 1525 246 1525 246 1457 186.5 c 128,-1,34
 1389 127 1389 127 1302 73.5 c 128,-1,35
 1215 20 1215 20 1094 -16.5 c 128,-1,36
 973 -53 973 -53 848 -53 c 0,37,38
 728 -53 728 -53 624.5 -25 c 128,-1,39
 521 3 521 3 446 51 c 128,-1,40
 371 99 371 99 310.5 164.5 c 128,-1,41
 250 230 250 230 211 301.5 c 128,-1,42
 172 373 172 373 146 453 c 128,-1,43
 120 533 120 533 109 606 c 128,-1,44
 98 679 98 679 98 750 c 0,0,1
418 1069 m 1,45,-1
 1122 1159 l 1,46,47
 1120 1166 1120 1166 1115 1178 c 128,-1,48
 1110 1190 1110 1190 1094 1225 c 128,-1,49
 1078 1260 1078 1260 1059 1291.5 c 128,-1,50
 1040 1323 1040 1323 1010 1362 c 128,-1,51
 980 1401 980 1401 947.5 1429 c 128,-1,52
 915 1457 915 1457 871.5 1476 c 128,-1,53
 828 1495 828 1495 782 1495 c 0,54,55
 655 1495 655 1495 553 1380.5 c 128,-1,56
 451 1266 451 1266 418 1069 c 1,45,-1
EndSplineSet
Substitution2: "'smcp' Lowercase to Small Capitals in Latin lookup 12 subtable" e.sc
AlternateSubs2: "'aalt' Access All Alternates in Latin lookup 1 subtable" e.sc
AlternateSubs2: "'aalt' Access All Alternates lookup 0 subtable" e.sc
EndChar

StartChar: f
Encoding: 102 102 73
Width: 1167
GlyphClass: 2
Flags: W
LayerCount: 2
Fore
SplineSet
70 1409 m 1,0,-1
 119 1606 l 1,1,-1
 369 1606 l 1,2,-1
 369 2048 l 2,3,4
 369 2101 369 2101 370.5 2139.5 c 128,-1,5
 372 2178 372 2178 377 2238 c 128,-1,6
 382 2298 382 2298 393.5 2347 c 128,-1,7
 405 2396 405 2396 423.5 2456.5 c 128,-1,8
 442 2517 442 2517 472.5 2570 c 128,-1,9
 503 2623 503 2623 543 2678 c 128,-1,10
 583 2733 583 2733 641 2784 c 128,-1,11
 699 2835 699 2835 770 2879 c 0,12,13
 910 2966 910 2966 1110 2966 c 0,14,15
 1244 2966 1244 2966 1334.5 2926 c 128,-1,16
 1425 2886 1425 2886 1425 2818 c 0,17,18
 1425 2763 1425 2763 1347 2657.5 c 128,-1,19
 1269 2552 1269 2552 1212 2552 c 0,20,21
 1193 2552 1193 2552 1174.5 2577.5 c 128,-1,22
 1156 2603 1156 2603 1137.5 2639 c 128,-1,23
 1119 2675 1119 2675 1097 2711 c 128,-1,24
 1075 2747 1075 2747 1040 2772.5 c 128,-1,25
 1005 2798 1005 2798 963 2798 c 0,26,27
 903 2798 903 2798 854.5 2767.5 c 128,-1,28
 806 2737 806 2737 774.5 2690 c 128,-1,29
 743 2643 743 2643 719.5 2577 c 128,-1,30
 696 2511 696 2511 684 2451.5 c 128,-1,31
 672 2392 672 2392 665 2325 c 128,-1,32
 658 2258 658 2258 656.5 2219 c 128,-1,33
 655 2180 655 2180 655 2146 c 2,34,-1
 655 1606 l 1,35,-1
 1114 1606 l 1,36,-1
 1069 1409 l 1,37,-1
 655 1409 l 1,38,-1
 655 254 l 2,39,40
 655 230 655 230 655.5 216.5 c 128,-1,41
 656 203 656 203 660.5 188 c 128,-1,42
 665 173 665 173 670.5 166 c 128,-1,43
 676 159 676 159 690.5 151 c 128,-1,44
 705 143 705 143 721.5 140.5 c 128,-1,45
 738 138 738 138 767.5 135 c 128,-1,46
 797 132 797 132 830 131.5 c 128,-1,47
 863 131 863 131 913 131 c 2,48,-1
 971 131 l 1,49,-1
 967 0 l 1,50,-1
 115 0 l 1,51,-1
 111 131 l 1,52,-1
 197 131 l 2,53,54
 308 131 308 131 338.5 150 c 128,-1,55
 369 169 369 169 369 242 c 2,56,-1
 369 1409 l 1,57,-1
 70 1409 l 1,0,-1
EndSplineSet
Substitution2: "'smcp' Lowercase to Small Capitals in Latin lookup 12 subtable" f.sc
AlternateSubs2: "'aalt' Access All Alternates in Latin lookup 1 subtable" f.sc
AlternateSubs2: "'aalt' Access All Alternates lookup 0 subtable" f.sc
EndChar

StartChar: g
Encoding: 103 103 74
Width: 1826
GlyphClass: 2
Flags: W
LayerCount: 2
Fore
SplineSet
-33 -627 m 0,0,1
 -33 -543 -33 -543 -1.5 -467 c 128,-1,2
 30 -391 30 -391 80 -337.5 c 128,-1,3
 130 -284 130 -284 191 -239 c 128,-1,4
 252 -194 252 -194 313 -166 c 128,-1,5
 374 -138 374 -138 424 -118 c 128,-1,6
 474 -98 474 -98 506 -90 c 2,7,-1
 537 -82 l 1,8,9
 529 -81 529 -81 514.5 -79 c 128,-1,10
 500 -77 500 -77 458.5 -67.5 c 128,-1,11
 417 -58 417 -58 379.5 -46.5 c 128,-1,12
 342 -35 342 -35 296 -14 c 128,-1,13
 250 7 250 7 217 32 c 128,-1,14
 184 57 184 57 161.5 93.5 c 128,-1,15
 139 130 139 130 139 172 c 0,16,17
 139 215 139 215 160 255 c 128,-1,18
 181 295 181 295 214.5 323 c 128,-1,19
 248 351 248 351 289 375.5 c 128,-1,20
 330 400 330 400 370.5 415.5 c 128,-1,21
 411 431 411 431 444.5 442 c 128,-1,22
 478 453 478 453 499 458 c 2,23,-1
 520 463 l 1,24,25
 512 465 512 465 498 470.5 c 128,-1,26
 484 476 484 476 444 496.5 c 128,-1,27
 404 517 404 517 368 543 c 128,-1,28
 332 569 332 569 287.5 615.5 c 128,-1,29
 243 662 243 662 211 716 c 128,-1,30
 179 770 179 770 157 850 c 128,-1,31
 135 930 135 930 135 1020 c 0,32,33
 135 1143 135 1143 189 1258 c 128,-1,34
 243 1373 243 1373 332 1455.5 c 128,-1,35
 421 1538 421 1538 539.5 1588 c 128,-1,36
 658 1638 658 1638 782 1638 c 0,37,38
 877 1638 877 1638 949 1620.5 c 128,-1,39
 1021 1603 1021 1603 1066 1578.5 c 128,-1,40
 1111 1554 1111 1554 1152 1529.5 c 128,-1,41
 1193 1505 1193 1505 1250 1487.5 c 128,-1,42
 1307 1470 1307 1470 1380 1470 c 0,43,44
 1428 1470 1428 1470 1464.5 1476.5 c 128,-1,45
 1501 1483 1501 1483 1521.5 1492 c 128,-1,46
 1542 1501 1542 1501 1558.5 1517.5 c 128,-1,47
 1575 1534 1575 1534 1581.5 1546 c 128,-1,48
 1588 1558 1588 1558 1598 1579 c 128,-1,49
 1608 1600 1608 1600 1614 1610 c 1,50,-1
 1700 1610 l 1,51,-1
 1700 1507 l 2,52,53
 1700 1460 1700 1460 1699 1433.5 c 128,-1,54
 1698 1407 1698 1407 1695 1379.5 c 128,-1,55
 1692 1352 1692 1352 1684.5 1338.5 c 128,-1,56
 1677 1325 1677 1325 1666.5 1312.5 c 128,-1,57
 1656 1300 1656 1300 1636.5 1295.5 c 128,-1,58
 1617 1291 1617 1291 1594 1288.5 c 128,-1,59
 1571 1286 1571 1286 1536 1286 c 2,60,-1
 1470 1286 l 2,61,62
 1400 1286 1400 1286 1380 1284 c 128,-1,63
 1360 1282 1360 1282 1360 1274 c 0,64,65
 1360 1265 1360 1265 1374.5 1242.5 c 128,-1,66
 1389 1220 1389 1220 1407 1193 c 128,-1,67
 1425 1166 1425 1166 1439.5 1111.5 c 128,-1,68
 1454 1057 1454 1057 1454 991 c 0,69,70
 1454 879 1454 879 1404.5 776 c 128,-1,71
 1355 673 1355 673 1269 594.5 c 128,-1,72
 1183 516 1183 516 1055.5 469 c 128,-1,73
 928 422 928 422 782 422 c 0,74,75
 620 422 620 422 525 382 c 128,-1,76
 430 342 430 342 430 274 c 0,77,78
 430 259 430 259 433.5 246.5 c 128,-1,79
 437 234 437 234 445.5 224.5 c 128,-1,80
 454 215 454 215 462.5 207 c 128,-1,81
 471 199 471 199 486.5 194 c 128,-1,82
 502 189 502 189 513.5 185 c 128,-1,83
 525 181 525 181 546 178.5 c 128,-1,84
 567 176 567 176 580.5 174.5 c 128,-1,85
 594 173 594 173 618.5 172.5 c 128,-1,86
 643 172 643 172 656.5 172 c 128,-1,87
 670 172 670 172 696 172 c 2,88,-1
 713 172 l 2,89,90
 754 172 754 172 847 174 c 128,-1,91
 940 176 940 176 991 176 c 0,92,93
 1737 176 1737 176 1737 -283 c 0,94,95
 1737 -398 1737 -398 1686.5 -513 c 128,-1,96
 1636 -628 1636 -628 1538 -729 c 128,-1,97
 1440 -830 1440 -830 1308.5 -908 c 128,-1,98
 1177 -986 1177 -986 1002 -1031.5 c 128,-1,99
 827 -1077 827 -1077 635 -1077 c 0,100,101
 557 -1077 557 -1077 479 -1065 c 128,-1,102
 401 -1053 401 -1053 325.5 -1029.5 c 128,-1,103
 250 -1006 250 -1006 185.5 -968 c 128,-1,104
 121 -930 121 -930 72 -882 c 128,-1,105
 23 -834 23 -834 -5 -768 c 128,-1,106
 -33 -702 -33 -702 -33 -627 c 0,0,1
283 -578 m 0,107,108
 283 -714 283 -714 401.5 -801.5 c 128,-1,109
 520 -889 520 -889 758 -889 c 0,110,111
 857 -889 857 -889 954.5 -869.5 c 128,-1,112
 1052 -850 1052 -850 1141.5 -809.5 c 128,-1,113
 1231 -769 1231 -769 1299.5 -711.5 c 128,-1,114
 1368 -654 1368 -654 1409 -571.5 c 128,-1,115
 1450 -489 1450 -489 1450 -393 c 0,116,117
 1450 -330 1450 -330 1430.5 -281 c 128,-1,118
 1411 -232 1411 -232 1373.5 -199.5 c 128,-1,119
 1336 -167 1336 -167 1290 -145 c 128,-1,120
 1244 -123 1244 -123 1183 -111 c 128,-1,121
 1122 -99 1122 -99 1064.5 -94.5 c 128,-1,122
 1007 -90 1007 -90 938 -90 c 0,123,124
 795 -90 795 -90 669 -134.5 c 128,-1,125
 543 -179 543 -179 460.5 -249.5 c 128,-1,126
 378 -320 378 -320 330.5 -406.5 c 128,-1,127
 283 -493 283 -493 283 -578 c 0,107,108
475 1049 m 0,128,129
 475 929 475 929 505 831.5 c 128,-1,130
 535 734 535 734 584 673.5 c 128,-1,131
 633 613 633 613 692.5 581 c 128,-1,132
 752 549 752 549 815 549 c 0,133,134
 871 549 871 549 922.5 576 c 128,-1,135
 974 603 974 603 1015.5 654.5 c 128,-1,136
 1057 706 1057 706 1081.5 790 c 128,-1,137
 1106 874 1106 874 1106 979 c 0,138,139
 1106 1100 1106 1100 1077 1199 c 128,-1,140
 1048 1298 1048 1298 999.5 1359.5 c 128,-1,141
 951 1421 951 1421 892 1454 c 128,-1,142
 833 1487 833 1487 770 1487 c 0,143,144
 648 1487 648 1487 561.5 1371.5 c 128,-1,145
 475 1256 475 1256 475 1049 c 0,128,129
EndSplineSet
Substitution2: "'smcp' Lowercase to Small Capitals in Latin lookup 12 subtable" g.sc
AlternateSubs2: "'aalt' Access All Alternates in Latin lookup 1 subtable" g.sc
AlternateSubs2: "'aalt' Access All Alternates lookup 0 subtable" g.sc
EndChar

StartChar: h
Encoding: 104 104 75
Width: 1900
GlyphClass: 2
Flags: W
LayerCount: 2
Fore
SplineSet
74 131 m 1,0,-1
 119 131 l 2,1,2
 168 131 168 131 193 132 c 128,-1,3
 218 133 218 133 244.5 138 c 128,-1,4
 271 143 271 143 282 153 c 128,-1,5
 293 163 293 163 300 180.5 c 128,-1,6
 307 198 307 198 307 225 c 2,7,-1
 307 2658 l 2,8,9
 307 2729 307 2729 292 2755 c 128,-1,10
 277 2781 277 2781 242 2781 c 0,11,12
 221 2781 221 2781 74 2757 c 1,13,-1
 74 2900 l 1,14,15
 186 2911 186 2911 594 2974 c 1,16,-1
 594 1315 l 1,17,18
 600 1320 600 1320 638.5 1352 c 128,-1,19
 677 1384 677 1384 697 1399.5 c 128,-1,20
 717 1415 717 1415 761.5 1448 c 128,-1,21
 806 1481 806 1481 837.5 1499.5 c 128,-1,22
 869 1518 869 1518 917.5 1544 c 128,-1,23
 966 1570 966 1570 1007 1583.5 c 128,-1,24
 1048 1597 1048 1597 1098.5 1607.5 c 128,-1,25
 1149 1618 1149 1618 1196 1618 c 0,26,27
 1259 1618 1259 1618 1311 1605 c 128,-1,28
 1363 1592 1363 1592 1401 1572.5 c 128,-1,29
 1439 1553 1439 1553 1469 1518 c 128,-1,30
 1499 1483 1499 1483 1518.5 1450.5 c 128,-1,31
 1538 1418 1538 1418 1552 1366 c 128,-1,32
 1566 1314 1566 1314 1573 1274 c 128,-1,33
 1580 1234 1580 1234 1584 1171 c 128,-1,34
 1588 1108 1588 1108 1588.5 1066.5 c 128,-1,35
 1589 1025 1589 1025 1589 958 c 2,36,-1
 1589 250 l 2,37,38
 1589 218 1589 218 1590 202 c 128,-1,39
 1591 186 1591 186 1598 170 c 128,-1,40
 1605 154 1605 154 1613.5 148.5 c 128,-1,41
 1622 143 1622 143 1645 137.5 c 128,-1,42
 1668 132 1668 132 1693 131.5 c 128,-1,43
 1718 131 1718 131 1765 131 c 2,44,-1
 1831 131 l 1,45,-1
 1831 0 l 1,46,-1
 1044 0 l 1,47,-1
 1040 131 l 1,48,-1
 1106 131 l 2,49,50
 1229 131 1229 131 1266 150.5 c 128,-1,51
 1303 170 1303 170 1303 246 c 2,52,-1
 1303 1077 l 2,53,54
 1303 1147 1303 1147 1285.5 1202 c 128,-1,55
 1268 1257 1268 1257 1240.5 1291.5 c 128,-1,56
 1213 1326 1213 1326 1175.5 1348.5 c 128,-1,57
 1138 1371 1138 1371 1100.5 1380 c 128,-1,58
 1063 1389 1063 1389 1024 1389 c 0,59,60
 965 1389 965 1389 899.5 1368.5 c 128,-1,61
 834 1348 834 1348 782 1319 c 128,-1,62
 730 1290 730 1290 686 1261.5 c 128,-1,63
 642 1233 642 1233 618 1212 c 2,64,-1
 594 1192 l 1,65,-1
 594 225 l 2,66,67
 594 163 594 163 633 147 c 128,-1,68
 672 131 672 131 803 131 c 2,69,-1
 877 131 l 1,70,-1
 872 0 l 1,71,-1
 78 0 l 1,72,-1
 74 131 l 1,0,-1
EndSplineSet
Substitution2: "'smcp' Lowercase to Small Capitals in Latin lookup 12 subtable" h.sc
AlternateSubs2: "'aalt' Access All Alternates in Latin lookup 1 subtable" h.sc
AlternateSubs2: "'aalt' Access All Alternates lookup 0 subtable" h.sc
EndChar

StartChar: k
Encoding: 107 107 78
Width: 1933
GlyphClass: 2
Flags: W
LayerCount: 2
Fore
SplineSet
70 2863 m 1,0,1
 479 2944 479 2944 602 2970 c 1,2,-1
 602 819 l 1,3,-1
 1352 1430 l 2,4,5
 1380 1452 1380 1452 1380 1466 c 0,6,7
 1380 1495 1380 1495 1294 1495 c 2,8,-1
 1171 1495 l 1,9,-1
 1171 1606 l 1,10,-1
 1831 1606 l 1,11,-1
 1827 1495 l 1,12,-1
 1765 1495 l 2,13,14
 1701 1495 1701 1495 1656.5 1479 c 128,-1,15
 1612 1463 1612 1463 1540 1405 c 2,16,-1
 958 942 l 1,17,-1
 1569 229 l 2,18,19
 1581 215 1581 215 1600 191.5 c 128,-1,20
 1619 168 1619 168 1625 163 c 128,-1,21
 1631 158 1631 158 1643 147.5 c 128,-1,22
 1655 137 1655 137 1668.5 136 c 128,-1,23
 1682 135 1682 135 1701 133 c 128,-1,24
 1720 131 1720 131 1753 131 c 2,25,-1
 1864 131 l 1,26,-1
 1860 0 l 1,27,-1
 1376 0 l 1,28,-1
 737 786 l 1,29,-1
 594 676 l 1,30,-1
 594 233 l 2,31,32
 594 208 594 208 596 192.5 c 128,-1,33
 598 177 598 177 607.5 164.5 c 128,-1,34
 617 152 617 152 629.5 146.5 c 128,-1,35
 642 141 642 141 669 137 c 128,-1,36
 696 133 696 133 725.5 132 c 128,-1,37
 755 131 755 131 807 131 c 2,38,-1
 918 131 l 1,39,-1
 922 0 l 1,40,-1
 82 0 l 1,41,-1
 82 131 l 1,42,-1
 127 131 l 2,43,44
 167 131 167 131 189.5 131 c 128,-1,45
 212 131 212 131 235.5 133 c 128,-1,46
 259 135 259 135 269.5 136.5 c 128,-1,47
 280 138 280 138 291 144 c 128,-1,48
 302 150 302 150 305 154 c 128,-1,49
 308 158 308 158 311.5 171 c 128,-1,50
 315 184 315 184 315 192.5 c 128,-1,51
 315 201 315 201 315 221 c 2,52,-1
 315 2576 l 2,53,54
 315 2690 315 2690 304.5 2729.5 c 128,-1,55
 294 2769 294 2769 254 2769 c 0,56,57
 222 2769 222 2769 78 2732 c 1,58,-1
 70 2863 l 1,0,1
EndSplineSet
Substitution2: "'smcp' Lowercase to Small Capitals in Latin lookup 12 subtable" k.sc
AlternateSubs2: "'aalt' Access All Alternates in Latin lookup 1 subtable" k.sc
AlternateSubs2: "'aalt' Access All Alternates lookup 0 subtable" k.sc
EndChar

StartChar: l
Encoding: 108 108 79
Width: 1073
GlyphClass: 2
Flags: W
LayerCount: 2
Fore
SplineSet
70 2879 m 1,0,1
 419 2927 419 2927 672 2974 c 1,2,-1
 672 242 l 2,3,4
 672 168 672 168 719 149.5 c 128,-1,5
 766 131 766 131 934 131 c 2,6,-1
 1004 131 l 1,7,-1
 1004 0 l 1,8,-1
 111 0 l 1,9,-1
 111 131 l 1,10,-1
 201 131 l 2,11,12
 310 131 310 131 347.5 150.5 c 128,-1,13
 385 170 385 170 385 242 c 2,14,-1
 385 2576 l 2,15,16
 385 2707 385 2707 372.5 2744 c 128,-1,17
 360 2781 360 2781 311 2781 c 0,18,19
 278 2781 278 2781 78 2740 c 1,20,-1
 70 2879 l 1,0,1
EndSplineSet
Substitution2: "'smcp' Lowercase to Small Capitals in Latin lookup 12 subtable" l.sc
Substitution2: "'locl' Localized Forms in Latin lookup 2 subtable" l.CAT
AlternateSubs2: "'aalt' Access All Alternates in Latin lookup 1 subtable" l.sc l.CAT
AlternateSubs2: "'aalt' Access All Alternates lookup 0 subtable" l.sc
EndChar

StartChar: m
Encoding: 109 109 80
Width: 2830
GlyphClass: 2
Flags: W
LayerCount: 2
Fore
SplineSet
70 1409 m 1,0,-1
 70 1536 l 1,1,2
 148 1547 148 1547 291.5 1576 c 128,-1,3
 435 1605 435 1605 539 1628 c 2,4,-1
 643 1651 l 1,5,6
 635 1512 635 1512 635 1352 c 1,7,8
 648 1359 648 1359 693 1393 c 128,-1,9
 738 1427 738 1427 790.5 1462.5 c 128,-1,10
 843 1498 843 1498 909.5 1534.5 c 128,-1,11
 976 1571 976 1571 1056 1594.5 c 128,-1,12
 1136 1618 1136 1618 1212 1618 c 0,13,14
 1281 1618 1281 1618 1338.5 1592.5 c 128,-1,15
 1396 1567 1396 1567 1428.5 1535.5 c 128,-1,16
 1461 1504 1461 1504 1486.5 1460 c 128,-1,17
 1512 1416 1512 1416 1519.5 1395.5 c 128,-1,18
 1527 1375 1527 1375 1532 1356 c 1,19,20
 1599 1406 1599 1406 1650 1440.5 c 128,-1,21
 1701 1475 1701 1475 1782 1521.5 c 128,-1,22
 1863 1568 1863 1568 1944.5 1593 c 128,-1,23
 2026 1618 2026 1618 2101 1618 c 0,24,25
 2178 1618 2178 1618 2239 1599 c 128,-1,26
 2300 1580 2300 1580 2340.5 1550.5 c 128,-1,27
 2381 1521 2381 1521 2410.5 1475 c 128,-1,28
 2440 1429 2440 1429 2455.5 1385 c 128,-1,29
 2471 1341 2471 1341 2480.5 1282 c 128,-1,30
 2490 1223 2490 1223 2492 1178.5 c 128,-1,31
 2494 1134 2494 1134 2494 1077 c 2,32,-1
 2494 233 l 2,33,34
 2494 206 2494 206 2495.5 191 c 128,-1,35
 2497 176 2497 176 2507.5 163 c 128,-1,36
 2518 150 2518 150 2529.5 145 c 128,-1,37
 2541 140 2541 140 2571.5 136 c 128,-1,38
 2602 132 2602 132 2631.5 131.5 c 128,-1,39
 2661 131 2661 131 2720 131 c 2,40,-1
 2761 131 l 1,41,-1
 2761 0 l 1,42,-1
 1966 0 l 1,43,-1
 1966 131 l 1,44,45
 2133 131 2133 131 2170.5 144.5 c 128,-1,46
 2208 158 2208 158 2208 229 c 2,47,-1
 2208 1077 l 2,48,49
 2208 1173 2208 1173 2193 1234.5 c 128,-1,50
 2178 1296 2178 1296 2145 1330 c 128,-1,51
 2112 1364 2112 1364 2068.5 1376.5 c 128,-1,52
 2025 1389 2025 1389 1958 1389 c 0,53,54
 1888 1389 1888 1389 1820.5 1375 c 128,-1,55
 1753 1361 1753 1361 1706.5 1341 c 128,-1,56
 1660 1321 1660 1321 1623.5 1301 c 128,-1,57
 1587 1281 1587 1281 1570 1267 c 2,58,-1
 1552 1253 l 1,59,60
 1569 1126 1569 1126 1569 958 c 2,61,-1
 1569 201 l 2,62,63
 1569 183 1569 183 1570.5 173 c 128,-1,64
 1572 163 1572 163 1581 154 c 128,-1,65
 1590 145 1590 145 1600.5 141 c 128,-1,66
 1611 137 1611 137 1638 134.5 c 128,-1,67
 1665 132 1665 132 1693 131.5 c 128,-1,68
 1721 131 1721 131 1774 131 c 2,69,-1
 1810 131 l 1,70,-1
 1810 0 l 1,71,-1
 1032 0 l 1,72,-1
 1028 131 l 1,73,-1
 1077 131 l 2,74,75
 1204 131 1204 131 1243 142 c 128,-1,76
 1282 153 1282 153 1282 197 c 2,77,-1
 1282 1077 l 2,78,79
 1282 1234 1282 1234 1220.5 1311.5 c 128,-1,80
 1159 1389 1159 1389 1024 1389 c 0,81,82
 969 1389 969 1389 909.5 1375.5 c 128,-1,83
 850 1362 850 1362 804.5 1342.5 c 128,-1,84
 759 1323 759 1323 721 1303.5 c 128,-1,85
 683 1284 683 1284 663 1270 c 2,86,-1
 643 1257 l 1,87,-1
 643 221 l 2,88,89
 643 197 643 197 644 185.5 c 128,-1,90
 645 174 645 174 652.5 161.5 c 128,-1,91
 660 149 660 149 671 145 c 128,-1,92
 682 141 682 141 709.5 136.5 c 128,-1,93
 737 132 737 132 769.5 131.5 c 128,-1,94
 802 131 802 131 860 131 c 2,95,-1
 881 131 l 1,96,-1
 881 0 l 1,97,-1
 82 0 l 1,98,-1
 78 131 l 1,99,-1
 193 131 l 2,100,101
 295 131 295 131 325.5 146.5 c 128,-1,102
 356 162 356 162 356 221 c 2,103,-1
 356 1233 l 2,104,105
 356 1235 356 1235 356 1240 c 0,106,107
 356 1374 356 1374 346.5 1412 c 128,-1,108
 337 1450 337 1450 291 1450 c 0,109,110
 273 1450 273 1450 244 1444.5 c 128,-1,111
 215 1439 215 1439 163.5 1428 c 128,-1,112
 112 1417 112 1417 70 1409 c 1,0,-1
EndSplineSet
Substitution2: "'smcp' Lowercase to Small Capitals in Latin lookup 12 subtable" m.sc
AlternateSubs2: "'aalt' Access All Alternates in Latin lookup 1 subtable" m.sc
AlternateSubs2: "'aalt' Access All Alternates lookup 0 subtable" m.sc
EndChar

StartChar: n
Encoding: 110 110 81
Width: 1896
GlyphClass: 2
Flags: W
LayerCount: 2
Fore
SplineSet
70 131 m 1,0,-1
 111 131 l 2,1,2
 149 131 149 131 172 131 c 128,-1,3
 195 131 195 131 217.5 134.5 c 128,-1,4
 240 138 240 138 250.5 140 c 128,-1,5
 261 142 261 142 271.5 152 c 128,-1,6
 282 162 282 162 285.5 168 c 128,-1,7
 289 174 289 174 292 193.5 c 128,-1,8
 295 213 295 213 295 226 c 128,-1,9
 295 239 295 239 295 270 c 2,10,-1
 295 1245 l 2,11,12
 295 1376 295 1376 284.5 1413 c 128,-1,13
 274 1450 274 1450 233 1450 c 0,14,15
 221 1450 221 1450 209.5 1448 c 128,-1,16
 198 1446 198 1446 186 1443 c 128,-1,17
 174 1440 174 1440 143.5 1432.5 c 128,-1,18
 113 1425 113 1425 78 1417 c 1,19,-1
 78 1544 l 1,20,-1
 582 1647 l 1,21,22
 569 1488 569 1488 569 1356 c 1,23,24
 583 1362 583 1362 625.5 1393.5 c 128,-1,25
 668 1425 668 1425 722.5 1461 c 128,-1,26
 777 1497 777 1497 846 1533.5 c 128,-1,27
 915 1570 915 1570 1005.5 1594 c 128,-1,28
 1096 1618 1096 1618 1188 1618 c 0,29,30
 1268 1618 1268 1618 1330.5 1597 c 128,-1,31
 1393 1576 1393 1576 1433.5 1545.5 c 128,-1,32
 1474 1515 1474 1515 1502.5 1458.5 c 128,-1,33
 1531 1402 1531 1402 1545.5 1355.5 c 128,-1,34
 1560 1309 1560 1309 1567.5 1229 c 128,-1,35
 1575 1149 1575 1149 1576 1098.5 c 128,-1,36
 1577 1048 1577 1048 1577 958 c 2,37,-1
 1577 254 l 2,38,39
 1577 167 1577 167 1622.5 149 c 128,-1,40
 1668 131 1668 131 1827 131 c 1,41,-1
 1823 0 l 1,42,-1
 1061 0 l 1,43,-1
 1057 131 l 1,44,-1
 1151 131 l 2,45,46
 1190 131 1190 131 1210.5 133 c 128,-1,47
 1231 135 1231 135 1249 141 c 128,-1,48
 1267 147 1267 147 1274.5 161 c 128,-1,49
 1282 175 1282 175 1286 196.5 c 128,-1,50
 1290 218 1290 218 1290 254 c 2,51,-1
 1290 1077 l 2,52,53
 1290 1248 1290 1248 1227.5 1318.5 c 128,-1,54
 1165 1389 1165 1389 1024 1389 c 0,55,56
 969 1389 969 1389 903 1375.5 c 128,-1,57
 837 1362 837 1362 782.5 1342.5 c 128,-1,58
 728 1323 728 1323 681.5 1303.5 c 128,-1,59
 635 1284 635 1284 608 1270 c 2,60,-1
 582 1257 l 1,61,-1
 582 270 l 2,62,63
 582 240 582 240 582 227.5 c 128,-1,64
 582 215 582 215 586 195.5 c 128,-1,65
 590 176 590 176 594.5 170 c 128,-1,66
 599 164 599 164 612.5 153.5 c 128,-1,67
 626 143 626 143 641 141 c 128,-1,68
 656 139 656 139 685 135.5 c 128,-1,69
 714 132 714 132 745.5 131.5 c 128,-1,70
 777 131 777 131 827 131 c 2,71,-1
 881 131 l 1,72,-1
 872 0 l 1,73,-1
 74 0 l 1,74,-1
 70 131 l 1,0,-1
EndSplineSet
Substitution2: "'smcp' Lowercase to Small Capitals in Latin lookup 12 subtable" n.sc
AlternateSubs2: "'aalt' Access All Alternates in Latin lookup 1 subtable" n.sc
AlternateSubs2: "'aalt' Access All Alternates lookup 0 subtable" n.sc
EndChar

StartChar: o
Encoding: 111 111 82
Width: 1875
GlyphClass: 2
Flags: W
LayerCount: 2
Fore
SplineSet
102 799 m 0,0,1
 102 929 102 929 132 1050 c 128,-1,2
 162 1171 162 1171 226.5 1279.5 c 128,-1,3
 291 1388 291 1388 384.5 1468 c 128,-1,4
 478 1548 478 1548 614 1595 c 128,-1,5
 750 1642 750 1642 913 1642 c 0,6,7
 1056 1642 1056 1642 1177 1611.5 c 128,-1,8
 1298 1581 1298 1581 1385 1529.5 c 128,-1,9
 1472 1478 1472 1478 1540.5 1406 c 128,-1,10
 1609 1334 1609 1334 1652 1255 c 128,-1,11
 1695 1176 1695 1176 1723.5 1087 c 128,-1,12
 1752 998 1752 998 1763 917 c 128,-1,13
 1774 836 1774 836 1774 754 c 0,14,15
 1774 582 1774 582 1714 433 c 128,-1,16
 1654 284 1654 284 1545.5 174.5 c 128,-1,17
 1437 65 1437 65 1275.5 2 c 128,-1,18
 1114 -61 1114 -61 922 -61 c 0,19,20
 761 -61 761 -61 625 -11.5 c 128,-1,21
 489 38 489 38 394 122 c 128,-1,22
 299 206 299 206 232 317 c 128,-1,23
 165 428 165 428 133.5 550.5 c 128,-1,24
 102 673 102 673 102 799 c 0,0,1
430 897 m 0,25,26
 430 784 430 784 454 669.5 c 128,-1,27
 478 555 478 555 525.5 452.5 c 128,-1,28
 573 350 573 350 637.5 270.5 c 128,-1,29
 702 191 702 191 789.5 144.5 c 128,-1,30
 877 98 877 98 975 98 c 128,-1,31
 1073 98 1073 98 1151 135 c 128,-1,32
 1229 172 1229 172 1280.5 235 c 128,-1,33
 1332 298 1332 298 1366.5 384.5 c 128,-1,34
 1401 471 1401 471 1415.5 565.5 c 128,-1,35
 1430 660 1430 660 1430 766 c 0,36,37
 1430 946 1430 946 1385.5 1089.5 c 128,-1,38
 1341 1233 1341 1233 1264 1321.5 c 128,-1,39
 1187 1410 1187 1410 1088.5 1456.5 c 128,-1,40
 990 1503 990 1503 877 1503 c 0,41,42
 786 1503 786 1503 706.5 1464 c 128,-1,43
 627 1425 627 1425 564.5 1351 c 128,-1,44
 502 1277 502 1277 466 1160 c 128,-1,45
 430 1043 430 1043 430 897 c 0,25,26
EndSplineSet
Substitution2: "'smcp' Lowercase to Small Capitals in Latin lookup 12 subtable" o.sc
AlternateSubs2: "'aalt' Access All Alternates in Latin lookup 1 subtable" o.sc
AlternateSubs2: "'aalt' Access All Alternates lookup 0 subtable" o.sc
EndChar

StartChar: p
Encoding: 112 112 83
Width: 2011
GlyphClass: 2
Flags: W
LayerCount: 2
Fore
SplineSet
57 -930 m 1,0,1
 125 -930 125 -930 165 -929 c 128,-1,2
 205 -928 205 -928 240 -924 c 128,-1,3
 275 -920 275 -920 291 -914.5 c 128,-1,4
 307 -909 307 -909 319 -896.5 c 128,-1,5
 331 -884 331 -884 333.5 -869.5 c 128,-1,6
 336 -855 336 -855 336 -831 c 2,7,-1
 336 1307 l 2,8,9
 336 1421 336 1421 270 1421 c 0,10,11
 250 1421 250 1421 187.5 1404 c 128,-1,12
 125 1387 125 1387 86 1380 c 1,13,-1
 82 1511 l 1,14,15
 126 1519 126 1519 172.5 1529.5 c 128,-1,16
 219 1540 219 1540 281 1556 c 128,-1,17
 343 1572 343 1572 380.5 1582 c 128,-1,18
 418 1592 418 1592 503.5 1615 c 128,-1,19
 589 1638 589 1638 623 1647 c 1,20,-1
 623 1311 l 1,21,22
 635 1323 635 1323 657 1343.5 c 128,-1,23
 679 1364 679 1364 747.5 1416.5 c 128,-1,24
 816 1469 816 1469 884.5 1509 c 128,-1,25
 953 1549 953 1549 1049.5 1581.5 c 128,-1,26
 1146 1614 1146 1614 1233 1614 c 0,27,28
 1423 1614 1423 1614 1580 1505.5 c 128,-1,29
 1737 1397 1737 1397 1825 1215.5 c 128,-1,30
 1913 1034 1913 1034 1913 823 c 0,31,32
 1913 674 1913 674 1877 540.5 c 128,-1,33
 1841 407 1841 407 1772.5 300 c 128,-1,34
 1704 193 1704 193 1609.5 114.5 c 128,-1,35
 1515 36 1515 36 1392 -6.5 c 128,-1,36
 1269 -49 1269 -49 1130 -49 c 0,37,38
 1002 -49 1002 -49 875.5 -32 c 128,-1,39
 749 -15 749 -15 686 2 c 2,40,-1
 623 20 l 1,41,-1
 623 -827 l 2,42,43
 623 -897 623 -897 682 -913.5 c 128,-1,44
 741 -930 741 -930 946 -930 c 2,45,-1
 1008 -930 l 1,46,-1
 1004 -1061 l 1,47,-1
 61 -1061 l 1,48,-1
 57 -930 l 1,0,1
623 225 m 1,49,50
 631 219 631 219 647 210 c 128,-1,51
 663 201 663 201 714.5 177 c 128,-1,52
 766 153 766 153 820 134.5 c 128,-1,53
 874 116 874 116 956 101 c 128,-1,54
 1038 86 1038 86 1118 86 c 0,55,56
 1234 86 1234 86 1325.5 129 c 128,-1,57
 1417 172 1417 172 1471 236.5 c 128,-1,58
 1525 301 1525 301 1560.5 385.5 c 128,-1,59
 1596 470 1596 470 1609 545 c 128,-1,60
 1622 620 1622 620 1622 692 c 0,61,62
 1622 831 1622 831 1577 957 c 128,-1,63
 1532 1083 1532 1083 1455.5 1174 c 128,-1,64
 1379 1265 1379 1265 1273 1318.5 c 128,-1,65
 1167 1372 1167 1372 1049 1372 c 0,66,67
 1002 1372 1002 1372 956 1364 c 128,-1,68
 910 1356 910 1356 870.5 1340 c 128,-1,69
 831 1324 831 1324 799 1309 c 128,-1,70
 767 1294 767 1294 735 1271.5 c 128,-1,71
 703 1249 703 1249 686 1236 c 128,-1,72
 669 1223 669 1223 646.5 1204 c 128,-1,73
 624 1185 624 1185 623 1184 c 1,74,-1
 623 225 l 1,49,50
EndSplineSet
Substitution2: "'smcp' Lowercase to Small Capitals in Latin lookup 12 subtable" p.sc
AlternateSubs2: "'aalt' Access All Alternates in Latin lookup 1 subtable" p.sc
AlternateSubs2: "'aalt' Access All Alternates lookup 0 subtable" p.sc
EndChar

StartChar: q
Encoding: 113 113 84
Width: 1970
GlyphClass: 2
Flags: W
LayerCount: 2
Fore
SplineSet
98 754 m 0,0,1
 98 915 98 915 150 1057.5 c 128,-1,2
 202 1200 202 1200 291 1303.5 c 128,-1,3
 380 1407 380 1407 496 1483 c 128,-1,4
 612 1559 612 1559 742 1596.5 c 128,-1,5
 872 1634 872 1634 1004 1634 c 0,6,7
 1102 1634 1102 1634 1203.5 1611 c 128,-1,8
 1305 1588 1305 1588 1369.5 1560.5 c 128,-1,9
 1434 1533 1434 1533 1487 1510 c 128,-1,10
 1540 1487 1540 1487 1552 1487 c 0,11,12
 1576 1487 1576 1487 1594.5 1501 c 128,-1,13
 1613 1515 1613 1515 1622.5 1534.5 c 128,-1,14
 1632 1554 1632 1554 1638 1574 c 128,-1,15
 1644 1594 1644 1594 1646 1608 c 2,16,-1
 1647 1622 l 1,17,-1
 1729 1622 l 1,18,19
 1727 1579 1727 1579 1715 1389.5 c 128,-1,20
 1703 1200 1703 1200 1697.5 1008.5 c 128,-1,21
 1692 817 1692 817 1692 541 c 2,22,-1
 1692 -762 l 2,23,24
 1692 -798 1692 -798 1692 -815.5 c 128,-1,25
 1692 -833 1692 -833 1696 -855 c 128,-1,26
 1700 -877 1700 -877 1704.5 -885.5 c 128,-1,27
 1709 -894 1709 -894 1722 -905.5 c 128,-1,28
 1735 -917 1735 -917 1748 -919.5 c 128,-1,29
 1761 -922 1761 -922 1789 -926 c 128,-1,30
 1817 -930 1817 -930 1843.5 -930 c 128,-1,31
 1870 -930 1870 -930 1917 -930 c 2,32,-1
 1991 -930 l 1,33,-1
 1991 -1061 l 1,34,-1
 958 -1061 l 1,35,-1
 946 -930 l 1,36,-1
 1090 -930 l 2,37,38
 1282 -930 1282 -930 1343.5 -905 c 128,-1,39
 1405 -880 1405 -880 1405 -791 c 2,40,-1
 1405 238 l 1,41,42
 1385 223 1385 223 1336 186.5 c 128,-1,43
 1287 150 1287 150 1261.5 132 c 128,-1,44
 1236 114 1236 114 1190 84 c 128,-1,45
 1144 54 1144 54 1108 38 c 128,-1,46
 1072 22 1072 22 1025 4 c 128,-1,47
 978 -14 978 -14 929 -21.5 c 128,-1,48
 880 -29 880 -29 827 -29 c 0,49,50
 689 -29 689 -29 569.5 14.5 c 128,-1,51
 450 58 450 58 364.5 132.5 c 128,-1,52
 279 207 279 207 218 306.5 c 128,-1,53
 157 406 157 406 127.5 520 c 128,-1,54
 98 634 98 634 98 754 c 0,0,1
381 909 m 0,55,56
 381 774 381 774 435.5 646 c 128,-1,57
 490 518 490 518 577.5 426 c 128,-1,58
 665 334 665 334 779 277.5 c 128,-1,59
 893 221 893 221 1008 221 c 0,60,61
 1068 221 1068 221 1124 236.5 c 128,-1,62
 1180 252 1180 252 1219 273.5 c 128,-1,63
 1258 295 1258 295 1294 324 c 128,-1,64
 1330 353 1330 353 1349.5 375 c 128,-1,65
 1369 397 1369 397 1386.5 419 c 128,-1,66
 1404 441 1404 441 1405 442 c 1,67,-1
 1405 1331 l 1,68,69
 1396 1337 1396 1337 1381 1347.5 c 128,-1,70
 1366 1358 1366 1358 1317.5 1384 c 128,-1,71
 1269 1410 1269 1410 1220.5 1430 c 128,-1,72
 1172 1450 1172 1450 1103 1466.5 c 128,-1,73
 1034 1483 1034 1483 971 1483 c 0,74,75
 851 1483 851 1483 750 1445 c 128,-1,76
 649 1407 649 1407 582.5 1346 c 128,-1,77
 516 1285 516 1285 469 1208 c 128,-1,78
 422 1131 422 1131 401.5 1055 c 128,-1,79
 381 979 381 979 381 909 c 0,55,56
EndSplineSet
Substitution2: "'smcp' Lowercase to Small Capitals in Latin lookup 12 subtable" q.sc
AlternateSubs2: "'aalt' Access All Alternates in Latin lookup 1 subtable" q.sc
AlternateSubs2: "'aalt' Access All Alternates lookup 0 subtable" q.sc
EndChar

StartChar: r
Encoding: 114 114 85
Width: 1400
GlyphClass: 2
Flags: W
LayerCount: 2
Fore
SplineSet
70 1528 m 1,0,1
 105 1535 105 1535 147 1542.5 c 128,-1,2
 189 1550 189 1550 208 1553.5 c 128,-1,3
 227 1557 227 1557 282.5 1569.5 c 128,-1,4
 338 1582 338 1582 425.5 1603.5 c 128,-1,5
 513 1625 513 1625 668 1663 c 1,6,-1
 668 1200 l 2,7,8
 668 1201 668 1201 688 1236.5 c 128,-1,9
 708 1272 708 1272 734 1316 c 128,-1,10
 760 1360 760 1360 802.5 1414.5 c 128,-1,11
 845 1469 845 1469 889.5 1513.5 c 128,-1,12
 934 1558 934 1558 992 1588 c 128,-1,13
 1050 1618 1050 1618 1106 1618 c 0,14,15
 1154 1618 1154 1618 1195 1607.5 c 128,-1,16
 1236 1597 1236 1597 1260 1582 c 128,-1,17
 1284 1567 1284 1567 1301 1552 c 128,-1,18
 1318 1537 1318 1537 1324 1526 c 1,19,-1
 1331 1516 l 1,20,-1
 1176 1110 l 1,21,-1
 1110 1135 l 1,22,-1
 1110 1188 l 2,23,24
 1110 1236 1110 1236 1083.5 1259 c 128,-1,25
 1057 1282 1057 1282 1012 1282 c 0,26,27
 945 1282 945 1282 867.5 1243.5 c 128,-1,28
 790 1205 790 1205 733 1136 c 128,-1,29
 676 1067 676 1067 676 991 c 2,30,-1
 676 299 l 2,31,32
 676 257 676 257 678 233.5 c 128,-1,33
 680 210 680 210 690.5 188.5 c 128,-1,34
 701 167 701 167 715.5 157.5 c 128,-1,35
 730 148 730 148 762 141 c 128,-1,36
 794 134 794 134 831.5 132.5 c 128,-1,37
 869 131 869 131 934 131 c 2,38,-1
 1110 131 l 1,39,-1
 1110 0 l 1,40,-1
 131 0 l 1,41,-1
 131 131 l 1,42,-1
 209 131 l 2,43,44
 257 131 257 131 281.5 132 c 128,-1,45
 306 133 306 133 330 139.5 c 128,-1,46
 354 146 354 146 362.5 154.5 c 128,-1,47
 371 163 371 163 379 185 c 128,-1,48
 387 207 387 207 388 231 c 128,-1,49
 389 255 389 255 389 299 c 2,50,-1
 389 1298 l 2,51,52
 389 1385 389 1385 378.5 1415.5 c 128,-1,53
 368 1446 368 1446 332 1446 c 0,54,55
 315 1446 315 1446 275 1439 c 128,-1,56
 235 1432 235 1432 171.5 1419 c 128,-1,57
 108 1406 108 1406 82 1401 c 1,58,-1
 70 1528 l 1,0,1
EndSplineSet
Substitution2: "'smcp' Lowercase to Small Capitals in Latin lookup 12 subtable" r.sc
AlternateSubs2: "'aalt' Access All Alternates in Latin lookup 1 subtable" r.sc
AlternateSubs2: "'aalt' Access All Alternates lookup 0 subtable" r.sc
EndChar

StartChar: s
Encoding: 115 115 86
Width: 1421
GlyphClass: 2
Flags: W
LayerCount: 2
Fore
SplineSet
90 578 m 1,0,-1
 217 586 l 1,1,-1
 258 246 l 1,2,3
 267 239 267 239 283 228.5 c 128,-1,4
 299 218 299 218 349 190.5 c 128,-1,5
 399 163 399 163 450 142 c 128,-1,6
 501 121 501 121 572.5 103.5 c 128,-1,7
 644 86 644 86 709 86 c 0,8,9
 768 86 768 86 815 107 c 128,-1,10
 862 128 862 128 889.5 163 c 128,-1,11
 917 198 917 198 931.5 238 c 128,-1,12
 946 278 946 278 946 319 c 0,13,14
 946 363 946 363 930 404 c 128,-1,15
 914 445 914 445 891.5 475.5 c 128,-1,16
 869 506 869 506 827.5 541.5 c 128,-1,17
 786 577 786 577 753 600 c 128,-1,18
 720 623 720 623 664 659 c 1,19,-1
 516 758 l 2,20,21
 447 803 447 803 396 847.5 c 128,-1,22
 345 892 345 892 300.5 947.5 c 128,-1,23
 256 1003 256 1003 232.5 1069.5 c 128,-1,24
 209 1136 209 1136 209 1212 c 0,25,26
 209 1321 209 1321 274.5 1415.5 c 128,-1,27
 340 1510 340 1510 455.5 1566 c 128,-1,28
 571 1622 571 1622 709 1622 c 0,29,30
 799 1622 799 1622 878.5 1603.5 c 128,-1,31
 958 1585 958 1585 1005 1566.5 c 128,-1,32
 1052 1548 1052 1548 1065 1548 c 0,33,34
 1088 1548 1088 1548 1095 1574.5 c 128,-1,35
 1102 1601 1102 1601 1102 1671 c 1,36,-1
 1233 1667 l 1,37,-1
 1233 1049 l 1,38,-1
 1102 1049 l 1,39,-1
 1098 1339 l 1,40,41
 1093 1345 1093 1345 1082.5 1354 c 128,-1,42
 1072 1363 1072 1363 1035.5 1386.5 c 128,-1,43
 999 1410 999 1410 958 1428 c 128,-1,44
 917 1446 917 1446 850.5 1460.5 c 128,-1,45
 784 1475 784 1475 713 1475 c 0,46,47
 624 1475 624 1475 551.5 1417 c 128,-1,48
 479 1359 479 1359 479 1278 c 0,49,50
 479 1259 479 1259 482.5 1241 c 128,-1,51
 486 1223 486 1223 490 1209 c 128,-1,52
 494 1195 494 1195 505.5 1178.5 c 128,-1,53
 517 1162 517 1162 522.5 1152 c 128,-1,54
 528 1142 528 1142 546.5 1125 c 128,-1,55
 565 1108 565 1108 571.5 1101.5 c 128,-1,56
 578 1095 578 1095 602.5 1077 c 128,-1,57
 627 1059 627 1059 633.5 1054 c 128,-1,58
 640 1049 640 1049 669.5 1028.5 c 128,-1,59
 699 1008 699 1008 705 1004 c 2,60,-1
 889 881 l 2,61,62
 947 842 947 842 983.5 815 c 128,-1,63
 1020 788 1020 788 1067 749.5 c 128,-1,64
 1114 711 1114 711 1142.5 677 c 128,-1,65
 1171 643 1171 643 1197.5 600.5 c 128,-1,66
 1224 558 1224 558 1236.5 510.5 c 128,-1,67
 1249 463 1249 463 1249 410 c 0,68,69
 1249 318 1249 318 1215 235.5 c 128,-1,70
 1181 153 1181 153 1117 88 c 128,-1,71
 1053 23 1053 23 949.5 -15 c 128,-1,72
 846 -53 846 -53 717 -53 c 0,73,74
 634 -53 634 -53 541 -39.5 c 128,-1,75
 448 -26 448 -26 385.5 -13 c 128,-1,76
 323 0 323 0 315 0 c 0,77,78
 279 0 279 0 279 -53 c 0,79,80
 279 -58 279 -58 281 -72 c 128,-1,81
 283 -86 283 -86 283 -94 c 1,82,-1
 164 -102 l 1,83,-1
 90 578 l 1,0,-1
EndSplineSet
Substitution2: "'hist' Historical Forms in Latin lookup 14 subtable" longs
Substitution2: "'smcp' Lowercase to Small Capitals in Latin lookup 12 subtable" s.sc
AlternateSubs2: "'aalt' Access All Alternates in Latin lookup 1 subtable" longs s.sc
AlternateSubs2: "'aalt' Access All Alternates lookup 0 subtable" longs s.sc
EndChar

StartChar: t
Encoding: 116 116 87
Width: 1294
GlyphClass: 2
Flags: W
LayerCount: 2
Fore
SplineSet
90 1413 m 0,0,1
 90 1426 90 1426 123 1466 c 128,-1,2
 156 1506 156 1506 228 1583.5 c 128,-1,3
 300 1661 300 1661 324 1688 c 0,4,5
 370 1740 370 1740 438 1826.5 c 128,-1,6
 506 1913 506 1913 546.5 1962 c 128,-1,7
 587 2011 587 2011 598 2011 c 0,8,9
 623 2011 623 2011 623 1982 c 2,10,-1
 623 1577 l 1,11,-1
 1176 1577 l 1,12,-1
 1151 1380 l 1,13,-1
 623 1380 l 1,14,-1
 623 426 l 2,15,16
 623 359 623 359 647 309.5 c 128,-1,17
 671 260 671 260 711.5 234 c 128,-1,18
 752 208 752 208 798 196 c 128,-1,19
 844 184 844 184 897 184 c 0,20,21
 969 184 969 184 1038.5 203.5 c 128,-1,22
 1108 223 1108 223 1150 242.5 c 128,-1,23
 1192 262 1192 262 1196 262 c 0,24,25
 1225 262 1225 262 1225 221 c 0,26,27
 1225 167 1225 167 1148.5 104 c 128,-1,28
 1072 41 1072 41 956 -2 c 128,-1,29
 840 -45 840 -45 737 -45 c 0,30,31
 631 -45 631 -45 552 -11 c 128,-1,32
 473 23 473 23 427 84 c 128,-1,33
 381 145 381 145 358.5 222 c 128,-1,34
 336 299 336 299 336 393 c 2,35,-1
 336 1380 l 1,36,-1
 139 1380 l 2,37,38
 111 1380 111 1380 100.5 1387 c 128,-1,39
 90 1394 90 1394 90 1413 c 0,0,1
EndSplineSet
Substitution2: "'smcp' Lowercase to Small Capitals in Latin lookup 12 subtable" t.sc
AlternateSubs2: "'aalt' Access All Alternates in Latin lookup 1 subtable" t.sc
AlternateSubs2: "'aalt' Access All Alternates lookup 0 subtable" t.sc
EndChar

StartChar: u
Encoding: 117 117 88
Width: 1892
GlyphClass: 2
Flags: W
LayerCount: 2
Fore
SplineSet
70 1462 m 1,0,-1
 70 1585 l 1,1,2
 386 1614 386 1614 569 1647 c 1,3,-1
 569 623 l 2,4,5
 569 541 569 541 574.5 484.5 c 128,-1,6
 580 428 580 428 600.5 368.5 c 128,-1,7
 621 309 621 309 656.5 273.5 c 128,-1,8
 692 238 692 238 755.5 215.5 c 128,-1,9
 819 193 819 193 909 193 c 0,10,11
 986 193 986 193 1052 209 c 128,-1,12
 1118 225 1118 225 1158 247.5 c 128,-1,13
 1198 270 1198 270 1226.5 293 c 128,-1,14
 1255 316 1255 316 1266 332 c 2,15,-1
 1278 348 l 1,16,-1
 1278 1348 l 2,17,18
 1278 1425 1278 1425 1259.5 1447.5 c 128,-1,19
 1241 1470 1241 1470 1196 1470 c 0,20,21
 1170 1470 1170 1470 1126.5 1466 c 128,-1,22
 1083 1462 1083 1462 1050.5 1457 c 128,-1,23
 1018 1452 1018 1452 1016 1450 c 1,24,-1
 1004 1577 l 1,25,26
 1232 1592 1232 1592 1565 1647 c 1,27,-1
 1565 455 l 2,28,29
 1565 376 1565 376 1566 325.5 c 128,-1,30
 1567 275 1567 275 1570.5 236.5 c 128,-1,31
 1574 198 1574 198 1578.5 179 c 128,-1,32
 1583 160 1583 160 1592.5 148 c 128,-1,33
 1602 136 1602 136 1611.5 133.5 c 128,-1,34
 1621 131 1621 131 1638 131 c 0,35,36
 1668 131 1668 131 1823 176 c 1,37,-1
 1823 45 l 1,38,39
 1760 32 1760 32 1691 15 c 128,-1,40
 1622 -2 1622 -2 1574 -15 c 128,-1,41
 1526 -28 1526 -28 1445 -51 c 128,-1,42
 1364 -74 1364 -74 1319 -86 c 1,43,44
 1313 60 1313 60 1290 205 c 1,45,46
 1280 194 1280 194 1262 176 c 128,-1,47
 1244 158 1244 158 1186.5 112.5 c 128,-1,48
 1129 67 1129 67 1070.5 31.5 c 128,-1,49
 1012 -4 1012 -4 928 -32.5 c 128,-1,50
 844 -61 844 -61 766 -61 c 0,51,52
 680 -61 680 -61 610 -42.5 c 128,-1,53
 540 -24 540 -24 490.5 8 c 128,-1,54
 441 40 441 40 404 87.5 c 128,-1,55
 367 135 367 135 344 187.5 c 128,-1,56
 321 240 321 240 307 305.5 c 128,-1,57
 293 371 293 371 288 432 c 128,-1,58
 283 493 283 493 283 565 c 2,59,-1
 283 1372 l 2,60,61
 283 1434 283 1434 266 1454.5 c 128,-1,62
 249 1475 249 1475 205 1475 c 0,63,64
 187 1475 187 1475 141.5 1469.5 c 128,-1,65
 96 1464 96 1464 70 1462 c 1,0,-1
EndSplineSet
Substitution2: "'smcp' Lowercase to Small Capitals in Latin lookup 12 subtable" u.sc
AlternateSubs2: "'aalt' Access All Alternates in Latin lookup 1 subtable" u.sc
AlternateSubs2: "'aalt' Access All Alternates lookup 0 subtable" u.sc
EndChar

StartChar: v
Encoding: 118 118 89
Width: 1888
GlyphClass: 2
Flags: W
LayerCount: 2
Fore
SplineSet
70 1475 m 1,0,-1
 70 1606 l 1,1,-1
 807 1606 l 1,2,-1
 803 1475 l 1,3,-1
 745 1475 l 2,4,5
 669 1475 669 1475 637.5 1464.5 c 128,-1,6
 606 1454 606 1454 606 1417 c 0,7,8
 606 1389 606 1389 651 1274 c 1,9,-1
 1016 406 l 1,10,11
 1070 536 1070 536 1127.5 666 c 128,-1,12
 1185 796 1185 796 1219 869 c 128,-1,13
 1253 942 1253 942 1302.5 1048 c 128,-1,14
 1352 1154 1352 1154 1364 1180 c 0,15,16
 1408 1276 1408 1276 1427 1327.5 c 128,-1,17
 1446 1379 1446 1379 1446 1413 c 0,18,19
 1446 1455 1446 1455 1409 1465 c 128,-1,20
 1372 1475 1372 1475 1266 1475 c 2,21,-1
 1253 1475 l 1,22,-1
 1253 1606 l 1,23,-1
 1819 1606 l 1,24,-1
 1819 1475 l 1,25,-1
 1794 1475 l 2,26,27
 1753 1475 1753 1475 1728 1467 c 128,-1,28
 1703 1459 1703 1459 1679.5 1441 c 128,-1,29
 1656 1423 1656 1423 1629.5 1374 c 128,-1,30
 1603 1325 1603 1325 1574.5 1265.5 c 128,-1,31
 1546 1206 1546 1206 1495 1092 c 0,32,33
 1466 1027 1466 1027 1450 991 c 2,34,-1
 971 -74 l 1,35,-1
 913 -70 l 1,36,-1
 336 1253 l 2,37,38
 309 1313 309 1313 295 1344 c 128,-1,39
 281 1375 281 1375 260.5 1404.5 c 128,-1,40
 240 1434 240 1434 228 1444.5 c 128,-1,41
 216 1455 216 1455 189 1464 c 128,-1,42
 162 1473 162 1473 139 1474 c 128,-1,43
 116 1475 116 1475 70 1475 c 1,0,-1
EndSplineSet
Substitution2: "'smcp' Lowercase to Small Capitals in Latin lookup 12 subtable" v.sc
AlternateSubs2: "'aalt' Access All Alternates in Latin lookup 1 subtable" v.sc
AlternateSubs2: "'aalt' Access All Alternates lookup 0 subtable" v.sc
EndChar

StartChar: w
Encoding: 119 119 90
Width: 3231
GlyphClass: 2
Flags: W
LayerCount: 2
Fore
SplineSet
70 1475 m 1,0,-1
 70 1606 l 1,1,-1
 930 1606 l 1,2,-1
 926 1475 l 1,3,-1
 803 1475 l 2,4,5
 744 1475 744 1475 712 1461 c 128,-1,6
 680 1447 680 1447 680 1405 c 0,7,8
 680 1374 680 1374 721 1274 c 1,9,-1
 1102 385 l 1,10,-1
 1536 1331 l 1,11,12
 1498 1422 1498 1422 1455 1448.5 c 128,-1,13
 1412 1475 1412 1475 1323 1475 c 2,14,-1
 1171 1475 l 1,15,-1
 1163 1606 l 1,16,-1
 2048 1606 l 1,17,-1
 2048 1475 l 1,18,19
 1981 1475 1981 1475 1945.5 1473.5 c 128,-1,20
 1910 1472 1910 1472 1880.5 1465.5 c 128,-1,21
 1851 1459 1851 1459 1841 1446.5 c 128,-1,22
 1831 1434 1831 1434 1831 1413 c 128,-1,23
 1831 1392 1831 1392 1868 1294 c 1,24,-1
 2249 389 l 1,25,-1
 2687 1315 l 1,26,27
 2720 1389 2720 1389 2720 1417 c 0,28,29
 2720 1450 2720 1450 2681 1462.5 c 128,-1,30
 2642 1475 2642 1475 2540 1475 c 2,31,-1
 2433 1475 l 1,32,-1
 2433 1606 l 1,33,-1
 3158 1606 l 1,34,-1
 3162 1475 l 1,35,36
 3123 1475 3123 1475 3102 1474 c 128,-1,37
 3081 1473 3081 1473 3049.5 1469.5 c 128,-1,38
 3018 1466 3018 1466 2998.5 1457.5 c 128,-1,39
 2979 1449 2979 1449 2955.5 1434.5 c 128,-1,40
 2932 1420 2932 1420 2913.5 1396 c 128,-1,41
 2895 1372 2895 1372 2879 1339 c 2,42,-1
 2200 -70 l 1,43,-1
 2109 -66 l 1,44,-1
 1614 1155 l 1,45,-1
 1061 -74 l 1,46,-1
 975 -70 l 1,47,-1
 406 1253 l 2,48,49
 351 1381 351 1381 337 1405 c 0,50,51
 308 1453 308 1453 258 1465 c 0,52,53
 218 1475 218 1475 70 1475 c 1,0,-1
EndSplineSet
Substitution2: "'smcp' Lowercase to Small Capitals in Latin lookup 12 subtable" w.sc
AlternateSubs2: "'aalt' Access All Alternates in Latin lookup 1 subtable" w.sc
AlternateSubs2: "'aalt' Access All Alternates lookup 0 subtable" w.sc
EndChar

StartChar: x
Encoding: 120 120 91
Width: 2134
GlyphClass: 2
Flags: W
LayerCount: 2
Fore
SplineSet
70 0 m 1,0,-1
 74 131 l 1,1,-1
 106 131 l 2,2,3
 148 131 148 131 172.5 133 c 128,-1,4
 197 135 197 135 226.5 142 c 128,-1,5
 256 149 256 149 281 164.5 c 128,-1,6
 306 180 306 180 337.5 205 c 128,-1,7
 369 230 369 230 410 270 c 2,8,-1
 926 786 l 1,9,-1
 397 1348 l 2,10,11
 364 1383 364 1383 357 1390 c 128,-1,12
 350 1397 350 1397 324.5 1419.5 c 128,-1,13
 299 1442 299 1442 286.5 1446.5 c 128,-1,14
 274 1451 274 1451 247 1461 c 128,-1,15
 220 1471 220 1471 191.5 1473 c 128,-1,16
 163 1475 163 1475 123 1475 c 1,17,-1
 123 1606 l 1,18,-1
 1012 1606 l 1,19,-1
 1012 1475 l 1,20,-1
 930 1475 l 2,21,22
 828 1475 828 1475 782.5 1466.5 c 128,-1,23
 737 1458 737 1458 737 1430 c 0,24,25
 737 1405 737 1405 782 1348 c 1,26,-1
 1102 979 l 1,27,-1
 1430 1323 l 1,28,29
 1507 1406 1507 1406 1507 1434 c 0,30,31
 1507 1475 1507 1475 1323 1475 c 1,32,-1
 1323 1606 l 1,33,-1
 2044 1606 l 1,34,-1
 2044 1475 l 1,35,36
 1988 1475 1988 1475 1962.5 1475 c 128,-1,37
 1937 1475 1937 1475 1900.5 1472.5 c 128,-1,38
 1864 1470 1864 1470 1851.5 1468.5 c 128,-1,39
 1839 1467 1839 1467 1813.5 1458 c 128,-1,40
 1788 1449 1788 1449 1780 1443.5 c 128,-1,41
 1772 1438 1772 1438 1748.5 1420 c 128,-1,42
 1725 1402 1725 1402 1713 1389.5 c 128,-1,43
 1701 1377 1701 1377 1671 1347 c 0,44,45
 1666 1342 1666 1342 1663 1339 c 2,46,-1
 1200 881 l 1,47,-1
 1769 279 l 2,48,49
 1779 268 1779 268 1798 249 c 0,50,51
 1831 214 1831 214 1845 200 c 128,-1,52
 1859 186 1859 186 1881.5 168.5 c 128,-1,53
 1904 151 1904 151 1913.5 147 c 128,-1,54
 1923 143 1923 143 1947 137 c 128,-1,55
 1971 131 1971 131 1990 131 c 128,-1,56
 2009 131 2009 131 2048 131 c 2,57,-1
 2060 131 l 1,58,-1
 2060 0 l 1,59,-1
 1233 0 l 1,60,-1
 1233 131 l 1,61,62
 1349 131 1349 131 1395.5 142.5 c 128,-1,63
 1442 154 1442 154 1442 180 c 0,64,65
 1442 188 1442 188 1437.5 198 c 128,-1,66
 1433 208 1433 208 1423 220.5 c 128,-1,67
 1413 233 1413 233 1405 242 c 128,-1,68
 1397 251 1397 251 1382 267 c 128,-1,69
 1367 283 1367 283 1360 291 c 2,70,-1
 1020 688 l 1,71,-1
 610 254 l 1,72,73
 557 195 557 195 557 172 c 0,74,75
 557 146 557 146 602.5 138.5 c 128,-1,76
 648 131 648 131 750 131 c 2,77,-1
 848 131 l 1,78,-1
 848 0 l 1,79,-1
 70 0 l 1,0,-1
EndSplineSet
Substitution2: "'smcp' Lowercase to Small Capitals in Latin lookup 12 subtable" x.sc
AlternateSubs2: "'aalt' Access All Alternates in Latin lookup 1 subtable" x.sc
AlternateSubs2: "'aalt' Access All Alternates lookup 0 subtable" x.sc
EndChar

StartChar: y
Encoding: 121 121 92
Width: 1921
GlyphClass: 2
Flags: W
LayerCount: 2
Fore
SplineSet
29 -877 m 0,0,1
 29 -790 29 -790 72 -747.5 c 128,-1,2
 115 -705 115 -705 184 -705 c 0,3,4
 192 -705 192 -705 238.5 -709 c 128,-1,5
 285 -713 285 -713 303 -713 c 0,6,7
 368 -713 368 -713 471 -573.5 c 128,-1,8
 574 -434 574 -434 754 -86 c 2,9,-1
 877 152 l 1,10,-1
 365 1253 l 2,11,12
 354 1278 354 1278 336.5 1316 c 128,-1,13
 319 1354 319 1354 314 1367.5 c 128,-1,14
 309 1381 309 1381 294.5 1404.5 c 128,-1,15
 280 1428 280 1428 275 1433.5 c 128,-1,16
 270 1439 270 1439 253 1451.5 c 128,-1,17
 236 1464 236 1464 225 1465.5 c 128,-1,18
 214 1467 214 1467 188.5 1471 c 128,-1,19
 163 1475 163 1475 140.5 1475 c 128,-1,20
 118 1475 118 1475 78 1475 c 1,21,-1
 70 1606 l 1,22,-1
 852 1606 l 1,23,-1
 844 1475 l 1,24,-1
 774 1475 l 2,25,26
 695 1475 695 1475 663 1464.5 c 128,-1,27
 631 1454 631 1454 631 1417 c 0,28,29
 631 1404 631 1404 636.5 1384.5 c 128,-1,30
 642 1365 642 1365 647.5 1351 c 128,-1,31
 653 1337 653 1337 664.5 1310.5 c 128,-1,32
 676 1284 676 1284 680 1274 c 2,33,-1
 1028 492 l 1,34,-1
 1286 1073 l 1,35,36
 1421 1371 1421 1371 1421 1417 c 0,37,38
 1421 1454 1421 1454 1383 1464.5 c 128,-1,39
 1345 1475 1345 1475 1241 1475 c 2,40,-1
 1184 1475 l 1,41,-1
 1184 1606 l 1,42,-1
 1851 1606 l 1,43,-1
 1851 1475 l 1,44,-1
 1753 1475 l 2,45,46
 1728 1475 1728 1475 1711 1474.5 c 128,-1,47
 1694 1474 1694 1474 1677.5 1469 c 128,-1,48
 1661 1464 1661 1464 1651.5 1462 c 128,-1,49
 1642 1460 1642 1460 1630 1447 c 128,-1,50
 1618 1434 1618 1434 1612.5 1428 c 128,-1,51
 1607 1422 1607 1422 1595.5 1399 c 128,-1,52
 1584 1376 1584 1376 1578.5 1363 c 128,-1,53
 1573 1350 1573 1350 1557.5 1314.5 c 128,-1,54
 1542 1279 1542 1279 1532 1257 c 2,55,-1
 909 -119 l 2,56,57
 821 -313 821 -313 743.5 -463.5 c 128,-1,58
 666 -614 666 -614 608 -712.5 c 128,-1,59
 550 -811 550 -811 494.5 -879.5 c 128,-1,60
 439 -948 439 -948 402.5 -983 c 128,-1,61
 366 -1018 366 -1018 323 -1036.5 c 128,-1,62
 280 -1055 280 -1055 256 -1058 c 128,-1,63
 232 -1061 232 -1061 193 -1061 c 0,64,65
 118 -1061 118 -1061 73.5 -1008.5 c 128,-1,66
 29 -956 29 -956 29 -877 c 0,0,1
EndSplineSet
Substitution2: "'smcp' Lowercase to Small Capitals in Latin lookup 12 subtable" y.sc
AlternateSubs2: "'aalt' Access All Alternates in Latin lookup 1 subtable" y.sc
AlternateSubs2: "'aalt' Access All Alternates lookup 0 subtable" y.sc
EndChar

StartChar: z
Encoding: 122 122 93
Width: 1802
GlyphClass: 2
Flags: W
LayerCount: 2
Fore
SplineSet
98 41 m 0,0,1
 98 49 98 49 101 57.5 c 128,-1,2
 104 66 104 66 111 77 c 128,-1,3
 118 88 118 88 125 97 c 128,-1,4
 132 106 132 106 144 119.5 c 128,-1,5
 156 133 156 133 165 142.5 c 128,-1,6
 174 152 174 152 189 168 c 128,-1,7
 204 184 204 184 213 193 c 2,8,-1
 1274 1339 l 1,9,-1
 438 1339 l 2,10,11
 389 1339 389 1339 369 1336 c 128,-1,12
 349 1333 349 1333 328 1322 c 128,-1,13
 307 1311 307 1311 300 1281.5 c 128,-1,14
 293 1252 293 1252 284.5 1207.5 c 128,-1,15
 276 1163 276 1163 266 1084 c 0,16,17
 266 1082 266 1082 266 1081 c 2,18,-1
 160 1085 l 1,19,-1
 225 1667 l 1,20,-1
 328 1667 l 1,21,22
 328 1664 328 1664 328 1658 c 0,23,24
 328 1610 328 1610 337 1599 c 1,25,26
 353 1585 353 1585 418 1585 c 2,27,-1
 1520 1585 l 2,28,29
 1600 1585 1600 1585 1629.5 1578.5 c 128,-1,30
 1659 1572 1659 1572 1659 1556 c 0,31,32
 1659 1543 1659 1543 1641.5 1523.5 c 128,-1,33
 1624 1504 1624 1504 1580.5 1461.5 c 128,-1,34
 1537 1419 1537 1419 1503 1380 c 1,35,-1
 467 250 l 1,36,-1
 1343 250 l 2,37,38
 1374 250 1374 250 1391 251 c 128,-1,39
 1408 252 1408 252 1428 258 c 128,-1,40
 1448 264 1448 264 1457 272 c 128,-1,41
 1466 280 1466 280 1478 301 c 128,-1,42
 1490 322 1490 322 1495 344.5 c 128,-1,43
 1500 367 1500 367 1507 410.5 c 128,-1,44
 1514 454 1514 454 1518 499.5 c 128,-1,45
 1522 545 1522 545 1528 618 c 1,46,-1
 1663 618 l 1,47,48
 1660 559 1660 559 1643.5 358 c 128,-1,49
 1627 157 1627 157 1618 0 c 1,50,-1
 217 0 l 2,51,52
 182 0 182 0 166 0.5 c 128,-1,53
 150 1 150 1 131 5 c 128,-1,54
 112 9 112 9 105 17.5 c 128,-1,55
 98 26 98 26 98 41 c 0,0,1
EndSplineSet
Substitution2: "'smcp' Lowercase to Small Capitals in Latin lookup 12 subtable" z.sc
AlternateSubs2: "'aalt' Access All Alternates in Latin lookup 1 subtable" z.sc
AlternateSubs2: "'aalt' Access All Alternates lookup 0 subtable" z.sc
EndChar

StartChar: braceleft
Encoding: 123 123 94
Width: 1150
GlyphClass: 2
Flags: W
LayerCount: 2
Fore
SplineSet
70 942 m 1,0,-1
 70 1020 l 1,1,2
 84 1023 84 1023 113 1028 c 0,3,4
 177 1040 177 1040 208.5 1049 c 128,-1,5
 240 1058 240 1058 286.5 1090.5 c 128,-1,6
 333 1123 333 1123 354.5 1175 c 128,-1,7
 376 1227 376 1227 393 1324.5 c 128,-1,8
 410 1422 410 1422 410 1561 c 0,9,10
 410 1630 410 1630 403.5 1796.5 c 128,-1,11
 397 1963 397 1963 397 2060 c 0,12,13
 397 2198 397 2198 419.5 2318 c 128,-1,14
 442 2438 442 2438 493 2545 c 128,-1,15
 544 2652 544 2652 622 2728 c 128,-1,16
 700 2804 700 2804 817 2848 c 128,-1,17
 934 2892 934 2892 1081 2892 c 1,18,-1
 1081 2773 l 1,19,20
 1017 2773 1017 2773 963 2760 c 128,-1,21
 909 2747 909 2747 869 2725.5 c 128,-1,22
 829 2704 829 2704 797 2669 c 128,-1,23
 765 2634 765 2634 743 2597 c 128,-1,24
 721 2560 721 2560 705.5 2509.5 c 128,-1,25
 690 2459 690 2459 681 2413 c 128,-1,26
 672 2367 672 2367 667 2307 c 128,-1,27
 662 2247 662 2247 660.5 2198 c 128,-1,28
 659 2149 659 2149 659 2085 c 0,29,30
 659 1967 659 1967 669.5 1773 c 128,-1,31
 680 1579 680 1579 680 1495 c 0,32,33
 680 1285 680 1285 617.5 1162.5 c 128,-1,34
 555 1040 555 1040 406 983 c 1,35,36
 506 945 506 945 567 871.5 c 128,-1,37
 628 798 628 798 652 701 c 128,-1,38
 676 604 676 604 676 467 c 0,39,40
 676 385 676 385 667.5 192.5 c 128,-1,41
 659 0 659 0 659 -119 c 0,42,43
 659 -205 659 -205 661.5 -266.5 c 128,-1,44
 664 -328 664 -328 673.5 -407 c 128,-1,45
 683 -486 683 -486 700 -541.5 c 128,-1,46
 717 -597 717 -597 748.5 -654.5 c 128,-1,47
 780 -712 780 -712 823.5 -747 c 128,-1,48
 867 -782 867 -782 932.5 -804.5 c 128,-1,49
 998 -827 998 -827 1081 -827 c 1,50,-1
 1081 -946 l 1,51,52
 932 -946 932 -946 815 -904.5 c 128,-1,53
 698 -863 698 -863 620 -789.5 c 128,-1,54
 542 -716 542 -716 491.5 -608.5 c 128,-1,55
 441 -501 441 -501 419 -375.5 c 128,-1,56
 397 -250 397 -250 397 -98 c 0,57,58
 397 -5 397 -5 405.5 161.5 c 128,-1,59
 414 328 414 328 414 401 c 0,60,61
 414 480 414 480 408.5 545.5 c 128,-1,62
 403 611 403 611 394.5 660 c 128,-1,63
 386 709 386 709 370.5 748 c 128,-1,64
 355 787 355 787 340.5 813 c 128,-1,65
 326 839 326 839 303 859 c 128,-1,66
 280 879 280 879 262.5 890 c 128,-1,67
 245 901 245 901 216.5 910 c 128,-1,68
 188 919 188 919 169.5 923 c 128,-1,69
 151 927 151 927 119.5 932.5 c 128,-1,70
 88 938 88 938 70 942 c 1,0,-1
EndSplineSet
Position2: "'case' Case-Sensitive Forms in Latin lookup 0 subtable" dx=0 dy=205 dh=0 dv=0
EndChar

StartChar: bar
Encoding: 124 124 95
Width: 901
GlyphClass: 2
Flags: W
LayerCount: 2
Fore
SplineSet
360 -946 m 1,0,-1
 360 2892 l 1,1,-1
 541 2892 l 1,2,-1
 541 -946 l 1,3,-1
 360 -946 l 1,0,-1
EndSplineSet
Position2: "'case' Case-Sensitive Forms in Latin lookup 0 subtable" dx=0 dy=205 dh=0 dv=0
EndChar

StartChar: braceright
Encoding: 125 125 96
Width: 1150
GlyphClass: 2
Flags: W
LayerCount: 2
Fore
SplineSet
70 -827 m 1,0,1
 153 -827 153 -827 218.5 -804.5 c 128,-1,2
 284 -782 284 -782 328 -747 c 128,-1,3
 372 -712 372 -712 404 -654.5 c 128,-1,4
 436 -597 436 -597 453.5 -541 c 128,-1,5
 471 -485 471 -485 481 -407 c 128,-1,6
 491 -329 491 -329 493.5 -266 c 128,-1,7
 496 -203 496 -203 496 -119 c 0,8,9
 496 0 496 0 485.5 192.5 c 128,-1,10
 475 385 475 385 475 467 c 0,11,12
 475 672 475 672 538.5 799.5 c 128,-1,13
 602 927 602 927 750 983 c 1,14,15
 600 1040 600 1040 537.5 1163 c 128,-1,16
 475 1286 475 1286 475 1495 c 0,17,18
 475 1579 475 1579 483.5 1773 c 128,-1,19
 492 1967 492 1967 492 2085 c 0,20,21
 492 2149 492 2149 490.5 2198 c 128,-1,22
 489 2247 489 2247 484 2307 c 128,-1,23
 479 2367 479 2367 470 2413 c 128,-1,24
 461 2459 461 2459 445.5 2509.5 c 128,-1,25
 430 2560 430 2560 408 2597 c 128,-1,26
 386 2634 386 2634 354 2669 c 128,-1,27
 322 2704 322 2704 282 2725.5 c 128,-1,28
 242 2747 242 2747 188 2760 c 128,-1,29
 134 2773 134 2773 70 2773 c 1,30,-1
 70 2892 l 1,31,32
 217 2892 217 2892 334.5 2848 c 128,-1,33
 452 2804 452 2804 530.5 2728 c 128,-1,34
 609 2652 609 2652 661 2545 c 128,-1,35
 713 2438 713 2438 735.5 2318 c 128,-1,36
 758 2198 758 2198 758 2060 c 0,37,38
 758 1963 758 1963 749.5 1796.5 c 128,-1,39
 741 1630 741 1630 741 1561 c 0,40,41
 741 1482 741 1482 746 1417.5 c 128,-1,42
 751 1353 751 1353 759 1304 c 128,-1,43
 767 1255 767 1255 782 1216.5 c 128,-1,44
 797 1178 797 1178 810.5 1151.5 c 128,-1,45
 824 1125 824 1125 847 1104.5 c 128,-1,46
 870 1084 870 1084 887.5 1073 c 128,-1,47
 905 1062 905 1062 935 1052.5 c 128,-1,48
 965 1043 965 1043 984.5 1038.5 c 128,-1,49
 1004 1034 1004 1034 1038 1028 c 0,50,51
 1048 1026 1048 1026 1053 1025 c 128,-1,52
 1058 1024 1058 1024 1066 1022.5 c 128,-1,53
 1074 1021 1074 1021 1081 1020 c 1,54,-1
 1081 942 l 1,55,56
 1064 938 1064 938 1032 932.5 c 128,-1,57
 1000 927 1000 927 982 923 c 128,-1,58
 964 919 964 919 935.5 910 c 128,-1,59
 907 901 907 901 890 890 c 128,-1,60
 873 879 873 879 850 859 c 128,-1,61
 827 839 827 839 813 813 c 128,-1,62
 799 787 799 787 783.5 748 c 128,-1,63
 768 709 768 709 760 660 c 128,-1,64
 752 611 752 611 746.5 545.5 c 128,-1,65
 741 480 741 480 741 401 c 0,66,67
 741 328 741 328 749.5 161.5 c 128,-1,68
 758 -5 758 -5 758 -98 c 0,69,70
 758 -250 758 -250 735.5 -375.5 c 128,-1,71
 713 -501 713 -501 662 -608.5 c 128,-1,72
 611 -716 611 -716 532 -789.5 c 128,-1,73
 453 -863 453 -863 336 -904.5 c 128,-1,74
 219 -946 219 -946 70 -946 c 1,75,-1
 70 -827 l 1,0,1
EndSplineSet
Position2: "'case' Case-Sensitive Forms in Latin lookup 0 subtable" dx=0 dy=205 dh=0 dv=0
EndChar

StartChar: exclamdown
Encoding: 161 161 99
Width: 1249
GlyphClass: 2
Flags: W
LayerCount: 2
Fore
SplineSet
451 2499 m 0,0,1
 451 2544 451 2544 517.5 2609.5 c 128,-1,2
 584 2675 584 2675 627 2675 c 0,3,4
 666 2675 666 2675 732.5 2608 c 128,-1,5
 799 2541 799 2541 799 2494 c 0,6,7
 799 2454 799 2454 729.5 2388 c 128,-1,8
 660 2322 660 2322 627 2322 c 0,9,10
 578 2322 578 2322 514.5 2390.5 c 128,-1,11
 451 2459 451 2459 451 2499 c 0,0,1
471 4 m 0,12,13
 475 259 475 259 525.5 807 c 128,-1,14
 576 1355 576 1355 582 1593 c 0,15,16
 583 1640 583 1640 584 1700 c 128,-1,17
 585 1760 585 1760 585 1794.5 c 128,-1,18
 585 1829 585 1829 587 1870 c 128,-1,19
 589 1911 589 1911 593 1932.5 c 128,-1,20
 597 1954 597 1954 604.5 1974.5 c 128,-1,21
 612 1995 612 1995 624.5 2003 c 128,-1,22
 637 2011 637 2011 655 2011 c 0,23,24
 669 2011 669 2011 679.5 2002 c 128,-1,25
 690 1993 690 1993 696.5 1980 c 128,-1,26
 703 1967 703 1967 708 1948.5 c 128,-1,27
 713 1930 713 1930 715 1916.5 c 128,-1,28
 717 1903 717 1903 719 1886.5 c 128,-1,29
 721 1870 721 1870 721 1868 c 0,30,31
 754 1463 754 1463 774.5 894.5 c 128,-1,32
 795 326 795 326 795 94 c 0,33,34
 795 54 795 54 757.5 25 c 128,-1,35
 720 -4 720 -4 667.5 -17 c 128,-1,36
 615 -30 615 -30 578 -35.5 c 128,-1,37
 541 -41 541 -41 524 -41 c 0,38,39
 471 -41 471 -41 471 4 c 0,12,13
EndSplineSet
Position2: "'cpsp' Capital Spacing in Latin lookup 1 subtable" dx=16 dy=0 dh=33 dv=0
EndChar

StartChar: cent
Encoding: 162 162 100
Width: 1748
GlyphClass: 2
Flags: W
LayerCount: 2
Fore
SplineSet
98 897 m 0,0,1
 98 1005 98 1005 121.5 1111 c 128,-1,2
 145 1217 145 1217 191 1316.5 c 128,-1,3
 237 1416 237 1416 309.5 1501 c 128,-1,4
 382 1586 382 1586 474.5 1650 c 128,-1,5
 567 1714 567 1714 690 1750 c 128,-1,6
 813 1786 813 1786 954 1786 c 1,7,-1
 1249 2970 l 1,8,-1
 1413 2949 l 1,9,-1
 1073 1774 l 1,10,11
 1289 1739 1289 1739 1437 1615 c 128,-1,12
 1585 1491 1585 1491 1585 1327 c 0,13,14
 1585 1225 1585 1225 1514.5 1151 c 128,-1,15
 1444 1077 1444 1077 1343 1077 c 0,16,17
 1254 1077 1254 1077 1190 1135 c 128,-1,18
 1126 1193 1126 1193 1126 1270 c 0,19,20
 1126 1317 1126 1317 1151 1358 c 128,-1,21
 1176 1399 1176 1399 1206 1422.5 c 128,-1,22
 1236 1446 1236 1446 1261 1472.5 c 128,-1,23
 1286 1499 1286 1499 1286 1520 c 0,24,25
 1286 1563 1286 1563 1212.5 1609.5 c 128,-1,26
 1139 1656 1139 1656 1044 1659 c 1,27,-1
 651 213 l 1,28,29
 785 90 785 90 983 90 c 0,30,31
 1078 90 1078 90 1170 122.5 c 128,-1,32
 1262 155 1262 155 1323.5 196 c 128,-1,33
 1385 237 1385 237 1442.5 292 c 128,-1,34
 1500 347 1500 347 1521 373.5 c 128,-1,35
 1542 400 1542 400 1559 423 c 1,36,-1
 1561 426 l 1,37,-1
 1651 340 l 1,38,39
 1648 338 1648 338 1616.5 302 c 128,-1,40
 1585 266 1585 266 1547 226 c 128,-1,41
 1509 186 1509 186 1443 135 c 128,-1,42
 1377 84 1377 84 1306.5 45 c 128,-1,43
 1236 6 1236 6 1138 -21.5 c 128,-1,44
 1040 -49 1040 -49 938 -49 c 0,45,46
 762 -49 762 -49 602 25 c 1,47,-1
 389 -827 l 1,48,-1
 246 -791 l 1,49,-1
 500 82 l 1,50,51
 316 198 316 198 207 406 c 128,-1,52
 98 614 98 614 98 897 c 0,0,1
426 872 m 0,53,54
 426 518 426 518 561 319 c 1,55,-1
 918 1647 l 1,56,57
 766 1617 766 1617 653.5 1507 c 128,-1,58
 541 1397 541 1397 483.5 1233 c 128,-1,59
 426 1069 426 1069 426 872 c 0,53,54
EndSplineSet
EndChar

StartChar: sterling
Encoding: 163 163 101
Width: 1781
GlyphClass: 2
Flags: W
LayerCount: 2
Fore
SplineSet
70 94 m 0,0,1
 70 153 70 153 101.5 204 c 128,-1,2
 133 255 133 255 186.5 292.5 c 128,-1,3
 240 330 240 330 292.5 358.5 c 128,-1,4
 345 387 345 387 405 416 c 128,-1,5
 465 445 465 445 492 463 c 1,6,7
 533 508 533 508 555.5 641 c 128,-1,8
 578 774 578 774 578 885 c 0,9,10
 578 887 578 887 575.5 903 c 128,-1,11
 573 919 573 919 570 947 c 128,-1,12
 567 975 567 975 565 1004 c 1,13,-1
 111 1004 l 1,14,-1
 111 1163 l 1,15,-1
 549 1163 l 1,16,17
 512 1552 512 1552 512 1614 c 0,18,19
 512 1832 512 1832 550 2012 c 128,-1,20
 588 2192 588 2192 656 2319.5 c 128,-1,21
 724 2447 724 2447 818.5 2535 c 128,-1,22
 913 2623 913 2623 1025.5 2665 c 128,-1,23
 1138 2707 1138 2707 1266 2707 c 0,24,25
 1380 2707 1380 2707 1482.5 2658.5 c 128,-1,26
 1585 2610 1585 2610 1648.5 2523.5 c 128,-1,27
 1712 2437 1712 2437 1712 2335 c 0,28,29
 1712 2251 1712 2251 1665.5 2196.5 c 128,-1,30
 1619 2142 1619 2142 1556 2142 c 0,31,32
 1422 2142 1422 2142 1384 2343 c 1,33,34
 1362 2445 1362 2445 1345 2479 c 0,35,36
 1301 2569 1301 2569 1181 2572 c 0,37,38
 1176 2572 1176 2572 1171 2572 c 0,39,40
 1129 2572 1129 2572 1087 2558.5 c 128,-1,41
 1045 2545 1045 2545 1001 2512 c 128,-1,42
 957 2479 957 2479 923.5 2429.5 c 128,-1,43
 890 2380 890 2380 869 2300.5 c 128,-1,44
 848 2221 848 2221 848 2122 c 0,45,46
 848 2097 848 2097 850 1888 c 128,-1,47
 852 1679 852 1679 852 1470 c 0,48,49
 852 1328 852 1328 831 1163 c 1,50,-1
 1319 1163 l 1,51,-1
 1319 1004 l 1,52,-1
 807 1004 l 1,53,54
 778 864 778 864 733 736 c 128,-1,55
 688 608 688 608 658 550 c 2,56,-1
 627 492 l 1,57,58
 647 504 647 504 676 504 c 0,59,60
 747 504 747 504 813 482 c 128,-1,61
 879 460 879 460 929.5 424.5 c 128,-1,62
 980 389 980 389 1027 346 c 128,-1,63
 1074 303 1074 303 1116 260 c 128,-1,64
 1158 217 1158 217 1197 181.5 c 128,-1,65
 1236 146 1236 146 1280 124 c 128,-1,66
 1324 102 1324 102 1368 102 c 0,67,68
 1430 102 1430 102 1473 158.5 c 128,-1,69
 1516 215 1516 215 1516 283 c 0,70,71
 1516 320 1516 320 1499 353 c 128,-1,72
 1482 386 1482 386 1458 411 c 128,-1,73
 1434 436 1434 436 1410 461.5 c 128,-1,74
 1386 487 1386 487 1369 520 c 128,-1,75
 1352 553 1352 553 1352 590 c 0,76,77
 1352 647 1352 647 1388 694 c 128,-1,78
 1424 741 1424 741 1479 741 c 0,79,80
 1542 741 1542 741 1593.5 689 c 128,-1,81
 1645 637 1645 637 1672.5 559.5 c 128,-1,82
 1700 482 1700 482 1700 401 c 0,83,84
 1700 278 1700 278 1639.5 173 c 128,-1,85
 1579 68 1579 68 1466 3.5 c 128,-1,86
 1353 -61 1353 -61 1212 -61 c 0,87,88
 1150 -61 1150 -61 1097.5 -46.5 c 128,-1,89
 1045 -32 1045 -32 1010 -12.5 c 128,-1,90
 975 7 975 7 937 45 c 128,-1,91
 899 83 899 83 877.5 111 c 128,-1,92
 856 139 856 139 818.5 192 c 128,-1,93
 781 245 781 245 758 274 c 0,94,95
 655 401 655 401 594 401 c 0,96,97
 556 401 556 401 525 354 c 128,-1,98
 494 307 494 307 468 240.5 c 128,-1,99
 442 174 442 174 411.5 107.5 c 128,-1,100
 381 41 381 41 329 -6 c 128,-1,101
 277 -53 277 -53 209 -53 c 0,102,103
 149 -53 149 -53 109.5 -9.5 c 128,-1,104
 70 34 70 34 70 94 c 0,0,1
EndSplineSet
EndChar

StartChar: currency
Encoding: 164 164 102
Width: 2134
GlyphClass: 2
Flags: W
LayerCount: 2
Fore
SplineSet
70 180 m 0,0,1
 70 203 70 203 82 226.5 c 128,-1,2
 94 250 94 250 106.5 264.5 c 128,-1,3
 119 279 119 279 143 303 c 2,4,-1
 422 586 l 1,5,6
 262 798 262 798 262 1073 c 0,7,8
 262 1204 262 1204 303 1328.5 c 128,-1,9
 344 1453 344 1453 418 1552 c 1,10,-1
 143 1835 l 1,11,-1
 136 1841 l 2,12,13
 130 1847 130 1847 125 1852.5 c 128,-1,14
 120 1858 120 1858 111.5 1867.5 c 128,-1,15
 103 1877 103 1877 96.5 1887 c 128,-1,16
 90 1897 90 1897 83.5 1908.5 c 128,-1,17
 77 1920 77 1920 73.5 1933 c 128,-1,18
 70 1946 70 1946 70 1958 c 0,19,20
 70 2006 70 2006 102 2037 c 128,-1,21
 134 2068 134 2068 176 2068 c 0,22,23
 230 2068 230 2068 303 1995 c 2,24,-1
 586 1712 l 1,25,26
 686 1787 686 1787 810.5 1829.5 c 128,-1,27
 935 1872 935 1872 1065 1872 c 0,28,29
 1332 1872 1332 1872 1548 1712 c 1,30,-1
 1831 1995 l 2,31,32
 1900 2064 1900 2064 1954 2064 c 0,33,34
 2002 2064 2002 2064 2033 2032 c 128,-1,35
 2064 2000 2064 2000 2064 1958 c 0,36,37
 2064 1935 2064 1935 2052 1911.5 c 128,-1,38
 2040 1888 2040 1888 2027.5 1873.5 c 128,-1,39
 2015 1859 2015 1859 1991 1835 c 2,40,-1
 1708 1548 l 1,41,42
 1876 1317 1876 1317 1876 1065 c 0,43,44
 1876 815 1876 815 1708 590 c 1,45,-1
 1991 303 l 1,46,-1
 1998 297 l 2,47,48
 2004 291 2004 291 2009 285.5 c 128,-1,49
 2014 280 2014 280 2022.5 270.5 c 128,-1,50
 2031 261 2031 261 2037.5 251 c 128,-1,51
 2044 241 2044 241 2050.5 229.5 c 128,-1,52
 2057 218 2057 218 2060.5 205 c 128,-1,53
 2064 192 2064 192 2064 180 c 0,54,55
 2064 133 2064 133 2030 101.5 c 128,-1,56
 1996 70 1996 70 1954 70 c 0,57,58
 1931 70 1931 70 1907.5 82 c 128,-1,59
 1884 94 1884 94 1869.5 106.5 c 128,-1,60
 1855 119 1855 119 1831 143 c 2,61,-1
 1548 426 l 1,62,63
 1447 351 1447 351 1322 308.5 c 128,-1,64
 1197 266 1197 266 1065 266 c 0,65,66
 934 266 934 266 809.5 307 c 128,-1,67
 685 348 685 348 586 422 c 1,68,-1
 303 143 l 2,69,70
 234 74 234 74 176 74 c 0,71,72
 129 74 129 74 99.5 106 c 128,-1,73
 70 138 70 138 70 180 c 0,0,1
496 1065 m 0,74,75
 496 906 496 906 573 774 c 128,-1,76
 650 642 650 642 780.5 567 c 128,-1,77
 911 492 911 492 1065 492 c 0,78,79
 1218 492 1218 492 1350 569 c 128,-1,80
 1482 646 1482 646 1560 779.5 c 128,-1,81
 1638 913 1638 913 1638 1069 c 0,82,83
 1638 1224 1638 1224 1561 1359 c 128,-1,84
 1484 1494 1484 1494 1351.5 1574.5 c 128,-1,85
 1219 1655 1219 1655 1065 1655 c 0,86,87
 909 1655 909 1655 777.5 1574.5 c 128,-1,88
 646 1494 646 1494 571 1358.5 c 128,-1,89
 496 1223 496 1223 496 1065 c 0,74,75
EndSplineSet
EndChar

StartChar: yen
Encoding: 165 165 103
Width: 2617
GlyphClass: 2
Flags: W
LayerCount: 2
Fore
SplineSet
111 2568 m 1,0,-1
 115 2732 l 1,1,-1
 1032 2732 l 1,2,-1
 1032 2568 l 1,3,-1
 930 2568 l 2,4,5
 825 2568 825 2568 781 2558.5 c 128,-1,6
 737 2549 737 2549 737 2515 c 0,7,8
 737 2499 737 2499 760.5 2456.5 c 128,-1,9
 784 2414 784 2414 877 2269 c 2,10,-1
 1397 1450 l 1,11,-1
 2114 2466 l 1,12,13
 2138 2506 2138 2506 2138 2515 c 0,14,15
 2138 2549 2138 2549 2075 2558.5 c 128,-1,16
 2012 2568 2012 2568 1872 2568 c 2,17,-1
 1806 2568 l 1,18,-1
 1802 2732 l 1,19,-1
 2548 2732 l 1,20,-1
 2548 2568 l 1,21,-1
 2527 2568 l 2,22,23
 2482 2568 2482 2568 2460 2566 c 128,-1,24
 2438 2564 2438 2564 2411 2556 c 128,-1,25
 2384 2548 2384 2548 2363 2528.5 c 128,-1,26
 2342 2509 2342 2509 2316 2478.5 c 128,-1,27
 2290 2448 2290 2448 2253 2396 c 2,28,-1
 1704 1606 l 1,29,-1
 2142 1606 l 1,30,-1
 2093 1409 l 1,31,-1
 1540 1409 l 1,32,-1
 1454 1270 l 1,33,-1
 1454 1004 l 1,34,-1
 2142 1004 l 1,35,-1
 2093 807 l 1,36,-1
 1454 807 l 1,37,-1
 1454 348 l 2,38,39
 1454 300 1454 300 1455.5 274 c 128,-1,40
 1457 248 1457 248 1466 223.5 c 128,-1,41
 1475 199 1475 199 1488 189 c 128,-1,42
 1501 179 1501 179 1531 171 c 128,-1,43
 1561 163 1561 163 1596 161.5 c 128,-1,44
 1631 160 1631 160 1692 160 c 2,45,-1
 1880 160 l 1,46,-1
 1876 0 l 1,47,-1
 725 0 l 1,48,-1
 729 160 l 1,49,-1
 893 160 l 2,50,51
 936 160 936 160 961 160.5 c 128,-1,52
 986 161 986 161 1013.5 164 c 128,-1,53
 1041 167 1041 167 1054.5 171.5 c 128,-1,54
 1068 176 1068 176 1082.5 185.5 c 128,-1,55
 1097 195 1097 195 1103 207 c 128,-1,56
 1109 219 1109 219 1114.5 239.5 c 128,-1,57
 1120 260 1120 260 1121 283 c 128,-1,58
 1122 306 1122 306 1122 340 c 2,59,-1
 1122 807 l 1,60,-1
 475 807 l 1,61,-1
 524 1004 l 1,62,-1
 1122 1004 l 1,63,-1
 1122 1303 l 1,64,-1
 1061 1409 l 1,65,-1
 475 1409 l 1,66,-1
 524 1606 l 1,67,-1
 909 1606 l 1,68,-1
 451 2318 l 2,69,70
 438 2338 438 2338 416 2373 c 0,71,72
 393 2410 393 2410 382.5 2426 c 128,-1,73
 372 2442 372 2442 354 2467.5 c 128,-1,74
 336 2493 336 2493 330 2501.5 c 128,-1,75
 324 2510 324 2510 307 2525.5 c 128,-1,76
 290 2541 290 2541 285 2544 c 128,-1,77
 280 2547 280 2547 261 2555 c 128,-1,78
 242 2563 242 2563 233.5 2563.5 c 128,-1,79
 225 2564 225 2564 200 2566 c 128,-1,80
 175 2568 175 2568 160 2568 c 128,-1,81
 145 2568 145 2568 111 2568 c 1,0,-1
EndSplineSet
EndChar

StartChar: brokenbar
Encoding: 166 166 104
Width: 901
GlyphClass: 2
Flags: W
LayerCount: 2
Fore
SplineSet
360 590 m 1,0,-1
 541 590 l 1,1,-1
 541 -946 l 1,2,-1
 360 -946 l 1,3,-1
 360 590 l 1,0,-1
360 1356 m 1,4,-1
 360 2892 l 1,5,-1
 541 2892 l 1,6,-1
 541 1356 l 1,7,-1
 360 1356 l 1,4,-1
EndSplineSet
Position2: "'case' Case-Sensitive Forms in Latin lookup 0 subtable" dx=0 dy=205 dh=0 dv=0
EndChar

StartChar: section
Encoding: 167 167 105
Width: 1839
GlyphClass: 2
Flags: W
LayerCount: 2
Fore
SplineSet
221 1208 m 0,0,1
 221 1307 221 1307 245 1387 c 128,-1,2
 269 1467 269 1467 307.5 1518.5 c 128,-1,3
 346 1570 346 1570 398 1604 c 128,-1,4
 450 1638 450 1638 503.5 1652.5 c 128,-1,5
 557 1667 557 1667 614 1667 c 0,6,7
 625 1667 625 1667 644 1665 c 128,-1,8
 663 1663 663 1663 668 1663 c 1,9,10
 667 1666 667 1666 642 1694.5 c 128,-1,11
 617 1723 617 1723 582.5 1763.5 c 128,-1,12
 548 1804 548 1804 507 1868.5 c 128,-1,13
 466 1933 466 1933 432 2003 c 128,-1,14
 398 2073 398 2073 375 2164.5 c 128,-1,15
 352 2256 352 2256 352 2347 c 0,16,17
 352 2457 352 2457 381.5 2546.5 c 128,-1,18
 411 2636 411 2636 461 2696 c 128,-1,19
 511 2756 511 2756 579 2797 c 128,-1,20
 647 2838 647 2838 721.5 2856.5 c 128,-1,21
 796 2875 796 2875 877 2875 c 0,22,23
 977 2875 977 2875 1063 2851 c 128,-1,24
 1149 2827 1149 2827 1209 2787 c 128,-1,25
 1269 2747 1269 2747 1312.5 2695 c 128,-1,26
 1356 2643 1356 2643 1376.5 2586.5 c 128,-1,27
 1397 2530 1397 2530 1397 2474 c 0,28,29
 1397 2354 1397 2354 1339 2299.5 c 128,-1,30
 1281 2245 1281 2245 1192 2245 c 0,31,32
 1097 2245 1097 2245 1013.5 2298.5 c 128,-1,33
 930 2352 930 2352 930 2421 c 0,34,35
 930 2464 930 2464 977 2538 c 128,-1,36
 1024 2612 1024 2612 1024 2646 c 0,37,38
 1024 2686 1024 2686 990.5 2713 c 128,-1,39
 957 2740 957 2740 905 2740 c 0,40,41
 835 2740 835 2740 777 2725 c 128,-1,42
 719 2710 719 2710 667.5 2675.5 c 128,-1,43
 616 2641 616 2641 586.5 2574 c 128,-1,44
 557 2507 557 2507 557 2413 c 0,45,46
 557 2338 557 2338 593.5 2261.5 c 128,-1,47
 630 2185 630 2185 691 2115 c 128,-1,48
 752 2045 752 2045 832 1972 c 128,-1,49
 912 1899 912 1899 1000 1823 c 128,-1,50
 1088 1747 1088 1747 1175.5 1666.5 c 128,-1,51
 1263 1586 1263 1586 1343 1493 c 128,-1,52
 1423 1400 1423 1400 1484 1302 c 128,-1,53
 1545 1204 1545 1204 1581.5 1083.5 c 128,-1,54
 1618 963 1618 963 1618 836 c 0,55,56
 1618 738 1618 738 1602 660 c 128,-1,57
 1586 582 1586 582 1558 531.5 c 128,-1,58
 1530 481 1530 481 1496 446 c 128,-1,59
 1462 411 1462 411 1420.5 393 c 128,-1,60
 1379 375 1379 375 1342.5 367.5 c 128,-1,61
 1306 360 1306 360 1266 360 c 0,62,63
 1238 360 1238 360 1216 363 c 128,-1,64
 1194 366 1194 366 1162.5 373 c 128,-1,65
 1131 380 1131 380 1126 381 c 1,66,67
 1162 348 1162 348 1185.5 325.5 c 128,-1,68
 1209 303 1209 303 1255 253 c 128,-1,69
 1301 203 1301 203 1333 160.5 c 128,-1,70
 1365 118 1365 118 1405 54.5 c 128,-1,71
 1445 -9 1445 -9 1469.5 -69.5 c 128,-1,72
 1494 -130 1494 -130 1511 -205.5 c 128,-1,73
 1528 -281 1528 -281 1528 -356 c 0,74,75
 1528 -479 1528 -479 1480.5 -577.5 c 128,-1,76
 1433 -676 1433 -676 1353.5 -736.5 c 128,-1,77
 1274 -797 1274 -797 1176 -828.5 c 128,-1,78
 1078 -860 1078 -860 971 -860 c 0,79,80
 884 -860 884 -860 800 -840 c 128,-1,81
 716 -820 716 -820 641 -778.5 c 128,-1,82
 566 -737 566 -737 509 -679.5 c 128,-1,83
 452 -622 452 -622 418.5 -540.5 c 128,-1,84
 385 -459 385 -459 385 -365 c 0,85,86
 385 -232 385 -232 454.5 -146.5 c 128,-1,87
 524 -61 524 -61 627 -61 c 0,88,89
 655 -61 655 -61 709 -91 c 128,-1,90
 763 -121 763 -121 809.5 -170 c 128,-1,91
 856 -219 856 -219 856 -262 c 0,92,93
 856 -295 856 -295 831 -336 c 128,-1,94
 806 -377 806 -377 776 -409.5 c 128,-1,95
 746 -442 746 -442 721 -483 c 128,-1,96
 696 -524 696 -524 696 -557 c 0,97,98
 696 -580 696 -580 702.5 -602.5 c 128,-1,99
 709 -625 709 -625 728.5 -649 c 128,-1,100
 748 -673 748 -673 778.5 -691 c 128,-1,101
 809 -709 809 -709 860.5 -721 c 128,-1,102
 912 -733 912 -733 979 -733 c 0,103,104
 1057 -733 1057 -733 1135 -696.5 c 128,-1,105
 1213 -660 1213 -660 1268 -588.5 c 128,-1,106
 1323 -517 1323 -517 1323 -430 c 0,107,108
 1323 -351 1323 -351 1289.5 -273 c 128,-1,109
 1256 -195 1256 -195 1204 -130 c 128,-1,110
 1152 -65 1152 -65 1072.5 11 c 128,-1,111
 993 87 993 87 918 149.5 c 128,-1,112
 843 212 843 212 746 298.5 c 128,-1,113
 649 385 649 385 578 459 c 0,114,115
 451 590 451 590 368.5 729.5 c 128,-1,116
 286 869 286 869 253.5 984 c 128,-1,117
 221 1099 221 1099 221 1208 c 0,0,1
406 1364 m 0,118,119
 406 1286 406 1286 452.5 1183 c 128,-1,120
 499 1080 499 1080 572.5 979.5 c 128,-1,121
 646 879 646 879 739 780 c 128,-1,122
 832 681 832 681 923.5 606 c 128,-1,123
 1015 531 1015 531 1099 484.5 c 128,-1,124
 1183 438 1183 438 1237 438 c 0,125,126
 1333 438 1333 438 1395.5 488 c 128,-1,127
 1458 538 1458 538 1458 627 c 0,128,129
 1458 717 1458 717 1389.5 848.5 c 128,-1,130
 1321 980 1321 980 1219.5 1106 c 128,-1,131
 1118 1232 1118 1232 1009.5 1344 c 128,-1,132
 901 1456 901 1456 811.5 1524.5 c 128,-1,133
 722 1593 722 1593 688 1593 c 0,134,135
 561 1593 561 1593 483.5 1528.5 c 128,-1,136
 406 1464 406 1464 406 1364 c 0,118,119
EndSplineSet
EndChar

StartChar: copyright
Encoding: 169 169 107
Width: 3309
GlyphClass: 2
Flags: W
LayerCount: 2
Fore
SplineSet
180 971 m 0,0,1
 180 1171 180 1171 232 1362 c 128,-1,2
 284 1553 284 1553 378.5 1716 c 128,-1,3
 473 1879 473 1879 610 2016.5 c 128,-1,4
 747 2154 747 2154 910.5 2250 c 128,-1,5
 1074 2346 1074 2346 1270.5 2400 c 128,-1,6
 1467 2454 1467 2454 1675 2454 c 0,7,8
 1880 2454 1880 2454 2072.5 2400 c 128,-1,9
 2265 2346 2265 2346 2424 2249.5 c 128,-1,10
 2583 2153 2583 2153 2715 2016 c 128,-1,11
 2847 1879 2847 1879 2938 1716 c 128,-1,12
 3029 1553 3029 1553 3079 1362 c 128,-1,13
 3129 1171 3129 1171 3129 971 c 0,14,15
 3129 772 3129 772 3080 581.5 c 128,-1,16
 3031 391 3031 391 2941.5 226 c 128,-1,17
 2852 61 2852 61 2720.5 -77.5 c 128,-1,18
 2589 -216 2589 -216 2430 -315 c 128,-1,19
 2271 -414 2271 -414 2076 -469 c 128,-1,20
 1881 -524 1881 -524 1671 -524 c 0,21,22
 1455 -524 1455 -524 1256.5 -472 c 128,-1,23
 1058 -420 1058 -420 894.5 -325 c 128,-1,24
 731 -230 731 -230 597 -94 c 128,-1,25
 463 42 463 42 371.5 206.5 c 128,-1,26
 280 371 280 371 230 566 c 128,-1,27
 180 761 180 761 180 971 c 0,0,1
360 971 m 0,28,29
 360 751 360 751 423.5 548 c 128,-1,30
 487 345 487 345 605.5 180 c 128,-1,31
 724 15 724 15 884 -108 c 128,-1,32
 1044 -231 1044 -231 1248 -298 c 128,-1,33
 1452 -365 1452 -365 1675 -365 c 0,34,35
 1934 -365 1934 -365 2169 -260.5 c 128,-1,36
 2404 -156 2404 -156 2575 22 c 128,-1,37
 2746 200 2746 200 2847.5 450 c 128,-1,38
 2949 700 2949 700 2949 979 c 0,39,40
 2949 1187 2949 1187 2889 1383.5 c 128,-1,41
 2829 1580 2829 1580 2715.5 1743.5 c 128,-1,42
 2602 1907 2602 1907 2447.5 2030 c 128,-1,43
 2293 2153 2293 2153 2092.5 2221.5 c 128,-1,44
 1892 2290 1892 2290 1671 2290 c 0,45,46
 1454 2290 1454 2290 1252.5 2222.5 c 128,-1,47
 1051 2155 1051 2155 890.5 2032 c 128,-1,48
 730 1909 730 1909 610 1746 c 128,-1,49
 490 1583 490 1583 425 1383 c 128,-1,50
 360 1183 360 1183 360 971 c 0,28,29
668 926 m 0,51,52
 668 1067 668 1067 700 1192.5 c 128,-1,53
 732 1318 732 1318 788.5 1415 c 128,-1,54
 845 1512 845 1512 922 1593 c 128,-1,55
 999 1674 999 1674 1088 1730.5 c 128,-1,56
 1177 1787 1177 1787 1275.5 1826 c 128,-1,57
 1374 1865 1374 1865 1472.5 1883 c 128,-1,58
 1571 1901 1571 1901 1667 1901 c 0,59,60
 1825 1901 1825 1901 1962 1876.5 c 128,-1,61
 2099 1852 2099 1852 2168.5 1824 c 128,-1,62
 2238 1796 2238 1796 2296 1767 c 128,-1,63
 2354 1738 2354 1738 2359 1737 c 1,64,-1
 2359 1450 l 2,65,66
 2359 1384 2359 1384 2347 1384 c 0,67,68
 2339 1384 2339 1384 2322 1403 c 128,-1,69
 2305 1422 2305 1422 2278.5 1452.5 c 128,-1,70
 2252 1483 2252 1483 2215.5 1519.5 c 128,-1,71
 2179 1556 2179 1556 2125.5 1593 c 128,-1,72
 2072 1630 2072 1630 2009 1660.5 c 128,-1,73
 1946 1691 1946 1691 1859 1710 c 128,-1,74
 1772 1729 1772 1729 1675 1729 c 0,75,76
 1514 1729 1514 1729 1375 1665.5 c 128,-1,77
 1236 1602 1236 1602 1142 1496.5 c 128,-1,78
 1048 1391 1048 1391 995 1253.5 c 128,-1,79
 942 1116 942 1116 942 967 c 0,80,81
 942 843 942 843 979.5 721 c 128,-1,82
 1017 599 1017 599 1089 494.5 c 128,-1,83
 1161 390 1161 390 1257.5 310 c 128,-1,84
 1354 230 1354 230 1479.5 184.5 c 128,-1,85
 1605 139 1605 139 1741 139 c 0,86,87
 1844 139 1844 139 1934.5 160 c 128,-1,88
 2025 181 2025 181 2088 214.5 c 128,-1,89
 2151 248 2151 248 2203 289 c 128,-1,90
 2255 330 2255 330 2288.5 370.5 c 128,-1,91
 2322 411 2322 411 2346 444.5 c 128,-1,92
 2370 478 2370 478 2384 499 c 128,-1,93
 2398 520 2398 520 2404 520 c 0,94,95
 2413 520 2413 520 2413 451 c 2,96,-1
 2413 225 l 1,97,98
 2402 215 2402 215 2382 198 c 128,-1,99
 2362 181 2362 181 2291 138 c 128,-1,100
 2220 95 2220 95 2140.5 62 c 128,-1,101
 2061 29 2061 29 1933.5 2 c 128,-1,102
 1806 -25 1806 -25 1671 -25 c 0,103,104
 1484 -25 1484 -25 1322 25 c 128,-1,105
 1160 75 1160 75 1041.5 163.5 c 128,-1,106
 923 252 923 252 838 371.5 c 128,-1,107
 753 491 753 491 710.5 632 c 128,-1,108
 668 773 668 773 668 926 c 0,51,52
EndSplineSet
EndChar

StartChar: ordfeminine
Encoding: 170 170 108
Width: 1572
GlyphClass: 2
Flags: W
LayerCount: 2
Fore
SplineSet
180 1896 m 0,0,1
 180 2030 180 2030 271.5 2145.5 c 128,-1,2
 363 2261 363 2261 525 2330.5 c 128,-1,3
 687 2400 687 2400 881 2400 c 1,4,-1
 881 2597 l 2,5,6
 881 2639 881 2639 877.5 2668 c 128,-1,7
 874 2697 874 2697 860.5 2728.5 c 128,-1,8
 847 2760 847 2760 822.5 2779 c 128,-1,9
 798 2798 798 2798 755 2810 c 128,-1,10
 712 2822 712 2822 651 2822 c 0,11,12
 583 2822 583 2822 529.5 2812 c 128,-1,13
 476 2802 476 2802 448 2787.5 c 128,-1,14
 420 2773 420 2773 401.5 2758.5 c 128,-1,15
 383 2744 383 2744 378 2734 c 2,16,-1
 373 2724 l 1,17,18
 377 2704 377 2704 391.5 2654 c 128,-1,19
 406 2604 406 2604 406 2585 c 0,20,21
 406 2552 406 2552 362.5 2525.5 c 128,-1,22
 319 2499 319 2499 291 2499 c 0,23,24
 265 2499 265 2499 247 2511.5 c 128,-1,25
 229 2524 229 2524 221.5 2544.5 c 128,-1,26
 214 2565 214 2565 211.5 2582 c 128,-1,27
 209 2599 209 2599 209 2617 c 128,-1,28
 209 2635 209 2635 216 2661 c 128,-1,29
 223 2687 223 2687 242 2722.5 c 128,-1,30
 261 2758 261 2758 290 2793.5 c 128,-1,31
 319 2829 319 2829 368 2864 c 128,-1,32
 417 2899 417 2899 478.5 2926 c 128,-1,33
 540 2953 540 2953 629.5 2969.5 c 128,-1,34
 719 2986 719 2986 823 2986 c 0,35,36
 855 2986 855 2986 887.5 2982.5 c 128,-1,37
 920 2979 920 2979 967.5 2963 c 128,-1,38
 1015 2947 1015 2947 1049.5 2921 c 128,-1,39
 1084 2895 1084 2895 1109.5 2844 c 128,-1,40
 1135 2793 1135 2793 1135 2724 c 2,41,-1
 1135 2105 l 2,42,43
 1135 2045 1135 2045 1143 2003.5 c 128,-1,44
 1151 1962 1151 1962 1173.5 1921 c 128,-1,45
 1196 1880 1196 1880 1242 1850.5 c 128,-1,46
 1288 1821 1288 1821 1360 1802 c 1,47,48
 1393 1797 1393 1797 1393 1778 c 0,49,50
 1393 1757 1393 1757 1360 1741 c 1,51,52
 1211 1652 1211 1652 1151 1622 c 1,53,54
 1094 1661 1094 1661 1056 1698 c 128,-1,55
 1018 1735 1018 1735 975.5 1788 c 128,-1,56
 933 1841 933 1841 913 1864 c 1,57,58
 842 1770 842 1770 729 1706 c 128,-1,59
 616 1642 616 1642 504 1642 c 0,60,61
 447 1642 447 1642 391 1657.5 c 128,-1,62
 335 1673 335 1673 287 1702.5 c 128,-1,63
 239 1732 239 1732 209.5 1782.5 c 128,-1,64
 180 1833 180 1833 180 1896 c 0,0,1
434 1995 m 0,65,66
 434 1923 434 1923 481.5 1877 c 128,-1,67
 529 1831 529 1831 635 1831 c 0,68,69
 706 1831 706 1831 757.5 1848 c 128,-1,70
 809 1865 809 1865 834 1893 c 128,-1,71
 859 1921 859 1921 870 1949 c 128,-1,72
 881 1977 881 1977 881 2007 c 2,73,-1
 881 2306 l 1,74,75
 778 2306 778 2306 691 2277.5 c 128,-1,76
 604 2249 604 2249 549 2204 c 128,-1,77
 494 2159 494 2159 464 2104.5 c 128,-1,78
 434 2050 434 2050 434 1995 c 0,65,66
EndSplineSet
EndChar

StartChar: logicalnot
Encoding: 172 172 110
Width: 2949
GlyphClass: 2
Flags: W
LayerCount: 2
Fore
SplineSet
328 844 m 1,0,-1
 328 1081 l 1,1,-1
 2621 1081 l 1,2,-1
 2621 -135 l 1,3,-1
 2380 -135 l 1,4,-1
 2380 844 l 1,5,-1
 328 844 l 1,0,-1
EndSplineSet
Position2: "'case' Case-Sensitive Forms in Latin lookup 0 subtable" dx=0 dy=205 dh=0 dv=0
EndChar

StartChar: registered
Encoding: 174 174 112
Width: 2052
GlyphClass: 2
Flags: W
LayerCount: 2
Fore
SplineSet
180 2236 m 0,0,1
 180 2413 180 2413 246 2573 c 128,-1,2
 312 2733 312 2733 424.5 2848.5 c 128,-1,3
 537 2964 537 2964 694 3032.5 c 128,-1,4
 851 3101 851 3101 1024 3101 c 0,5,6
 1165 3101 1165 3101 1295.5 3057.5 c 128,-1,7
 1426 3014 1426 3014 1530 2934 c 128,-1,8
 1634 2854 1634 2854 1711 2747.5 c 128,-1,9
 1788 2641 1788 2641 1830 2509.5 c 128,-1,10
 1872 2378 1872 2378 1872 2236 c 0,11,12
 1872 2061 1872 2061 1813 1905.5 c 128,-1,13
 1754 1750 1754 1750 1647 1633 c 128,-1,14
 1540 1516 1540 1516 1378.5 1448 c 128,-1,15
 1217 1380 1217 1380 1024 1380 c 0,16,17
 851 1380 851 1380 694 1448.5 c 128,-1,18
 537 1517 537 1517 424.5 1632.5 c 128,-1,19
 312 1748 312 1748 246 1906 c 128,-1,20
 180 2064 180 2064 180 2236 c 0,0,1
307 2232 m 0,21,22
 307 2035 307 2035 404 1868 c 128,-1,23
 501 1701 501 1701 668.5 1604 c 128,-1,24
 836 1507 836 1507 1036 1507 c 0,25,26
 1248 1507 1248 1507 1411 1605 c 128,-1,27
 1574 1703 1574 1703 1659.5 1867 c 128,-1,28
 1745 2031 1745 2031 1745 2232 c 0,29,30
 1745 2382 1745 2382 1689 2521 c 128,-1,31
 1633 2660 1633 2660 1538.5 2762 c 128,-1,32
 1444 2864 1444 2864 1312 2925 c 128,-1,33
 1180 2986 1180 2986 1036 2986 c 0,34,35
 837 2986 837 2986 668.5 2882.5 c 128,-1,36
 500 2779 500 2779 403.5 2605.5 c 128,-1,37
 307 2432 307 2432 307 2232 c 0,21,22
594 2695 m 1,38,-1
 598 2793 l 1,39,-1
 934 2793 l 2,40,41
 1056 2793 1056 2793 1126 2778 c 128,-1,42
 1196 2763 1196 2763 1249 2720 c 1,43,44
 1360 2633 1360 2633 1360 2494 c 0,45,46
 1360 2416 1360 2416 1313 2351.5 c 128,-1,47
 1266 2287 1266 2287 1163 2253 c 1,48,-1
 1430 1901 l 1,49,50
 1453 1868 1453 1868 1479 1868 c 2,51,-1
 1520 1868 l 1,52,-1
 1524 1769 l 1,53,-1
 1319 1769 l 1,54,-1
 1004 2220 l 1,55,-1
 979 2220 l 2,56,57
 940 2220 940 2220 904 2222 c 128,-1,58
 868 2224 868 2224 864 2224 c 1,59,-1
 864 1884 l 2,60,61
 864 1872 864 1872 867 1870 c 128,-1,62
 870 1868 870 1868 888 1868 c 0,63,64
 898 1868 898 1868 905 1868 c 2,65,-1
 983 1868 l 1,66,-1
 979 1769 l 1,67,-1
 606 1769 l 1,68,-1
 606 1868 l 1,69,-1
 647 1868 l 2,70,71
 688 1868 688 1868 696.5 1869.5 c 128,-1,72
 705 1871 705 1871 705 1880 c 2,73,-1
 705 2662 l 2,74,75
 705 2683 705 2683 694 2689 c 128,-1,76
 683 2695 683 2695 651 2695 c 2,77,-1
 594 2695 l 1,38,-1
864 2310 m 1,78,79
 880 2306 880 2306 938 2306 c 0,80,81
 1071 2306 1071 2306 1123.5 2348.5 c 128,-1,82
 1176 2391 1176 2391 1176 2474 c 0,83,84
 1176 2573 1176 2573 1101 2634 c 128,-1,85
 1026 2695 1026 2695 889 2695 c 0,86,87
 873 2695 873 2695 868.5 2688 c 128,-1,88
 864 2681 864 2681 864 2646 c 2,89,-1
 864 2310 l 1,78,79
EndSplineSet
EndChar

StartChar: degree
Encoding: 176 176 114
Width: 1351
GlyphClass: 2
Flags: W
LayerCount: 2
Fore
SplineSet
180 2490 m 128,-1,1
 180 2625 180 2625 246.5 2739 c 128,-1,2
 313 2853 313 2853 427 2919.5 c 128,-1,3
 541 2986 541 2986 676 2986 c 128,-1,4
 811 2986 811 2986 925 2919.5 c 128,-1,5
 1039 2853 1039 2853 1105 2739 c 128,-1,6
 1171 2625 1171 2625 1171 2490 c 0,7,8
 1171 2389 1171 2389 1132 2297.5 c 128,-1,9
 1093 2206 1093 2206 1026.5 2139.5 c 128,-1,10
 960 2073 960 2073 868.5 2034 c 128,-1,11
 777 1995 777 1995 676 1995 c 0,12,13
 541 1995 541 1995 427 2061 c 128,-1,14
 313 2127 313 2127 246.5 2241 c 128,-1,0
 180 2355 180 2355 180 2490 c 128,-1,1
328 2490 m 128,-1,16
 328 2345 328 2345 430 2241.5 c 128,-1,17
 532 2138 532 2138 676 2138 c 0,18,19
 821 2138 821 2138 924.5 2241.5 c 128,-1,20
 1028 2345 1028 2345 1028 2490 c 0,21,22
 1028 2634 1028 2634 924.5 2736.5 c 128,-1,23
 821 2839 821 2839 676 2839 c 128,-1,24
 531 2839 531 2839 429.5 2737 c 128,-1,15
 328 2635 328 2635 328 2490 c 128,-1,16
EndSplineSet
EndChar

StartChar: plusminus
Encoding: 177 177 115
Width: 2969
GlyphClass: 2
Flags: W
LayerCount: 2
Fore
SplineSet
328 -94 m 1,0,-1
 328 147 l 1,1,-1
 2642 147 l 1,2,-1
 2642 -94 l 1,3,-1
 328 -94 l 1,0,-1
328 1184 m 1,4,-1
 328 1421 l 1,5,6
 725 1421 725 1421 989 1417 c 128,-1,7
 1253 1413 1253 1413 1318 1409 c 2,8,-1
 1384 1405 l 1,9,10
 1364 1570 1364 1570 1364 2298 c 1,11,-1
 1606 2298 l 1,12,13
 1606 1990 1606 1990 1601 1767 c 128,-1,14
 1596 1544 1596 1544 1590 1474 c 2,15,-1
 1585 1405 l 1,16,17
 1792 1421 1792 1421 2642 1421 c 1,18,-1
 2642 1184 l 1,19,20
 2243 1184 2243 1184 1979 1188 c 128,-1,21
 1715 1192 1715 1192 1650 1196 c 2,22,-1
 1585 1200 l 1,23,24
 1606 1039 1606 1039 1606 307 c 1,25,-1
 1364 307 l 1,26,27
 1364 629 1364 629 1369 852.5 c 128,-1,28
 1374 1076 1374 1076 1379 1138 c 2,29,-1
 1384 1200 l 1,30,31
 1219 1184 1219 1184 328 1184 c 1,4,-1
EndSplineSet
Position2: "'case' Case-Sensitive Forms in Latin lookup 0 subtable" dx=0 dy=205 dh=0 dv=0
EndChar

StartChar: uni00B5
Encoding: 181 181 119
Width: 2121
GlyphClass: 2
Flags: W
LayerCount: 2
Fore
SplineSet
70 -614 m 0,0,1
 70 -443 70 -443 107 -264 c 128,-1,2
 144 -85 144 -85 217 170.5 c 128,-1,3
 290 426 290 426 324 578 c 0,4,5
 399 905 399 905 472 1270 c 0,6,7
 510 1457 510 1457 525 1502.5 c 128,-1,8
 540 1548 540 1548 569 1548 c 0,9,10
 576 1548 576 1548 600 1543.5 c 128,-1,11
 624 1539 624 1539 657.5 1529.5 c 128,-1,12
 691 1520 691 1520 716 1500 c 128,-1,13
 741 1480 741 1480 741 1454 c 0,14,15
 741 1417 741 1417 649 899.5 c 128,-1,16
 557 382 557 382 557 311 c 0,17,18
 557 281 557 281 563 253 c 128,-1,19
 569 225 569 225 586.5 202.5 c 128,-1,20
 604 180 604 180 631 180 c 0,21,22
 711 180 711 180 810.5 258 c 128,-1,23
 910 336 910 336 1004 456.5 c 128,-1,24
 1098 577 1098 577 1193.5 731 c 128,-1,25
 1289 885 1289 885 1363 1028 c 128,-1,26
 1437 1171 1437 1171 1495 1303 c 1,27,28
 1521 1357 1521 1357 1540.5 1404.5 c 128,-1,29
 1560 1452 1560 1452 1568.5 1474.5 c 128,-1,30
 1577 1497 1577 1497 1583 1515.5 c 128,-1,31
 1589 1534 1589 1534 1596 1539 c 128,-1,32
 1603 1544 1603 1544 1610.5 1546 c 128,-1,33
 1618 1548 1618 1548 1638 1548 c 0,34,35
 1693 1548 1693 1548 1754 1526 c 128,-1,36
 1815 1504 1815 1504 1815 1475 c 0,37,38
 1815 1458 1815 1458 1750.5 1198 c 128,-1,39
 1686 938 1686 938 1621 654 c 128,-1,40
 1556 370 1556 370 1556 295 c 0,41,42
 1556 254 1556 254 1586 227.5 c 128,-1,43
 1616 201 1616 201 1655 201 c 0,44,45
 1706 201 1706 201 1749 242 c 128,-1,46
 1792 283 1792 283 1816 332 c 128,-1,47
 1840 381 1840 381 1868 422 c 128,-1,48
 1896 463 1896 463 1921 463 c 0,49,50
 1970 463 1970 463 1970 397 c 0,51,52
 1970 350 1970 350 1943 287 c 128,-1,53
 1916 224 1916 224 1864.5 159 c 128,-1,54
 1813 94 1813 94 1747.5 39 c 128,-1,55
 1682 -16 1682 -16 1595.5 -51 c 128,-1,56
 1509 -86 1509 -86 1421 -86 c 0,57,58
 1372 -86 1372 -86 1338.5 -64.5 c 128,-1,59
 1305 -43 1305 -43 1288 -3.5 c 128,-1,60
 1271 36 1271 36 1264 81 c 128,-1,61
 1257 126 1257 126 1257 184 c 0,62,63
 1257 284 1257 284 1298 510 c 128,-1,64
 1339 736 1339 736 1339 741 c 0,65,66
 1339 758 1339 758 1331 758 c 0,67,68
 1322 758 1322 758 1306 733 c 128,-1,69
 1290 708 1290 708 1261.5 657.5 c 128,-1,70
 1233 607 1233 607 1194.5 544.5 c 128,-1,71
 1156 482 1156 482 1088.5 393 c 128,-1,72
 1021 304 1021 304 942 217 c 0,73,74
 828 92 828 92 699 9 c 128,-1,75
 570 -74 570 -74 463 -74 c 0,76,77
 420 -74 420 -74 388 -46.5 c 128,-1,78
 356 -19 356 -19 343 14 c 128,-1,79
 330 47 330 47 320.5 74.5 c 128,-1,80
 311 102 311 102 307 102 c 0,81,82
 299 102 299 102 281 21.5 c 128,-1,83
 263 -59 263 -59 248 -169 c 128,-1,84
 233 -279 233 -279 233 -348 c 0,85,86
 233 -407 233 -407 256.5 -482 c 128,-1,87
 280 -557 280 -557 304 -614.5 c 128,-1,88
 328 -672 328 -672 328 -688 c 0,89,90
 328 -696 328 -696 324.5 -709 c 128,-1,91
 321 -722 321 -722 311.5 -741 c 128,-1,92
 302 -760 302 -760 287.5 -776 c 128,-1,93
 273 -792 273 -792 246.5 -803.5 c 128,-1,94
 220 -815 220 -815 188 -815 c 0,95,96
 124 -815 124 -815 97 -767.5 c 128,-1,97
 70 -720 70 -720 70 -614 c 0,0,1
EndSplineSet
EndChar

